<?xml version="1.0" encoding="iso-8859-1"?>
<!-- Generator: Adobe Illustrator 19.0.0, SVG Export Plug-In . SVG Version: 6.00 Build 0)  -->
<svg version="1.1" id="Capa_1" xmlns="http://www.w3.org/2000/svg" xmlns:xlink="http://www.w3.org/1999/xlink" x="0px" y="0px"
	 viewBox="0 0 512 512" style="enable-background:new 0 0 512 512;" xml:space="preserve">
<path style="fill:#58B09B;" d="M11.116,265.932c-17.124-56.47-15.648-128.357,12.76-141.697s73.356,36.746,95.624,90.802
	L11.116,265.932z"/>
<path style="opacity:0.15;enable-background:new    ;" d="M4.514,152.952c-8.058,29.411-4.997,74.729,6.602,112.98l68.629-32.227
	C71.447,179.084,30.129,155.06,4.514,152.952z"/>
<path style="fill:#58B09B;" d="M500.884,265.932c17.124-56.47,15.648-128.357-12.76-141.697
	c-28.408-13.34-73.356,36.746-95.624,90.802L500.884,265.932z"/>
<path style="opacity:0.15;enable-background:new    ;" d="M507.486,152.952c8.058,29.411,4.997,74.729-6.602,112.98l-68.629-32.227
	C440.553,179.084,481.871,155.06,507.486,152.952z"/>
<path style="fill:#E36FA5;" d="M256,239.461c-51.628,0-108.078-46.488-224.321-20.034c-15.207,3.461-25.455,17.716-23.803,33.224
	c6.433,60.393,32.503,137.291,103.333,137.291c81.791,0,108.318-43.946,144.792-43.946s63.001,43.946,144.792,43.946
	c70.829,0,96.899-76.897,103.333-137.291c1.652-15.508-8.596-29.764-23.803-33.224C364.078,192.973,307.628,239.461,256,239.461z
	 M142.967,327.471c-25.777-2.967-43.426-16.294-53.157-35.295c-1.61-3.143-1.318-6.951,0.782-9.79
	c12.099-16.366,31.189-25.375,56.864-22.42c25.777,2.967,43.426,16.294,53.156,35.295c1.61,3.143,1.318,6.951-0.782,9.79
	C187.733,321.417,168.643,330.427,142.967,327.471z M369.033,327.471c-25.676,2.955-44.765-6.054-56.864-22.42
	c-2.099-2.84-2.391-6.647-0.782-9.79c9.731-19.001,27.379-32.328,53.156-35.295c25.676-2.955,44.765,6.054,56.864,22.42
	c2.099,2.84,2.391,6.647,0.782,9.79C412.459,311.178,394.81,324.504,369.033,327.471z"/>
<path style="fill:#2CA7C1;" d="M256,239.461c-22.756,0-46.453-9.031-75.79-16.867c14.935,25.663,39.005,52.632,75.79,52.632
	s60.854-26.968,75.79-52.632C302.453,230.43,278.756,239.461,256,239.461z"/>
<path style="opacity:0.08;enable-background:new    ;" d="M135.867,326.321c-21.934-4.428-37.25-16.948-46.056-34.144
	c-1.61-3.143-1.318-6.951,0.782-9.79c7.463-10.094,17.589-17.384,30.275-20.8c0.062-17.999,3.217-35.205,8.852-48.75
	c-27.43-2.93-59.435-2.195-98.04,6.591c-15.207,3.461-25.455,17.716-23.803,33.224C14.31,313.045,40.38,389.943,111.21,389.943
	c41.461,0,68.717-11.292,90.271-22.429C169.732,366.405,148.521,349.483,135.867,326.321z"/>
<g>
	<path style="fill:#4A4D58;" d="M164.419,307.995c-4.142,0-7.5-3.357-7.5-7.5c0-5.297-4.309-9.607-9.607-9.607
		c-5.297,0-9.606,4.31-9.606,9.607c0,4.143-3.357,7.5-7.5,7.5c-4.143,0-7.5-3.357-7.5-7.5c0-13.568,11.038-24.607,24.606-24.607
		c13.568,0,24.607,11.038,24.607,24.607C171.919,304.638,168.561,307.995,164.419,307.995z"/>
	<path style="fill:#4A4D58;" d="M381.795,307.995c-4.143,0-7.5-3.357-7.5-7.5c0-5.297-4.31-9.607-9.606-9.607
		c-5.298,0-9.607,4.31-9.607,9.607c0,4.143-3.357,7.5-7.5,7.5s-7.5-3.357-7.5-7.5c0-13.568,11.039-24.607,24.607-24.607
		s24.606,11.038,24.606,24.607C389.295,304.638,385.938,307.995,381.795,307.995z"/>
	<path style="fill:#4A4D58;" d="M286.263,341.992L286.263,341.992c-19.685-6.288-40.84-6.288-60.525,0l0,0
		c-5.303,1.694-7.893,7.694-5.454,12.699c6.13,12.575,18.708,33.012,35.717,33.012s29.587-20.437,35.717-33.012
		C294.156,349.687,291.566,343.686,286.263,341.992z"/>
</g>
<g>
	<path style="fill:#2CA7C1;" d="M21.177,313.389c14.735,41.42,42.157,76.552,90.031,76.552c0.749,0,1.483-0.011,2.223-0.019
		C103.844,316.982,51.727,310.493,21.177,313.389z"/>
	<path style="fill:#2CA7C1;" d="M490.823,313.389c-14.735,41.42-42.157,76.552-90.031,76.552c-0.749,0-1.484-0.011-2.223-0.019
		C408.156,316.982,460.273,310.493,490.823,313.389z"/>
</g>
<g style="opacity:0.4;">
	<circle style="fill:#FFFFFF;" cx="416.79" cy="239.29" r="7.16"/>
	<circle style="fill:#FFFFFF;" cx="42.878" cy="282.39" r="7.16"/>
	<circle style="fill:#FFFFFF;" cx="69.782" cy="242.04" r="7.16"/>
	<circle style="fill:#FFFFFF;" cx="439.17" cy="261.2" r="7.16"/>
	<circle style="fill:#FFFFFF;" cx="466.19" cy="242.04" r="7.16"/>
</g>
<g style="opacity:0.1;">
	<circle cx="137.37" cy="363.89" r="7.16"/>
	<circle cx="472.13" cy="270.46" r="7.16"/>
	<circle cx="377.81" cy="358.56" r="7.16"/>
</g>
<g>
</g>
<g>
</g>
<g>
</g>
<g>
</g>
<g>
</g>
<g>
</g>
<g>
</g>
<g>
</g>
<g>
</g>
<g>
</g>
<g>
</g>
<g>
</g>
<g>
</g>
<g>
</g>
<g>
</g>
</svg>
