<?xml version="1.0"?>
<svg xmlns="http://www.w3.org/2000/svg" xmlns:xlink="http://www.w3.org/1999/xlink" version="1.1" id="Capa_1" x="0px" y="0px" viewBox="0 0 511.999 511.999" style="enable-background:new 0 0 511.999 511.999;" xml:space="preserve" width="512px" height="512px" class=""><g><path style="fill:#394049;" d="M373.008,0H138.992c-14.817,0-26.829,12.012-26.829,26.829V485.17  c0,14.818,12.012,26.829,26.829,26.829h234.017c14.818,0,26.829-12.012,26.829-26.829V26.829C399.838,12.012,387.826,0,373.008,0z" data-original="#394049"/><path style="fill:#C7EBFF" d="M371.927,53.672H140.073c-15.415,0-27.911,12.496-27.911,27.911v348.835  c0,15.415,12.496,27.911,27.911,27.911h231.854c15.415,0,27.911-12.496,27.911-27.911V81.583  C399.838,66.168,387.342,53.672,371.927,53.672z" data-original="#76C9D2" class="active-path" data-old_color="#76C9D2"/><g>
	<path style="fill:#FFFFFF;" d="M282.65,34.079h-53.3c-4.142,0-7.5-3.357-7.5-7.5s3.358-7.5,7.5-7.5h53.3c4.142,0,7.5,3.357,7.5,7.5   S286.792,34.079,282.65,34.079z" data-original="#FFFFFF" class=""/>
	<path style="fill:#FFFFFF;" d="M264.358,492.125h-16.716c-4.142,0-7.5-3.357-7.5-7.5s3.358-7.5,7.5-7.5h16.716   c4.142,0,7.5,3.357,7.5,7.5S268.5,492.125,264.358,492.125z" data-original="#FFFFFF" class=""/>
</g><g>
	<path style="fill:#394049;" d="M169.181,186.455c-4.142,0-7.5-3.357-7.5-7.5v-9.572c0-4.143,3.358-7.5,7.5-7.5s7.5,3.357,7.5,7.5   v9.572C176.681,183.098,173.323,186.455,169.181,186.455z" data-original="#394049"/>
	<path style="fill:#394049;" d="M342.819,186.455c-4.142,0-7.5-3.357-7.5-7.5v-9.572c0-4.143,3.358-7.5,7.5-7.5s7.5,3.357,7.5,7.5   v9.572C350.319,183.098,346.961,186.455,342.819,186.455z" data-original="#394049"/>
	<path style="fill:#394049;" d="M256,207.604c-10.653,0-20.309-6.302-24.601-16.055c-1.668-3.791,0.053-8.217,3.844-9.886   c3.791-1.665,8.217,0.054,9.885,3.845c1.897,4.311,6.164,7.096,10.871,7.096s8.974-2.785,10.871-7.095   c1.669-3.792,6.095-5.51,9.886-3.843c3.791,1.669,5.512,6.095,3.843,9.886C276.308,201.303,266.652,207.604,256,207.604z" data-original="#394049"/>
</g><path style="fill:#FFFFFF;" d="M338.314,315.618H173.686c-6.844,0-12.392-5.548-12.392-12.392v-27.412  c0-6.844,5.548-12.392,12.392-12.392h164.627c6.844,0,12.392,5.548,12.392,12.392v27.412  C350.704,310.07,345.157,315.618,338.314,315.618z" data-original="#FFFFFF" class=""/><path style="fill:#507CDD;" d="M194.94,397.853h-24.439c-5.085,0-9.207-4.122-9.207-9.207v-24.439c0-5.085,4.122-9.207,9.207-9.207  h24.439c5.085,0,9.207,4.122,9.207,9.207v24.439C204.147,393.731,200.025,397.853,194.94,397.853z" data-original="#507CDD"/><path style="fill:#DC5371;" d="M268.22,397.853h-24.44c-5.085,0-9.207-4.122-9.207-9.207v-24.439c0-5.085,4.122-9.207,9.207-9.207  h24.439c5.085,0,9.207,4.122,9.207,9.207v24.439C277.426,393.731,273.303,397.853,268.22,397.853z" data-original="#DC5371"/><path style="fill:#F2DFA6;" d="M341.499,397.853H317.06c-5.085,0-9.207-4.122-9.207-9.207v-24.439c0-5.085,4.122-9.207,9.207-9.207  h24.439c5.085,0,9.207,4.122,9.207,9.207v24.439C350.704,393.731,346.583,397.853,341.499,397.853z" data-original="#F2DFA6"/><path style="opacity:0.15;enable-background:new    ;" d="M373.008,0h-2.822v443.751c0,14.817-12.012,26.829-26.829,26.829H112.162  v14.59c0,14.817,12.012,26.829,26.829,26.829h234.017c14.818,0,26.829-12.012,26.829-26.829V26.829  C399.838,12.012,387.826,0,373.008,0z" data-original="#000000" class=""/></g> </svg>
