<svg height="512pt" viewBox="-63 0 511 512" width="512pt" xmlns="http://www.w3.org/2000/svg"><path d="m312.695312 462.050781v35.378907c0 8.046874-6.523437 14.570312-14.570312 14.570312h-283.054688c-8.046874 0-14.570312-6.523438-14.570312-14.570312v-35.378907c0-8.046875 6.523438-14.570312 14.570312-14.570312h283.054688c8.046875 0 14.570312 6.523437 14.570312 14.570312zm0 0" fill="#dce6eb"/><path d="m291.882812 447.480469v33.300781c0 5.746094-4.660156 10.40625-10.40625 10.40625h-280.976562v6.242188c0 8.046874 6.523438 14.570312 14.570312 14.570312h283.054688c8.046875 0 14.570312-6.523438 14.570312-14.570312v-35.378907c0-8.046875-6.523437-14.570312-14.570312-14.570312zm0 0" fill="#c8d2dc"/><path d="m291.882812 169.625v41.628906h41.730469c5.691407 0 10.300781 4.609375 10.300781 10.300782v114.679687c0 5.691406-4.609374 10.300781-10.300781 10.300781h-41.730469v41.628906h72.84375c11.496094 0 20.8125-9.320312 20.8125-20.8125v-176.914062c0-11.492188-9.316406-20.8125-20.8125-20.8125zm0 0" fill="#dce6eb"/><path d="m368.890625 170.070312v191.035157c0 5.746093-4.660156 10.40625-10.40625 10.40625h-66.601563v16.648437h72.84375c11.496094 0 20.8125-9.316406 20.8125-20.8125v-176.910156c0-10.066406-7.152343-18.433594-16.648437-20.367188zm0 0" fill="#c8d2dc"/><path d="m291.882812 112.390625h-270.570312v335.089844h270.570312zm0 0" fill="#ffe046"/><g fill="#ffd508"><path d="m172.207031 447.480469h-31.21875v-150.894531c0-8.621094 6.988281-15.609376 15.609375-15.609376s15.609375 6.988282 15.609375 15.609376zm0 0"/><path d="m248.175781 447.480469h-31.222656v-150.894531c0-8.621094 6.988281-15.609376 15.609375-15.609376s15.613281 6.988282 15.613281 15.609376zm0 0"/><path d="m65.019531 447.480469h31.21875v-150.894531c0-8.621094-6.988281-15.609376-15.609375-15.609376s-15.609375 6.988282-15.609375 15.609376zm0 0"/></g><path d="m86.351562 282.074219c-1.773437-.703125-3.699218-1.097657-5.722656-1.097657-8.621094 0-15.609375 6.988282-15.609375 15.609376v150.894531h11.445313v-150.894531c.003906-6.597657 4.101562-12.226563 9.886718-14.511719zm0 0" fill="#eec707"/><path d="m162.320312 282.074219c-1.773437-.703125-3.699218-1.097657-5.722656-1.097657-8.621094 0-15.609375 6.988282-15.609375 15.609376v150.894531h11.445313v-150.894531c0-6.597657 4.101562-12.226563 9.886718-14.511719zm0 0" fill="#eec707"/><path d="m238.289062 282.074219c-1.773437-.703125-3.703124-1.097657-5.726562-1.097657-8.621094 0-15.609375 6.988282-15.609375 15.609376v150.894531h11.449219v-150.894531c0-6.597657 4.101562-12.226563 9.886718-14.511719zm0 0" fill="#eec707"/><path d="m291.882812 112.390625h-270.570312v63.683594c6.246094 6.039062 21.65625 12.617187 34.339844 15.136719 14.117187 2.800781 26.699218 3.238281 37.464844 2.460937v43.097656c0 11.285157 8.777343 20.894531 20.054687 21.296875 11.839844.421875 21.570313-9.050781 21.570313-20.800781v-54.648437c3.453124.355468 6.9375.535156 10.40625.535156 10.558593 0 20.832031-1.59375 30.695312-4.75 10.207031 9.011718 23.417969 14.117187 37.46875 14.117187 12.277344 0 24.171875-4.011719 33.890625-11.246093 2.226563.210937 4.460937.320312 6.695313.320312 5.179687 0 10.226562-.570312 15.089843-1.644531v267.53125h22.894531zm0 0" fill="#ffd508"/><path d="m264.820312 61.007812c0-.042968.003907-.085937.003907-.128906 0-20.980468-17.003907-37.984375-37.984375-37.984375-7.175782 0-13.886719 1.992188-19.613282 5.453125-15.074218-17.359375-37.285156-28.347656-62.078124-28.347656-33.546876 0-62.382813 20.105469-75.164063 48.917969-34.375.128906-62.199219 28.027343-62.199219 62.433593 0 34.484376 27.953125 62.4375 62.4375 62.4375 1.398438 0 2.785156-.0625 4.164063-.152343v63.132812c0 11.285157 8.773437 20.898438 20.054687 21.296875 11.839844.421875 21.570313-9.050781 21.570313-20.796875v-58.828125c0-9.132812 8.078125-16.230468 17.113281-14.898437 3.925781.578125 7.941406.878906 12.027344.878906 12.9375 0 25.171875-2.996094 36.0625-8.320313 6.730468 10.625 18.585937 17.6875 32.097656 17.6875 11.148438 0 21.175781-4.804687 28.125-12.453124 3.992188.992187 8.164062 1.527343 12.460938 1.527343 28.449218 0 51.511718-23.0625 51.511718-51.511719 0-24.703124-17.386718-45.332031-40.589844-50.34375zm0 0" fill="#fff2b2"/><path d="m99.359375 156.097656c-28.796875 0-56.316406-3.855468-81.578125-10.878906 11.121094 17.1875 30.445312 28.570312 52.441406 28.570312 1.398438 0 2.785156-.0625 4.164063-.152343v63.132812c0 11.285157 8.773437 20.898438 20.054687 21.296875 11.839844.421875 21.570313-9.050781 21.570313-20.796875v-58.828125c0-9.132812 8.078125-16.230468 17.113281-14.898437 3.925781.578125 7.941406.878906 12.027344.878906 12.9375 0 25.171875-2.996094 36.0625-8.320313 6.730468 10.625 18.585937 17.6875 32.097656 17.6875 11.148438 0 21.175781-4.804687 28.125-12.453124 3.992188.988281 8.164062 1.523437 12.460938 1.523437 28.449218 0 51.511718-23.0625 51.511718-51.511719 0-13.082031-4.878906-25.019531-12.914062-34.101562-38.449219 47.125-110.539063 78.851562-193.136719 78.851562zm0 0" fill="#ffea84"/><path d="m279.578125 66.707031c-4.53125-2.609375-9.488281-4.558593-14.753906-5.695312-1.558594 15.226562-14.460938 27.144531-30.09375 27.144531-4.269531 0-7.726563 3.460938-7.726563 7.726562 0 4.265626 3.457032 7.726563 7.726563 7.726563 22.191406 0 40.730469-15.898437 44.847656-36.902344zm0 0" fill="#ffea84"/><path d="m78.335938 34.351562c-3.25 4.535157-6.0625 9.40625-8.351563 14.566407-.023437 0 45.617187 7.054687 51.394531 54.609375.515625 4.234375 3.460938 7.726562 7.726563 7.726562s7.726562-3.460937 7.726562-7.726562c0-34.714844-25.34375-63.601563-58.496093-69.175782zm0 0" fill="#ffea84"/></svg>