<?xml version="1.0" encoding="iso-8859-1"?>
<!-- Generator: Adobe Illustrator 19.0.0, SVG Export Plug-In . SVG Version: 6.00 Build 0)  -->
<svg version="1.1" id="Capa_1" xmlns="http://www.w3.org/2000/svg" xmlns:xlink="http://www.w3.org/1999/xlink" x="0px" y="0px"
	 viewBox="0 0 512 512" style="enable-background:new 0 0 512 512;" xml:space="preserve">
<g>
	<path style="fill:#323E40;" d="M458.158,102.749h-27.063c-5.329,0-9.65,4.321-9.65,9.65v21.458l23.181,18.124l23.181-18.124
		v-21.458C467.807,107.07,463.487,102.749,458.158,102.749z"/>
	<path style="fill:#323E40;" d="M135.706,102.749H58.922c-5.329,0-9.65,4.321-9.65,9.65v21.458l48.04,18.124l48.04-18.124v-21.458
		C145.354,107.07,141.035,102.749,135.706,102.749z"/>
</g>
<path style="fill:#455058;" d="M467.807,133.857h-46.362c-10.822,0-20.234-7.416-22.765-17.939l-4.427-18.401
	c-4.087-16.991-19.286-28.968-36.762-28.968h-125.21c-17.476,0-32.674,11.977-36.762,28.968l-4.426,18.401
	c-2.531,10.522-11.943,17.939-22.765,17.939H44.193C19.786,133.857,0,153.642,0,178.049v16.141l36.783,94.463L0,383.117v16.141
	c0,24.407,19.786,44.193,44.193,44.193h423.615c24.407,0,44.193-19.786,44.193-44.193V178.049
	C512,153.642,492.214,133.857,467.807,133.857z"/>
<path style="fill:#3C464D;" d="M467.807,133.856h-30.905c24.407,0,44.193,19.787,44.193,44.193v221.209
	c0,24.407-19.786,44.193-44.193,44.193h30.905c24.407,0,44.193-19.786,44.193-44.193V178.049
	C512,153.642,492.214,133.856,467.807,133.856z"/>
<path style="fill:#EFEDEE;" d="M337.384,117.015h-84.995c-7.112,0-12.877-5.766-12.877-12.877c0-7.111,5.765-12.877,12.877-12.877
	h84.995c7.111,0,12.877,5.766,12.877,12.877C350.262,111.249,344.496,117.015,337.384,117.015z"/>
<path style="fill:#D4D2D3;" d="M319.356,104.138c0-7.111-5.765-12.877-12.877-12.877h30.905c7.112,0,12.877,5.766,12.877,12.877
	c0,7.111-5.765,12.877-12.877,12.877h-30.905C313.591,117.015,319.356,111.25,319.356,104.138z"/>
<circle style="fill:#323E40;" cx="294.889" cy="275.47" r="137.539"/>
<circle style="fill:#43C6B3;" cx="294.889" cy="275.47" r="100.535"/>
<path style="fill:#00AD94;" d="M274.284,365.704c55.524,0,100.534-45.011,100.534-100.534c0-35.265-18.161-66.284-45.637-84.229
	c38.637,14.02,66.241,51.051,66.241,94.53c0,55.524-45.011,100.534-100.534,100.534c-20.259,0-39.114-5.998-54.897-16.306
	C250.691,363.583,262.24,365.704,274.284,365.704z"/>
<g>
	<path style="fill:#455058;" d="M236.619,277.268c-4.268,0-7.726-3.459-7.726-7.726v-10.88c0-4.267,3.458-7.726,7.726-7.726
		c4.268,0,7.726,3.459,7.726,7.726v10.88C244.346,273.809,240.887,277.268,236.619,277.268z"/>
	<path style="fill:#455058;" d="M353.153,277.268c-4.268,0-7.726-3.459-7.726-7.726v-10.88c0-4.267,3.458-7.726,7.726-7.726
		c4.268,0,7.726,3.459,7.726,7.726v10.88C360.88,273.809,357.421,277.268,353.153,277.268z"/>
	<path style="fill:#455058;" d="M277.147,260.64v11.806c0,9.797,7.943,17.74,17.74,17.74l0,0c9.797,0,17.74-7.943,17.74-17.74
		V260.64H277.147L277.147,260.64z"/>
</g>
<circle style="fill:#EE5E71;" cx="132.79" cy="182.002" r="18.273"/>
<path style="fill:#323E40;" d="M49.13,208.178L0,194.19v188.928l49.13-13.989c14.46-4.117,24.434-17.327,24.434-32.361V240.54
	C73.564,225.506,63.59,212.296,49.13,208.178z"/>
<g>
</g>
<g>
</g>
<g>
</g>
<g>
</g>
<g>
</g>
<g>
</g>
<g>
</g>
<g>
</g>
<g>
</g>
<g>
</g>
<g>
</g>
<g>
</g>
<g>
</g>
<g>
</g>
<g>
</g>
</svg>
