<svg viewBox="-1 0 512.0005 512" xmlns="http://www.w3.org/2000/svg"><path d="m28.792969 32.429688c-.882813-4.046876-4.882813-6.613282-8.925781-5.730469-4.046876.882812-6.609376 4.878906-5.726563 8.925781l24.179687 110.859375c.765626 3.511719 3.871094 5.90625 7.320313 5.90625.53125 0 1.066406-.058594 1.605469-.175781 4.046875-.882813 6.613281-4.878906 5.730468-8.925782zm0 0" fill="#594f69"/><path d="m149.984375 122.128906-24.179687-110.859375c-.882813-4.046875-4.886719-6.613281-8.925782-5.730469-4.046875.882813-6.613281 4.878907-5.730468 8.925782l24.183593 110.863281c.765625 3.507813 3.871094 5.902344 7.320313 5.902344.527344 0 1.066406-.054688 1.601562-.175781 4.046875-.882813 6.613282-4.878907 5.730469-8.925782zm0 0" fill="#594f69"/><path d="m52.964844 143.234375c3.15625 14.46875-6.914063 24.636719-21.382813 27.792969-14.472656 3.15625-27.859375-1.894532-31.015625-16.363282s7.300782-23.921874 21.769532-27.078124c14.46875-3.152344 27.472656 1.179687 30.628906 15.648437zm0 0" fill="#685c79"/><path d="m149.972656 122.074219c3.15625 14.46875-6.914062 24.640625-21.382812 27.792969-14.472656 3.15625-27.859375-1.894532-31.015625-16.363282s7.300781-23.921875 21.769531-27.078125 27.472656 1.179688 30.628906 15.648438zm0 0" fill="#685c79"/><path d="m130.09375 30.929688-111.664062 24.355468-5.5625-25.503906c-.8125-3.71875 1.546874-7.390625 5.265624-8.203125l98.191407-21.417969c3.71875-.8125 7.394531 1.546875 8.207031 5.265625zm0 0" fill="#685c79"/><path d="m327.410156 250.148438-172.640625 172.640624c-18.097656 18.109376-47.457031 18.109376-65.558593 0-3.761719-3.757812-6.738282-8-8.941407-12.527343 0-.023438-.007812-.042969-.019531-.0625-8.359375-17.269531-5.371094-38.648438 8.960938-52.96875l172.640624-172.640625zm0 0" fill="#ff2c5c"/><path d="m327.410156 250.148438-172.640625 172.640624c-18.097656 18.109376-47.457031 18.109376-65.558593 0-3.761719-3.757812-6.738282-8-8.941407-12.527343 0-.023438-.007812-.042969-.019531-.0625 0-.03125-.019531-.050781-.027344-.078125 17.207032 8.160156 38.398438 5.117187 52.636719-9.109375l172.640625-172.640625.011719-.121094zm0 0" fill="#e62753"/><path d="m199.933594 328.09375-16.027344-16.027344c-1.609375-1.609375-1.609375-4.21875 0-5.828125l37.878906-37.878906c1.609375-1.609375 4.21875-1.609375 5.828125 0l16.027344 16.027344c1.609375 1.609375 1.609375 4.21875 0 5.828125l-37.878906 37.878906c-1.609375 1.609375-4.21875 1.609375-5.828125 0zm0 0" fill="#685c79"/><path d="m224.699219 309.152344-21.851563-21.851563 18.941406-18.941406c1.609376-1.609375 4.214844-1.609375 5.828126 0l16.023437 16.027344c1.609375 1.609375 1.609375 4.21875 0 5.828125zm0 0" fill="#ffd659"/><path d="m398.070312 237.765625c-38.21875 38.21875-69.492187 68.914063-131.121093 7.285156-61.628907-61.632812-30.933594-92.902343 7.285156-131.121093 38.21875-38.222657 79.085937-59.320313 131.121094-7.285157 52.035156 52.035157 30.933593 92.902344-7.285157 131.121094zm0 0" fill="#685c79"/><path d="m405.355469 106.644531c-3.902344-3.902343-7.738281-7.382812-11.519531-10.484375 38.28125 46.625 17.585937 84.246094-17.769532 119.601563-35.792968 35.796875-65.496094 64.984375-119.75 17.917969 3.1875 3.675781 6.722656 7.460937 10.632813 11.371093 61.628906 61.628907 92.902343 30.933594 131.121093-7.285156s59.320313-79.085937 7.285157-131.121094zm0 0" fill="#594f69"/><g fill="#50475e"><path d="m315.785156 143.1875c-2.929687-2.929688-7.679687-2.929688-10.605468 0-2.929688 2.925781-2.929688 7.675781 0 10.605469 2.925781 2.929687 7.675781 2.929687 10.605468 0 2.929688-2.929688 2.929688-7.679688 0-10.605469zm0 0"/><path d="m342.296875 169.699219c-2.925781-2.929688-7.675781-2.929688-10.605469 0-2.929687 2.929687-2.929687 7.679687 0 10.605469 2.929688 2.929687 7.679688 2.929687 10.605469 0 2.929687-2.925782 2.929687-7.675782 0-10.605469zm0 0"/><path d="m368.8125 196.214844c-2.929688-2.929688-7.679688-2.929688-10.605469 0-2.929687 2.929687-2.929687 7.675781 0 10.605468 2.925781 2.929688 7.675781 2.929688 10.605469 0 2.929688-2.929687 2.929688-7.675781 0-10.605468zm0 0"/><path d="m399.613281 138.542969c-2.929687-2.925781-7.679687-2.925781-10.605469 0-2.929687 2.929687-2.929687 7.679687 0 10.609375 2.925782 2.925781 7.675782 2.925781 10.605469 0 2.929688-2.929688 2.929688-7.679688 0-10.609375zm0 0"/><path d="m373.484375 112.414062c-2.929687-2.929687-7.675781-2.929687-10.605469 0-2.929687 2.929688-2.929687 7.679688 0 10.609376 2.929688 2.925781 7.675782 2.925781 10.605469 0 2.929687-2.929688 2.929687-7.679688 0-10.609376zm0 0"/><path d="m311.140625 227.011719c-2.925781-2.925781-7.675781-2.925781-10.605469 0-2.929687 2.929687-2.929687 7.679687 0 10.609375 2.929688 2.925781 7.679688 2.925781 10.605469 0 2.929687-2.929688 2.929687-7.679688 0-10.609375zm0 0"/><path d="m285.011719 200.882812c-2.925781-2.925781-7.675781-2.925781-10.605469 0-2.929688 2.929688-2.929688 7.679688 0 10.609376 2.929688 2.929687 7.679688 2.929687 10.605469 0 2.929687-2.929688 2.929687-7.679688 0-10.609376zm0 0"/><path d="m348.011719 110.960938c-2.929688-2.929688-7.679688-2.929688-10.605469 0-2.929688 2.929687-2.929688 7.675781 0 10.605468 2.925781 2.929688 7.675781 2.929688 10.605469 0 2.929687-2.929687 2.929687-7.675781 0-10.605468zm0 0"/><path d="m374.523438 137.472656c-2.925782-2.925781-7.675782-2.925781-10.605469 0-2.929688 2.929688-2.929688 7.679688 0 10.609375 2.929687 2.925781 7.679687 2.925781 10.605469 0 2.929687-2.929687 2.929687-7.679687 0-10.609375zm0 0"/><path d="m401.039062 163.988281c-2.929687-2.929687-7.679687-2.929687-10.605468 0-2.929688 2.929688-2.929688 7.679688 0 10.605469 2.925781 2.929688 7.675781 2.929688 10.605468 0 2.929688-2.925781 2.929688-7.675781 0-10.605469zm0 0"/><path d="m283.558594 175.410156c-2.929688-2.929687-7.675782-2.929687-10.605469 0-2.929687 2.929688-2.929687 7.679688 0 10.605469 2.929687 2.929687 7.675781 2.929687 10.605469 0 2.929687-2.925781 2.929687-7.675781 0-10.605469zm0 0"/><path d="m310.074219 201.925781c-2.929688-2.929687-7.679688-2.929687-10.609375 0-2.929688 2.929688-2.929688 7.675781 0 10.605469 2.929687 2.929688 7.679687 2.929688 10.609375 0 2.925781-2.929688 2.925781-7.675781 0-10.605469zm0 0"/><path d="m336.585938 228.441406c-2.929688-2.929687-7.675782-2.929687-10.605469 0-2.929688 2.925782-2.929688 7.675782 0 10.605469 2.929687 2.929687 7.675781 2.929687 10.605469 0 2.929687-2.929687 2.929687-7.679687 0-10.605469zm0 0"/><path d="m371.210938 166.945312c-2.925782-2.929687-7.675782-2.929687-10.605469 0-2.929688 2.929688-2.929688 7.675782 0 10.605469 2.929687 2.929688 7.679687 2.929688 10.605469 0 2.929687-2.929687 2.929687-7.675781 0-10.605469zm0 0"/><path d="m398.085938 193.816406c-2.929688-2.929687-7.679688-2.929687-10.609376 0-2.929687 2.929688-2.929687 7.679688 0 10.605469 2.929688 2.929687 7.679688 2.929687 10.609376 0 2.925781-2.925781 2.925781-7.675781 0-10.605469zm0 0"/><path d="m318.183594 113.914062c-2.929688-2.929687-7.679688-2.929687-10.609375 0-2.925781 2.929688-2.925781 7.675782 0 10.605469 2.929687 2.929688 7.679687 2.929688 10.609375 0 2.925781-2.929687 2.925781-7.675781 0-10.605469zm0 0"/><path d="m345.082031 140.816406c-2.925781-2.929687-7.675781-2.929687-10.605469 0-2.929687 2.929688-2.929687 7.675782 0 10.605469 2.929688 2.929687 7.679688 2.929687 10.605469 0 2.929688-2.929687 2.929688-7.675781 0-10.605469zm0 0"/><path d="m339.542969 198.613281c-2.929688-2.929687-7.675781-2.929687-10.605469 0-2.929688 2.929688-2.929688 7.675781 0 10.605469s7.675781 2.929688 10.605469 0c2.929687-2.929688 2.929687-7.675781 0-10.605469zm0 0"/><path d="m366.414062 225.484375c-2.929687-2.925781-7.675781-2.925781-10.605468 0-2.929688 2.929687-2.929688 7.679687 0 10.609375 2.929687 2.925781 7.675781 2.925781 10.605468 0 2.929688-2.929688 2.929688-7.679688 0-10.609375zm0 0"/><path d="m286.511719 145.582031c-2.925781-2.929687-7.675781-2.929687-10.605469 0-2.929688 2.929688-2.929688 7.679688 0 10.605469 2.929688 2.929688 7.679688 2.929688 10.605469 0 2.929687-2.925781 2.929687-7.675781 0-10.605469zm0 0"/><path d="m313.414062 172.484375c-2.929687-2.929687-7.675781-2.929687-10.605468 0-2.929688 2.929687-2.929688 7.675781 0 10.605469 2.929687 2.929687 7.675781 2.929687 10.605468 0 2.929688-2.929688 2.929688-7.675782 0-10.605469zm0 0"/></g><path d="m232.957031 192.117188-9.328125 30.269531 65.773438 65.773437 30.480468-9.117187zm0 0" fill="#ffd659"/><path d="m267.554688 266.3125 31.015624-8.582031 21.3125 21.3125-30.480468 9.117187zm0 0" fill="#ffbd54"/><path d="m412.011719 346.75c-3.859375-1.5-8.207031.414062-9.707031 4.273438l-41.09375 105.765624c-1.5 3.863282.414062 8.207032 4.277343 9.707032.890625.347656 1.808594.511718 2.714844.511718 3.003906 0 5.839844-1.816406 6.992187-4.785156l41.089844-105.765625c1.5-3.859375-.414062-8.207031-4.273437-9.707031zm0 0" fill="#e62753"/><path d="m504.5625 382.707031c-3.859375-1.5-8.207031.414063-9.707031 4.273438l-41.09375 105.765625c-1.5 3.863281.414062 8.207031 4.277343 9.707031.890626.347656 1.808594.511719 2.710938.511719 3.003906 0 5.839844-1.816406 6.996094-4.785156l41.089844-105.765626c1.5-3.859374-.414063-8.207031-4.273438-9.707031zm0 0" fill="#e62753"/><path d="m502.078125 409.8125-106.53125-41.390625 9.453125-24.332031c1.378906-3.546875 5.371094-5.308594 8.921875-3.929688l93.679687 36.398438c3.546876 1.378906 5.308594 5.371094 3.929688 8.921875zm0 0" fill="#ff2c5c"/><path d="m375.140625 462.144531c-5.355469 13.78125-19.347656 16.6875-33.132813 11.335938-13.78125-5.355469-22.140624-16.945313-16.785156-30.730469 5.355469-13.785156 19.273438-15.882812 33.054688-10.523438 13.785156 5.351563 22.214844 16.132813 16.863281 29.917969zm0 0" fill="#ff2c5c"/><path d="m467.753906 498.125c-5.359375 13.800781-19.371094 16.714844-33.171875 11.351562-13.800781-5.363281-22.171875-16.96875-16.808593-30.769531 5.363281-13.804687 19.296874-15.902343 33.097656-10.539062 13.804687 5.363281 22.246094 16.15625 16.882812 29.957031zm0 0" fill="#ff2c5c"/></svg>