<svg height="512pt" viewBox="-10 0 512 512.00091" width="512pt" xmlns="http://www.w3.org/2000/svg"><path d="m43.667969 284.417969h32.496093v151.105469h-32.496093zm0 0" fill="#e4e7eb"/><path d="m417.054688 284.417969h32.5v151.105469h-32.5zm0 0" fill="#e4e7eb"/><path d="m112.527344 431.820312c-3.902344-3.023437-6.460938-7.457031-7.128906-12.347656-1.316407-9.617187-9.714844-16.664062-19.414063-16.289062-4.929687.191406-9.742187-1.558594-13.398437-4.878906-7.1875-6.519532-18.152344-6.519532-25.339844 0-3.65625 3.320312-8.46875 5.070312-13.398438 4.878906-9.699218-.375-18.097656 6.671875-19.414062 16.289062-.667969 4.890625-3.226563 9.324219-7.128906 12.347656-7.671876 5.945313-9.574219 16.746094-4.398438 24.957032 2.632812 4.175781 3.519531 9.21875 2.476562 14.042968-2.054687 9.484376 3.425782 18.980469 12.667969 21.945313 4.703125 1.507813 8.625 4.796875 10.925781 9.164063 4.523438 8.585937 14.828126 12.335937 23.8125 8.667968 4.570313-1.867187 9.6875-1.867187 14.257813 0 8.988281 3.667969 19.289063-.082031 23.8125-8.667968 2.304687-4.367188 6.226563-7.65625 10.925781-9.164063 9.242188-2.964844 14.722656-12.460937 12.671875-21.945313-1.046875-4.824218-.15625-9.867187 2.476563-14.042968 5.167968-8.214844 3.265625-19.011719-4.40625-24.957032zm0 0" fill="#c38b6f"/><path d="m380.695312 431.820312c3.898438-3.023437 6.460938-7.457031 7.128907-12.347656 1.3125-9.617187 9.714843-16.664062 19.410156-16.289062 4.933594.191406 9.746094-1.558594 13.402344-4.878906 7.1875-6.519532 18.152343-6.519532 25.339843 0 3.65625 3.320312 8.464844 5.070312 13.398438 4.878906 9.699219-.375 18.097656 6.671875 19.410156 16.289062.671875 4.890625 3.230469 9.324219 7.132813 12.347656 7.667969 5.945313 9.574219 16.746094 4.398437 24.957032-2.632812 4.175781-3.519531 9.21875-2.476562 14.042968 2.054687 9.484376-3.429688 18.980469-12.667969 21.945313-4.703125 1.507813-8.625 4.796875-10.925781 9.164063-4.523438 8.585937-14.828125 12.335937-23.8125 8.667968-4.570313-1.867187-9.691406-1.867187-14.261719 0-8.984375 3.667969-19.285156-.082031-23.8125-8.667968-2.300781-4.367188-6.222656-7.65625-10.921875-9.164063-9.242188-2.964844-14.726562-12.460937-12.671875-21.945313 1.046875-4.824218.15625-9.867187-2.476563-14.042968-5.167968-8.214844-3.265624-19.011719 4.40625-24.957032zm0 0" fill="#c38b6f"/><path d="m43.667969 369.976562c11.339843-.949218 22.296875-3.773437 32.496093-8.332031v-77.226562h-32.496093zm0 0" fill="#cacfd7"/><path d="m449.554688 369.96875v-85.550781h-32.5v77.15625c10.074218 4.515625 21.015624 7.421875 32.5 8.394531zm0 0" fill="#cacfd7"/><path d="m19.464844 309.925781v13.875c0 8.636719 7.007812 15.632813 15.640625 15.632813 19.269531 0 36.710937-7.804688 49.339843-20.433594 12.625-12.617188 20.429688-30.054688 20.429688-49.324219v-22.144531c0-9.503906 7.710938-17.226562 17.226562-17.226562h249.03125c9.515626 0 17.226563 7.722656 17.226563 17.226562v22.144531c0 38.527344 31.238281 69.757813 69.765625 69.757813 4.316406 0 8.226562-1.746094 11.058594-4.574219 2.820312-2.832031 4.574218-6.742187 4.574218-11.058594v-13.875l-46.289062-138.464843h-363.863281zm0 0" fill="#e4e7eb"/><path d="m464.933594 70.839844c0 39.121094-31.714844 70.835937-70.835938 70.835937-39.125 0-70.839844-31.714843-70.839844-70.835937 0-39.125 31.714844-70.839844 70.839844-70.839844 39.121094 0 70.835938 31.714844 70.835938 70.839844zm0 0" fill="#af785d"/><path d="m430.273438 70.839844c0 19.980468-16.195313 36.175781-36.175782 36.175781-19.980468 0-36.179687-16.195313-36.179687-36.175781 0-19.980469 16.199219-36.179688 36.179687-36.179688 19.980469 0 36.175782 16.199219 36.175782 36.179688zm0 0" fill="#fba0ae"/><path d="m169.964844 70.839844c0 39.121094-31.71875 70.835937-70.839844 70.835937s-70.839844-31.714843-70.839844-70.835937c0-39.125 31.71875-70.839844 70.839844-70.839844s70.839844 31.714844 70.839844 70.839844zm0 0" fill="#af785d"/><path d="m135.304688 70.839844c0 19.980468-16.199219 36.175781-36.179688 36.175781s-36.179688-16.195313-36.179688-36.175781c0-19.980469 16.199219-36.179688 36.179688-36.179688s36.179688 16.199219 36.179688 36.179688zm0 0" fill="#fba0ae"/><path d="m473.757812 243.589844v66.335937c-27.085937-3.949219-37.679687-16.953125-37.679687-16.953125-6.175781-5.859375-10.042969-14.136718-10.042969-23.296875v-22.144531c0-30.269531-24.628906-54.902344-54.902344-54.902344h-249.03125c-30.285156 0-54.902343 24.632813-54.902343 54.902344v22.144531c0 9.160157-3.867188 17.441407-10.054688 23.296875 0 0-10.582031 13.003906-37.679687 16.953125v-66.335937c0-125.457032 101.699218-227.144532 227.148437-227.144532 125.457031 0 227.144531 101.6875 227.144531 227.144532zm0 0" fill="#c38b6f"/><g fill="#434a53"><path d="m163.804688 75.78125c-4.269532 0-7.726563 3.460938-7.726563 7.726562v14.988282c0 4.265625 3.457031 7.726562 7.726563 7.726562 4.265624 0 7.726562-3.460937 7.726562-7.726562v-14.988282c0-4.265624-3.460938-7.726562-7.726562-7.726562zm0 0"/><path d="m329.417969 75.78125c-4.269531 0-7.726563 3.460938-7.726563 7.726562v14.988282c0 4.265625 3.457032 7.726562 7.726563 7.726562s7.726562-3.460937 7.726562-7.726562v-14.988282c0-4.265624-3.457031-7.726562-7.726562-7.726562zm0 0"/><path d="m225.929688 103.820312c6.289062 2.707032 13.292968 4.21875 20.683593 4.21875 7.386719 0 14.390625-1.511718 20.679688-4.21875 6.597656-2.84375 4.585937-12.683593-2.597657-12.683593h-36.167968c-7.183594 0-9.195313 9.839843-2.597656 12.683593zm0 0"/><path d="m288.339844 120.800781c-3.210938-2.808593-8.09375-2.484375-10.902344.730469-3.035156 3.472656-7.59375 5.464844-12.503906 5.464844-4.914063 0-9.46875-1.992188-12.507813-5.464844-1.449219-1.660156-3.613281-2.632812-5.816406-2.632812-2.199219 0-4.367187.972656-5.816406 2.632812-3.035157 3.472656-7.59375 5.464844-12.503907 5.464844-4.914062 0-9.472656-1.992188-12.507812-5.464844-2.808594-3.214844-7.691406-3.539062-10.902344-.730469-3.210937 2.804688-3.542968 7.6875-.730468 10.902344 5.96875 6.828125 14.765624 10.746094 24.140624 10.746094 6.667969 0 13.042969-1.996094 18.320313-5.601563 5.277344 3.605469 11.652344 5.601563 18.324219 5.601563 9.371094 0 18.167968-3.917969 24.136718-10.746094 2.8125-3.214844 2.484376-8.097656-.730468-10.902344zm0 0"/></g></svg>