<svg height="512pt" viewBox="0 -46 512 512" width="512pt" xmlns="http://www.w3.org/2000/svg"><path d="m309.132812 50.472656c-58.335937 38.015625-35.394531-23.597656-152.066406-23.597656s-157.066406 137.648438-157.066406 224.167969c0 124.535156 71.195312 169.761719 107.902344 169.765625 16.984375 0 35.351562-4.355469 47.664062-16.761719 13.972656-14.082031 13.953125-34.839844 13.953125-53.375 0-7.78125-6.308593-14.09375-14.09375-14.09375-7.78125 0-14.089843 6.308594-14.089843 14.09375 0 10.0625 1.90625 22.125-5.554688 30.515625-6.625 7.457031-17.382812 9.46875-26.890625 9.46875-31.464844 0-54.40625-45.882812-54.40625-85.867188 0-39.980468 3.605469-45.226562 3.605469-45.226562h251.042968l35.394532-97.664062zm0 0" fill="#73d98b"/><path d="m20.605469 251.042969c0-84.460938 38.503906-217.613281 148.871093-223.914063-3.960937-.160156-8.078124-.253906-12.410156-.253906-116.671875 0-157.066406 137.648438-157.066406 224.167969 0 124.535156 71.195312 169.761719 107.902344 169.765625 3.941406 0 7.953125-.246094 11.949218-.761719-38.179687-6.359375-99.246093-53.664063-99.246093-169.003906zm0 0" fill="#00c756"/><path d="m512 186.617188v-9.632813c0-70.335937-49.722656-129.050781-115.9375-142.929687-8.429688-1.769532-16.183594-6.027344-21.867188-12.5-11.605468-13.210938-28.617187-21.554688-47.585937-21.554688-9.652344 0-17.476563 7.824219-17.476563 17.472656v242.089844h151.652344c28.285156 0 51.214844-22.929688 51.214844-51.214844v-6.277344l-5.9375-8.238281zm0 0" fill="#b9ebc2"/><path d="m451.90625 165.4375c-4.265625 0-7.726562-3.460938-7.726562-7.726562v-12.789063c0-4.265625 3.460937-7.722656 7.726562-7.722656 4.269531 0 7.726562 3.457031 7.726562 7.722656v12.789063c0 4.265624-3.457031 7.726562-7.726562 7.726562zm0 0" fill="#333a41"/><path d="m512 202.070312v-15.453124h-58.464844c-11.210937 0-22.269531-1.839844-32.875-5.472657-4.039062-1.382812-8.429687.765625-9.8125 4.804688-1.382812 4.035156.765625 8.429687 4.804688 9.8125 12.21875 4.1875 24.964844 6.308593 37.882812 6.308593zm0 0" fill="#333a41"/><path d="m309.132812 259.5625h-251.039062s-3.605469 5.246094-3.605469 45.226562h269.011719c60.980469 0 120.851562 16.292969 173.425781 47.1875l15.074219 8.855469v-101.269531zm0 0" fill="#de8957"/><path d="m85.390625 304.789062c0-39.980468 3.605469-45.226562 3.605469-45.226562h-30.90625s-3.605469 5.246094-3.605469 45.226562zm0 0" fill="#c76d33"/><g fill="#b9ebc2"><path d="m268.660156 282.667969h-17.546875c-25.292969 0-45.871093-20.578125-45.871093-45.871094v-11.972656c0-12.214844 9.90625-22.121094 22.121093-22.121094 12.21875 0 22.125 9.90625 22.125 22.121094v11.972656c0 .898437.730469 1.628906 1.625 1.628906h17.546875c12.21875 0 22.121094 9.90625 22.121094 22.121094 0 12.21875-9.90625 22.121094-22.121094 22.121094zm0 0"/><path d="m141.828125 282.667969h-17.546875c-25.292969 0-45.871094-20.578125-45.871094-45.871094v-11.972656c0-12.214844 9.90625-22.121094 22.125-22.121094 12.214844 0 22.121094 9.90625 22.121094 22.121094v11.972656c0 .898437.730469 1.628906 1.625 1.628906h17.546875c12.21875 0 22.121094 9.90625 22.121094 22.121094 0 12.21875-9.902344 22.121094-22.121094 22.121094zm0 0"/></g></svg>