<?xml version="1.0"?>
<svg xmlns="http://www.w3.org/2000/svg" xmlns:xlink="http://www.w3.org/1999/xlink" version="1.1" id="Capa_1" x="0px" y="0px" viewBox="0 0 512 512" style="enable-background:new 0 0 512 512;" xml:space="preserve" width="512px" height="512px" class=""><g><path style="fill:#FFFFFF" d="M84.485,495.21h343.031c14.248,0,24.943-13.021,22.175-26.998l-51.818-261.636H114.128L62.31,468.212  C59.541,482.189,70.237,495.21,84.485,495.21z" data-original="#F3E5B7" class="" data-old_color="#F3E5B7"/><path style="fill:#495059;" d="M62.31,468.212c-2.768,13.976,7.926,26.996,22.172,26.998h343.036  c14.247-0.002,24.94-13.022,22.172-26.998l-12.108-61.134H74.417L62.31,468.212z" data-original="#495059" class=""/><polygon style="fill:#1273EB" points="64.204,458.645 447.796,458.645 444.825,443.645 67.175,443.645 " data-original="#F3C97F" class="active-path" data-old_color="#F3C97F"/><path style="fill:#B5D9FF;" d="M370.093,368.199h-51.902c-7.594,0-13.75,6.156-13.75,13.75v25.13h79.402v-25.13  C383.842,374.355,377.686,368.199,370.093,368.199z" data-original="#B5D9FF"/><path style="opacity:0.1;enable-background:new    ;" d="M397.872,206.577H114.128L62.31,468.212  c-2.768,13.977,7.927,26.998,22.175,26.998h113.776c-53.457-27.812-57.812-129.485-47.416-210.083  c6.268-2.609,12.245-5.775,17.858-9.456c12.311-8.075,27.919-9.1,41.414-3.215c14.055,6.129,29.571,9.529,45.884,9.529  s31.829-3.4,45.884-9.529c13.496-5.885,29.103-4.86,41.414,3.215c17.14,11.242,37.634,17.788,59.666,17.788  c4.051,0,8.049-0.226,11.985-0.657L397.872,206.577z" data-original="#000000" class=""/><path style="fill:#FFFFFF" d="M405.578,40.099c-13.887-0.326-27.195,1.955-39.481,6.38c-13.732,4.945-29.096,2.426-40.725-6.393  C306.093,25.466,282.061,16.79,256,16.79s-50.093,8.676-69.372,23.296c-11.63,8.819-26.993,11.338-40.725,6.393  c-12.286-4.425-25.594-6.706-39.481-6.38C49.74,41.431,3.049,86.741,0.147,143.365C-3.073,206.19,46.915,258.14,109.036,258.14  c22.032,0,42.526-6.545,59.666-17.788c12.311-8.075,27.919-9.1,41.414-3.215c14.054,6.129,29.571,9.529,45.884,9.529  s31.829-3.4,45.884-9.529c13.496-5.885,29.103-4.86,41.414,3.215c17.14,11.243,37.634,17.788,59.666,17.788  c62.121,0,112.108-51.95,108.888-114.775C508.951,86.741,462.26,41.43,405.578,40.099z" data-original="#F3E5B7" class="" data-old_color="#F3E5B7"/><path style="opacity:0.05;enable-background:new    ;" d="M210.116,237.137c14.054,6.129,29.571,9.529,45.884,9.529  c8.709,0,17.188-0.978,25.341-2.814c-36.581-2.946-64.063-25.008-76.738-42.877c-5.249-7.401-14.011-11.512-23.06-10.844  C77.128,197.833,60.13,94.495,101.411,40.339C47.012,44.132,2.963,88.419,0.147,143.365C-3.073,206.19,46.915,258.14,109.036,258.14  c22.032,0,42.526-6.545,59.666-17.788C181.013,232.277,196.62,231.252,210.116,237.137z" data-original="#000000" class=""/></g> </svg>
