<svg id="Capa_1" enable-background="new 0 0 502 502" height="512" viewBox="0 0 502 502" width="512" xmlns="http://www.w3.org/2000/svg" xmlns:xlink="http://www.w3.org/1999/xlink"><linearGradient id="SVGID_1_" gradientUnits="userSpaceOnUse" x1="251" x2="251" y1="286.191" y2="95.666"><stop offset="0" stop-color="#d4dbdb"/><stop offset="1" stop-color="#f3f3f3"/></linearGradient><linearGradient id="lg1"><stop offset="0" stop-color="#4e5660"/><stop offset="1" stop-color="#64768d"/></linearGradient><linearGradient id="SVGID_2_" gradientUnits="userSpaceOnUse" x1="34.998" x2="467.002" xlink:href="#lg1" y1="360.3" y2="360.3"/><linearGradient id="SVGID_3_" gradientUnits="userSpaceOnUse" x1="18.209" x2="544.949" y1="271.224" y2="271.224"><stop offset="0" stop-color="#f4d952"/><stop offset="1" stop-color="#f9edaf"/></linearGradient><linearGradient id="SVGID_4_" gradientUnits="userSpaceOnUse" x1="251" x2="251" xlink:href="#lg1" y1="275.874" y2="125.096"/><g><path d="m502 156.21c0 59.35-57.811 122.148-251 122.148s-251-62.799-251-122.148 112.377-107.462 251-107.462 251 48.112 251 107.462z" fill="url(#SVGID_1_)"/><path d="m168.07 197.787c0-18.333 5.958-35.266 16.035-48.991 5.064-6.896 3.965-16.528-2.49-22.144-7.319-6.369-18.47-5.026-24.201 2.802-14.85 20.284-23.263 45.514-22.265 72.59-20.409-2.601-33.494-5.059-42.761-7.156-8.822-1.996-17.601 3.473-19.686 12.275l-.013.055c-2.113 8.923 3.453 17.888 12.405 19.876 24.698 5.483 58.223 9.852 94.262 12.443-7.163-12.265-11.286-26.522-11.286-41.75z" fill="#c2c8cf"/><path d="m78.337 267.348c-64.906 45.862-90.72 185.905 172.663 185.905s237.569-140.043 172.663-185.905z" fill="url(#SVGID_2_)"/><path d="m173.376 401.761c-.531 0-1.068-.037-1.609-.112-56.243-7.873-73.633-34.792-78.994-50.137-8.081-23.135-.369-49.404 21.16-72.074 4.375-4.604 11.654-4.793 16.258-.419 4.605 4.374 4.793 11.653.419 16.258-15.388 16.202-21.265 33.935-16.124 48.65 6.181 17.693 28.22 30.43 60.469 34.943 6.29.881 10.675 6.693 9.795 12.983-.805 5.75-5.731 9.908-11.374 9.908z" fill="#efc534"/><path d="m328.625 401.761c-5.644 0-10.569-4.158-11.375-9.907-.88-6.29 3.505-12.103 9.795-12.983 32.249-4.514 54.288-17.25 60.469-34.943 5.14-14.715-.737-32.448-16.125-48.65-4.374-4.605-4.186-11.884.419-16.258 4.606-4.374 11.885-4.186 16.258.419 21.529 22.669 29.241 48.939 21.16 72.074-5.36 15.345-22.751 42.264-78.994 50.137-.539.075-1.077.111-1.607.111z" fill="#efc534"/><path d="m251 321.122c78.382 0 158.672-8.813 204.547-22.452 20.903-6.214 32.81-28.198 26.596-49.102-6.215-20.903-28.2-32.806-49.102-26.596-37.978 11.293-112.836 19.178-182.041 19.178s-144.063-7.886-182.042-19.177c-20.901-6.215-42.887 5.693-49.102 26.596-6.214 20.904 5.693 42.887 26.596 49.102 45.876 13.639 126.166 22.451 204.548 22.451z" fill="url(#SVGID_3_)"/><path d="m382.35 199.897c-37.238 5.651-86.044 9.254-131.35 9.254v33c47.308 0 97.252-3.686 136.256-9.625 9.36-1.425 15.606-10.405 13.677-19.674-1.783-8.562-9.937-14.267-18.583-12.955z" fill="#c2c8cf"/><circle cx="251" cy="197.787" fill="url(#SVGID_4_)" r="82.93"/><path d="m282.139 210.784c-5.153-3.714-12.339-2.55-16.054 2.602-1.025 1.421-2.238 2.668-3.585 3.73v-26.503h9.503c6.351 0 11.5-5.149 11.5-11.5s-5.149-11.5-11.5-11.5h-9.503v-9.06c0-6.351-5.149-11.5-11.5-11.5s-11.5 5.149-11.5 11.5v9.06h-9.503c-6.351 0-11.5 5.149-11.5 11.5s5.149 11.5 11.5 11.5h9.503v26.503c-1.347-1.061-2.56-2.309-3.585-3.73-3.715-5.151-10.901-6.316-16.054-2.602-5.152 3.715-6.316 10.902-2.602 16.054 7.805 10.824 20.418 17.287 33.741 17.287s25.935-6.462 33.741-17.287c3.714-5.152 2.549-12.339-2.602-16.054z" fill="#efc534"/></g></svg>