<svg id="Capa_1" enable-background="new 0 0 511.998 511.998" height="512" viewBox="0 0 511.998 511.998" width="512" xmlns="http://www.w3.org/2000/svg"><g><g fill="#fe7ab6"><path d="m47.483 275.924h-35.767c-6.47 0-11.716-5.245-11.716-11.716v-34.297c0-6.471 5.246-11.716 11.716-11.716h35.767z"/><path d="m466.264 275.924h34.017c6.471 0 11.716-5.246 11.716-11.716v-34.297c0-6.471-5.246-11.716-11.716-11.716h-34.017z"/></g><g fill="#fe5ca7"><path d="m511.996 229.911v34.299c0 6.468-5.246 11.714-11.714 11.714h-18.202c6.468 0 11.714-5.246 11.714-11.714v-34.299c0-6.467-5.246-11.714-11.714-11.714h18.202c6.468 0 11.714 5.246 11.714 11.714z"/><path d="m36.405 218.197v57.727h-22.36c-1.15-6.375-1.766-13.089-1.766-20.122 0-13.254 2.751-25.984 7.772-37.605z"/></g><path d="m410.864 162.326c-64.165-17.573-245.566-17.573-309.731 0-42.28 11.579-72.439 49.643-72.426 93.48.024 78.683 76.248 116.576 145.726 104.996 0 0 43.06-7.453 62.106-42.232 8.943-14.461 29.977-14.461 38.92 0 19.046 34.779 62.106 42.232 62.106 42.232 69.477 11.58 145.702-26.313 145.725-104.996.014-43.837-30.146-81.901-72.426-93.48z" fill="#fec0dd"/><path d="m483.292 255.802c-.021 78.69-76.247 116.583-145.729 105.002 0 0-10.769-1.858-23.91-8.079-8.336-3.932-17.627-9.619-25.748-17.699 1.766.965 3.511 1.838 5.215 2.649 13.141 6.201 23.91 8.069 23.91 8.069 69.482 11.58 145.708-26.312 145.728-104.992.01-26.99-11.426-51.793-30.08-69.563 30.462 16.795 50.624 48.774 50.614 84.613z" fill="#fea3ce"/><g fill="#fe7ab6"><path d="m204.472 231.17c-3.284-2.526-7.993-1.908-10.517 1.376l-.175.23c-7.887 9.96-22.323 15.812-38.649 15.72-13.836-.079-29.068-4.637-37.765-15.95-2.524-3.284-7.231-3.9-10.516-1.376-3.284 2.524-3.9 7.233-1.376 10.517 2.672 3.476 5.892 6.591 9.54 9.313-.282 3.395-1.656 8.872-7.296 12.073-3.602 2.045-4.864 6.623-2.819 10.226 1.382 2.433 3.918 3.798 6.529 3.798 1.255 0 2.527-.315 3.696-.979 8.261-4.69 12.022-11.546 13.689-17.533 5.838 2.293 12.209 3.835 18.906 4.512.962 4.113 1.758 11.308-2.334 16.958-2.429 3.354-1.679 8.044 1.677 10.474 1.329.962 2.867 1.426 4.393 1.426 2.323 0 4.614-1.077 6.081-3.103 6.343-8.761 6.507-18.688 5.438-25.703 6.689-.628 13.065-2.116 18.925-4.353 2.716 1.391 8.239 5.121 8.62 12.59.204 4.007 3.517 7.118 7.484 7.118.128 0 .258-.003.388-.01 4.137-.211 7.319-3.735 7.108-7.872-.468-9.196-4.653-15.527-9.101-19.711 3.465-2.593 6.545-5.541 9.142-8.82l.31-.403c2.522-3.286 1.906-7.995-1.378-10.518z"/><path d="m404.281 263.072c-5.638-3.2-7.014-8.677-7.297-12.072 3.648-2.722 6.868-5.837 9.541-9.313 2.524-3.283 1.908-7.992-1.376-10.517-3.284-2.526-7.993-1.908-10.517 1.376-4.55 5.922-10.459 9.657-17.268 12.301-3.413 1.325-6.97 2.268-10.58 2.872-10.881 1.82-22.393.812-32.555-3.366-6.078-2.499-11.97-6.308-16.011-11.576l-.077-.101c-.004-.005-.067-.09-.071-.095-2.504-3.297-7.172-3.903-10.472-1.404-3.299 2.498-3.921 7.236-1.427 10.538.095.126.19.252.286.373 2.597 3.28 5.678 6.229 9.143 8.822-4.448 4.184-8.632 10.515-9.1 19.711-.211 4.137 2.972 7.661 7.108 7.872.131.007.26.01.388.01 3.968 0 7.28-3.112 7.484-7.118.376-7.392 5.891-11.153 8.643-12.58 5.853 2.231 12.221 3.716 18.902 4.343-1.069 7.014-.905 16.942 5.438 25.703 1.467 2.026 3.758 3.103 6.081 3.103 1.524 0 3.063-.464 4.393-1.426 3.355-2.43 4.105-7.119 1.677-10.474-4.081-5.636-3.291-12.829-2.327-16.959 6.694-.677 13.063-2.219 18.899-4.511 1.667 5.987 5.428 12.843 13.689 17.533 1.169.663 2.441.979 3.696.979 2.611 0 5.147-1.365 6.529-3.798 2.046-3.603.783-8.181-2.819-10.226z"/></g></g></svg>