<svg id="Capa_1" enable-background="new 0 0 497 497" height="512" viewBox="0 0 497 497" width="512" xmlns="http://www.w3.org/2000/svg"><g><g><path d="m15 197.351h30v105h-30z" fill="#ffce71"/><path d="m29.157 289.034c-16.341.449-29.157 14.266-29.157 30.613v14.376c0 8.284 6.716 15 15 15h30c8.284 0 15-6.716 15-15v-15c0-16.849-13.89-30.453-30.843-29.989z" fill="#ffb357"/></g><g><path d="m98.5 191.004v127.491c0 44.183 67.157 80 150 80s150-35.817 150-80v-127.491z" fill="#82888b"/><path d="m218.5 318.496v-127.492h-120v127.491c0 44.183 67.157 80 150 80 21.335 0 41.625-2.381 60-6.663-52.974-12.345-90-40.533-90-73.336z" fill="#676f72"/></g><g><path d="m485.065 174.324-216.444-72.536c-13.063-4.378-27.181-4.378-40.244 0l-216.443 72.536c-7.125 2.388-11.934 9.109-11.934 16.681 0 7.572 4.809 14.292 11.934 16.681l216.444 72.536c13.061 4.377 27.182 4.377 40.244 0l216.444-72.536c7.126-2.388 11.935-9.109 11.935-16.681-.001-7.572-4.81-14.293-11.936-16.681z" fill="#9ea2a3"/><path d="m211.907 107.308-199.972 67.016c-7.126 2.388-11.935 9.109-11.935 16.681s4.809 14.292 11.935 16.68l206.565 69.226c-53.782-41.383-57.584-126.018-6.593-169.603z" fill="#82888b"/></g><g><ellipse cx="168.855" cy="347.501" fill="#ffb5c0" rx="29.387" ry="23.403"/><ellipse cx="328.145" cy="347.501" fill="#ffb5c0" rx="29.387" ry="23.403"/><path d="m272.194 329.519c0-14.643-10.608-16.019-23.693-16.019s-23.693 1.376-23.693 16.019 10.608 26.513 23.693 26.513 23.693-11.87 23.693-26.513z" fill="#313d40"/></g><g fill="#313d40"><path d="m173.768 300.06c-4.142 0-7.5 3.358-7.5 7.5v12c0 4.142 3.358 7.5 7.5 7.5s7.5-3.358 7.5-7.5v-12c0-4.142-3.358-7.5-7.5-7.5z"/><path d="m323.232 300.06c-4.142 0-7.5 3.358-7.5 7.5v12c0 4.142 3.358 7.5 7.5 7.5s7.5-3.358 7.5-7.5v-12c0-4.142-3.358-7.5-7.5-7.5z"/></g></g></svg>