<?xml version="1.0" encoding="iso-8859-1"?>
<!-- Generator: Adobe Illustrator 19.0.0, SVG Export Plug-In . SVG Version: 6.00 Build 0)  -->
<svg version="1.1" id="Capa_1" xmlns="http://www.w3.org/2000/svg" xmlns:xlink="http://www.w3.org/1999/xlink" x="0px" y="0px"
	 viewBox="0 0 512 512" style="enable-background:new 0 0 512 512;" xml:space="preserve">
<path style="fill:#EE6B28;" d="M256,507.342c45.335,0,53.578-64.91,53.578-64.91c114.368,106.125,100.973-32.971,100.973-32.971
	c94.791,72.124,68.002-85.518,68.002-85.518c72.124-3.091,5.152-110.246,5.152-110.246c62.214-59.212-26.789-81.397-26.789-81.397
	c51.517-95.821-88.051-67.347-88.051-67.347c9.43-23.431,10.402-44.584-9.831-53.202C303.395-11.946,256,31.328,256,31.328
	s-47.396-43.274-103.034-19.577c-20.233,8.617-19.261,29.77-9.831,53.202c0,0-139.568-28.474-88.051,67.347
	c0,0-89.002,22.185-26.789,81.397c0,0-66.972,107.155,5.152,110.246c0,0-26.789,157.641,68.002,85.518
	c0,0-13.394,139.095,100.973,32.971C202.422,442.432,210.664,507.342,256,507.342z"/>
<path style="fill:#FFCE1C;" d="M164.07,52.06c-8.343-6.981-23.743-15.236-49.913-15.236c-32.984,0-25.17,42.181-18.465,65.165
	c1.881,6.447,9.998,8.387,14.646,3.541c15.013-15.653,32.619-28.892,52.137-39.056C168.01,63.591,168.856,56.064,164.07,52.06z"/>
<path style="fill:#ECB000;" d="M116.296,91.686c-4.63-15.87-9.785-40.889-1.677-54.858c-0.156-0.001-0.306-0.004-0.462-0.004
	c-32.984-0.001-25.17,42.18-18.465,65.164c1.881,6.447,9.998,8.387,14.646,3.541c3.014-3.143,6.138-6.182,9.355-9.125
	C118.137,95.338,116.896,93.745,116.296,91.686z"/>
<g>
	<path style="fill:#FFCE1C;" d="M347.929,52.06c8.343-6.981,23.743-15.236,49.913-15.236c32.983,0,25.17,42.181,18.465,65.165
		c-1.881,6.447-9.998,8.387-14.646,3.541c-15.013-15.653-32.619-28.892-52.137-39.056C343.989,63.591,343.144,56.064,347.929,52.06z
		"/>
	<ellipse style="fill:#FFCE1C;" cx="256" cy="247.697" rx="168.981" ry="164.85"/>
</g>
<path style="fill:#ECB000;" d="M117.93,247.698c0-85.962,67.444-156.545,153.523-164.16c-5.09-0.45-10.242-0.693-15.453-0.693
	c-93.322,0-168.975,73.807-168.975,164.854S162.678,412.552,256,412.552c5.211,0,10.363-0.243,15.453-0.693
	C185.375,404.243,117.93,333.661,117.93,247.698z"/>
<g>
	<path style="fill:#3A484A;" d="M169.724,214.625c-4.267,0-7.726,3.459-7.726,7.726v15.614c0,4.267,3.459,7.726,7.726,7.726
		c4.267,0,7.726-3.459,7.726-7.726v-15.614C177.45,218.085,173.991,214.625,169.724,214.625z"/>
	<path style="fill:#3A484A;" d="M350.002,237.966v-15.614c0-4.267-3.459-7.726-7.726-7.726c-4.267,0-7.726,3.459-7.726,7.726v15.614
		c0,4.267,3.459,7.726,7.726,7.726C346.542,245.692,350.002,242.233,350.002,237.966z"/>
</g>
<g>
	<path style="fill:#F98084;" d="M164.098,259.5h-20.631c-4.267,0-7.726,3.459-7.726,7.726c0,4.267,3.459,7.726,7.726,7.726h20.631
		c4.267,0,7.726-3.459,7.726-7.726C171.825,262.959,168.365,259.5,164.098,259.5z"/>
	<path style="fill:#F98084;" d="M368.533,259.5h-20.63c-4.267,0-7.726,3.459-7.726,7.726c0,4.267,3.459,7.726,7.726,7.726h20.63
		c4.267,0,7.726-3.459,7.726-7.726C376.259,262.959,372.799,259.5,368.533,259.5z"/>
</g>
<g>
	<path style="fill:#3A484A;" d="M256,255.025c10.929,0,19.788-5.512,19.788-12.312c0-6.799-39.576-6.8-39.576,0
		C236.211,249.513,245.07,255.025,256,255.025z"/>
	<path style="fill:#3A484A;" d="M285.137,266.03c-3.212-2.809-8.094-2.482-10.902,0.731c-1.489,1.703-3.752,2.68-6.209,2.68
		c-2.457,0-4.72-0.977-6.209-2.68c-1.444-1.659-3.631-2.634-5.826-2.634c-2.207,0-4.356,0.974-5.808,2.634
		c-1.489,1.703-3.752,2.68-6.209,2.68s-4.72-0.977-6.209-2.68c-2.808-3.213-7.689-3.541-10.902-0.731
		c-3.213,2.808-3.541,7.689-0.731,10.902c4.423,5.06,10.926,7.962,17.843,7.962c4.303,0,8.444-1.124,12.026-3.191
		c3.582,2.067,7.723,3.191,12.026,3.191c6.917,0,13.42-2.902,17.843-7.962C288.677,273.719,288.35,268.838,285.137,266.03z"/>
</g>
<path style="fill:#ECB000;" d="M395.704,91.686c4.63-15.87,9.785-40.889,1.677-54.858c0.156-0.001,0.306-0.004,0.462-0.004
	c32.983,0,25.17,42.181,18.465,65.165c-1.881,6.447-9.998,8.387-14.646,3.541c-3.014-3.143-6.138-6.182-9.355-9.125
	C393.864,95.338,395.103,93.745,395.704,91.686z"/>
<g>
</g>
<g>
</g>
<g>
</g>
<g>
</g>
<g>
</g>
<g>
</g>
<g>
</g>
<g>
</g>
<g>
</g>
<g>
</g>
<g>
</g>
<g>
</g>
<g>
</g>
<g>
</g>
<g>
</g>
</svg>
