<svg height="512pt" viewBox="0 -63 512.00002 512" width="512pt" xmlns="http://www.w3.org/2000/svg"><path d="m126.734375 192.632812c0 34.996094-28.371094 63.367188-63.367187 63.367188-34.996094 0-63.367188-28.371094-63.367188-63.367188 0-34.996093 28.371094-63.367187 63.367188-63.367187 34.996093 0 63.367187 28.371094 63.367187 63.367187zm0 0" fill="#c76d33"/><path d="m93.625 192.632812c0 16.710938-13.546875 30.257813-30.257812 30.257813-16.710938 0-30.257813-13.546875-30.257813-30.257813 0-16.710937 13.546875-30.257812 30.257813-30.257812 16.710937 0 30.257812 13.546875 30.257812 30.257812zm0 0" fill="#fed2a4"/><path d="m512 192.632812c0 34.996094-28.371094 63.367188-63.367188 63.367188-34.996093 0-63.367187-28.371094-63.367187-63.367188 0-34.996093 28.371094-63.367187 63.367187-63.367187 34.996094 0 63.367188 28.371094 63.367188 63.367187zm0 0" fill="#c76d33"/><path d="m478.890625 192.632812c0 16.710938-13.546875 30.257813-30.257813 30.257813-16.710937 0-30.257812-13.546875-30.257812-30.257813 0-16.710937 13.546875-30.257812 30.257812-30.257812 16.710938 0 30.257813 13.546875 30.257813 30.257812zm0 0" fill="#fed2a4"/><path d="m448.632812 192.632812c0 106.386719-86.246093 192.632813-192.632812 192.632813s-192.632812-86.246094-192.632812-192.632813c0-106.386718 86.246093-192.632812 192.632812-192.632812s192.632812 86.246094 192.632812 192.632812zm0 0" fill="#de8957"/><path d="m262.273438 88.28125c-3.632813 3.09375-8.929688 3.101562-12.5625.003906-42.382813-36.136718-143.207032-26.371094-146.15625 98.6875-2.039063 86.386719 66.816406 158.601563 153.226562 158.160156 83.726562-.429687 151.707031-68.675781 151.707031-152.5 0-130.410156-103.195312-141.019531-146.214843-104.351562zm0 0" fill="#fed2a4"/><path d="m134.460938 186.972656c1.773437-75.355468 39.089843-108.835937 77.742187-115.652344-46.839844-8.222656-106.394531 19.964844-108.648437 115.652344-2.039063 86.386719 66.816406 158.601563 153.226562 158.160156 4.949219-.027343 9.835938-.296874 14.664062-.785156-78.628906-8.011718-138.894531-76.476562-136.984374-157.375zm0 0" fill="#ffbd86"/><path d="m335.253906 195.625c-4.265625 0-7.726562-3.457031-7.726562-7.726562v-15.410157c0-4.265625 3.460937-7.726562 7.726562-7.726562 4.269532 0 7.726563 3.460937 7.726563 7.726562v15.410157c0 4.269531-3.457031 7.726562-7.726563 7.726562zm0 0" fill="#333a41"/><path d="m345.75 218.277344h-20.988281c-4.269531 0-7.726563-3.460938-7.726563-7.726563s3.457032-7.726562 7.726563-7.726562h20.988281c4.265625 0 7.726562 3.460937 7.726562 7.726562s-3.460937 7.726563-7.726562 7.726563zm0 0" fill="#ff8997"/><path d="m176.746094 195.625c-4.269532 0-7.726563-3.457031-7.726563-7.726562v-15.410157c0-4.265625 3.457031-7.726562 7.726563-7.726562 4.265625 0 7.726562 3.460937 7.726562 7.726562v15.410157c0 4.269531-3.460937 7.726562-7.726562 7.726562zm0 0" fill="#333a41"/><path d="m187.238281 218.277344h-20.988281c-4.265625 0-7.726562-3.460938-7.726562-7.726563s3.460937-7.726562 7.726562-7.726562h20.988281c4.269531 0 7.726563 3.460937 7.726563 7.726562s-3.457032 7.726563-7.726563 7.726563zm0 0" fill="#ff8997"/><path d="m256 217.40625c-7.753906 0-15.039062-3.25-19.992188-8.914062-2.808593-3.210938-2.480468-8.09375.730469-10.902344 3.214844-2.808594 8.09375-2.480469 10.902344.734375 2.019531 2.308593 5.066406 3.628906 8.359375 3.628906 3.296875 0 6.339844-1.320313 8.359375-3.628906 2.808594-3.214844 7.6875-3.542969 10.902344-.734375 3.210937 2.808594 3.539062 7.691406.730469 10.902344-4.953126 5.664062-12.238282 8.914062-19.992188 8.914062zm0 0" fill="#333a41"/></svg>