<svg height="512pt" viewBox="0 -22 512 512" width="512pt" xmlns="http://www.w3.org/2000/svg"><path d="m448.585938.242188c9.277343.546874 17.792968 5.261718 23.285156 12.757812 15.957031 21.796875 43.824218 74.371094 15.070312 149.71875l-165.476562-109.210938s52.351562-57.683593 127.121094-53.265624zm0 0" fill="#4f4c5f"/><path d="m63.414062.242188c-9.277343.546874-17.792968 5.261718-23.285156 12.757812-15.957031 21.796875-43.824218 74.371094-15.070312 149.71875l165.476562-109.210938s-52.351562-57.683593-127.121094-53.265624zm0 0" fill="#4f4c5f"/><path d="m423.542969 60.90625c-22.957031-13.5-47.414063-24.101562-72.785157-31.671875-18.605468 12.503906-29.292968 24.273437-29.292968 24.273437l165.476562 109.214844c5.253906-13.773437 8.609375-26.777344 10.5-38.976562-18.9375-23.96875-43.65625-45.058594-73.898437-62.839844zm0 0" fill="#423e4f"/><path d="m14.558594 123.746094c1.890625 12.199218 5.246094 25.203125 10.5 38.972656l165.476562-109.210938s-10.6875-11.773437-29.292968-24.273437c-25.371094 7.570313-49.828126 18.171875-72.785157 31.671875-30.242187 17.78125-54.960937 38.871094-73.898437 62.839844zm0 0" fill="#423e4f"/><path d="m76.488281 40.449219c-2.054687 0-3.964843 1.035156-5.082031 2.761719-3.492188 5.398437-7.445312 12.628906-10.675781 21.480468-9.941407 27.246094-8.796875 57.273438 3.402343 89.242188l104.71875-71.898438c-2.644531-2.757812-40.917968-41.585937-92.363281-41.585937zm92.367188 41.582031-.003907.003906c.082032.085938.132813.136719.144532.152344zm0 0" fill="#e6e6e6"/><path d="m343.148438 82.035156 104.71875 71.898438c12.199218-31.96875 13.34375-61.996094 3.402343-89.242188-3.230469-8.851562-7.183593-16.082031-10.675781-21.480468-1.117188-1.726563-3.027344-2.761719-5.082031-2.761719-51.445313 0-89.71875 38.828125-92.363281 41.585937zm-.144532.152344c.011719-.015625.0625-.066406.144532-.152344l-.003907-.003906zm0 0" fill="#e6e6e6"/><g fill="#d0cfd5"><path d="m456.21875 83.066406c-10.050781-7.867187-20.945312-15.265625-32.675781-22.164062-8.398438-4.933594-17-9.476563-25.769531-13.636719-31.496094 11.265625-52.679688 32.742187-54.625 34.769531l104.71875 71.898438c9.515624-24.9375 12.304687-48.691406 8.351562-70.867188zm0 0"/><path d="m343.144531 82.03125-.140625.15625c.011719-.015625.0625-.066406.144532-.152344zm0 0"/><path d="m168.855469 82.03125-.003907.003906c.082032.085938.132813.136719.144532.152344zm0 0"/><path d="m168.851562 82.035156c-1.945312-2.023437-23.128906-23.503906-54.625-34.769531-8.769531 4.160156-17.371093 8.703125-25.769531 13.640625-11.730469 6.894531-22.625 14.292969-32.675781 22.160156-3.953125 22.175782-1.164062 45.929688 8.351562 70.867188zm0 0"/></g><path d="m2.25 287.890625c-1.472656-9.671875-2.25-19.828125-2.25-30.480469 0-84.792968 49.003906-137.453125 104.121094-169.863281 93.558594-55.003906 210.199218-55.003906 303.757812 0 55.117188 32.410156 104.121094 85.070313 104.121094 169.863281 0 10.652344-.777344 20.808594-2.25 30.480469zm0 0" fill="#827f98"/><path d="m33.15625 287.890625c-1.472656-9.671875-2.25-19.828125-2.25-30.480469 0-84.792968 49-137.453125 104.121094-169.863281 42.191406-24.804687 89.078125-38.417969 136.425781-40.851563-5.390625-.277343-10.789063-.40625-16.183594-.394531-.070312 0-.140625 0-.210937 0-32.210938 0-64.429688 5.421875-94.949219 15.699219-19.429687 6.546875-38.195313 15.097656-55.875 25.480469-.039063.023437-.074219.046875-.113281.066406-55.117188 32.410156-104.121094 85.070313-104.121094 169.863281 0 2.660156.046875 5.292969.144531 7.898438.289063 7.804687 1 15.328125 2.105469 22.582031zm0 0" fill="#6a647f"/><path d="m509.75 287.890625c-10.167969 67.234375-53.6875 111.042969-101.871094 139.378906-93.558594 55.003907-210.199218 55.003907-303.757812 0-48.183594-28.335937-91.703125-72.144531-101.871094-139.378906 8.550781-31.601563 20.871094-64.488281 45.355469-87.382813 59.988281-56.101562 173.175781-15.371093 189.242187 63.617188h38.304688c16.066406-78.988281 129.253906-119.71875 189.242187-63.617188 24.484375 22.894532 36.804688 55.78125 45.355469 87.382813zm0 0" fill="#e6e6e6"/><path d="m104.34375 427.398438c34.636719 20.320312 73.46875 33.589843 113.304688 38.664062 12.382812 1.578125 24.871093 2.410156 37.351562 2.453125h.28125c5.390625.015625 10.78125-.117187 16.171875-.394531-47.347656-2.433594-94.234375-16.046875-136.425781-40.851563-48.183594-28.335937-91.707032-72.144531-101.871094-139.378906-1.472656-9.671875-2.25-19.828125-2.25-30.480469 0-15.679687 1.679688-30.253906 4.757812-43.808594-16.796874 21.453126-26.382812 48.304688-33.414062 74.289063 1.824219 12.0625 4.824219 23.953125 9.046875 35.402344 9.039063 24.503906 23.757813 46.628906 42.097656 65.152343 15.03125 15.183594 32.332031 28.007813 50.726563 38.824219.074218.042969.148437.085938.222656.128907zm0 0" fill="#d0cfd5"/><path d="m275.15625 264.121094h-38.3125c-4.03125 0-7.832031 3.996094-6.472656 7.789062 3.882812 10.816406 14.136718 18.03125 25.628906 18.03125s21.746094-7.214844 25.628906-18.03125c1.359375-3.792968-2.441406-7.789062-6.472656-7.789062zm0 0" fill="#423e4f"/><path d="m143.628906 286.128906h-17.191406c-4.269531 0-7.726562 3.460938-7.726562 7.726563 0 4.269531 3.457031 7.726562 7.726562 7.726562h17.191406c4.269532 0 7.726563-3.457031 7.726563-7.726562 0-4.265625-3.457031-7.726563-7.726563-7.726563zm0 0" fill="#ff889e"/><path d="m145.949219 250.203125c-4.269531 0-7.726563 3.460937-7.726563 7.726563v14.546874c0 4.265626 3.457032 7.726563 7.726563 7.726563s7.726562-3.460937 7.726562-7.726563v-14.546874c0-4.265626-3.457031-7.726563-7.726562-7.726563zm0 0" fill="#423e4f"/><path d="m385.5625 286.128906h-17.191406c-4.269532 0-7.726563 3.460938-7.726563 7.726563 0 4.269531 3.457031 7.726562 7.726563 7.726562h17.191406c4.269531 0 7.726562-3.457031 7.726562-7.726562 0-4.265625-3.460937-7.726563-7.726562-7.726563zm0 0" fill="#ff889e"/><path d="m373.777344 272.476562v-14.546874c0-4.265626-3.457032-7.726563-7.726563-7.726563s-7.726562 3.460937-7.726562 7.726563v14.546874c0 4.265626 3.457031 7.726563 7.726562 7.726563s7.726563-3.460937 7.726563-7.726563zm0 0" fill="#423e4f"/><path d="m290.105469 309.578125c-3.210938-2.808594-8.09375-2.480469-10.902344.730469-2.097656 2.402344-5.265625 3.78125-8.691406 3.78125s-6.59375-1.378906-8.691407-3.78125c-1.453124-1.660156-3.617187-2.632813-5.820312-2.632813-2.199219 0-4.367188.976563-5.816406 2.632813-2.097656 2.402344-5.265625 3.78125-8.691406 3.78125-3.425782 0-6.59375-1.378906-8.691407-3.78125-2.808593-3.210938-7.691406-3.539063-10.902343-.730469-3.214844 2.808594-3.542969 7.6875-.734376 10.902344 5.035157 5.757812 12.445313 9.058593 20.328126 9.058593 5.230468 0 10.25-1.460937 14.511718-4.121093 4.257813 2.660156 9.277344 4.121093 14.507813 4.121093 7.882812 0 15.292969-3.300781 20.328125-9.058593 2.804687-3.214844 2.476562-8.09375-.734375-10.902344zm0 0" fill="#423e4f"/></svg>