<svg height="512pt" viewBox="-48 0 512 512" width="512pt" xmlns="http://www.w3.org/2000/svg"><path d="m104.089844 7.253906c-9.410156-9.671875-24.941406-9.671875-34.347656 0-29.21875 30.035156-47.515626 73.03125-47.515626 120.789063 0 56.539062 25.644532 106.402343 64.6875 135.988281 39.046876-29.585938 64.691407-79.449219 64.691407-135.988281 0-47.757813-18.300781-90.753907-47.515625-120.789063zm0 0" fill="#e6e6e6"/><path d="m99.164062 61.722656c-5.226562-9.898437-19.269531-9.898437-24.496093 0-10.40625 19.699219-16.121094 42.535156-16.121094 66.320313 0 31.90625 10.28125 62.097656 28.367187 85.3125 18.089844-23.214844 28.367188-53.40625 28.367188-85.3125 0-23.785157-5.714844-46.621094-16.117188-66.320313zm0 0" fill="#ffb2c1"/><path d="m312.222656 7.253906c9.40625-9.671875 24.9375-9.671875 34.347656 0 29.21875 30.035156 47.515626 73.03125 47.515626 120.789063 0 56.539062-25.644532 106.402343-64.691407 135.988281-39.042969-29.585938-64.6875-79.449219-64.6875-135.988281-.003906-47.757813 18.296875-90.753907 47.515625-120.789063zm0 0" fill="#e6e6e6"/><path d="m317.144531 61.722656c5.226563-9.898437 19.273438-9.898437 24.5 0 10.402344 19.699219 16.117188 42.535156 16.117188 66.320313 0 31.90625-10.277344 62.097656-28.367188 85.3125-18.085937-23.214844-28.367187-53.40625-28.367187-85.3125 0-23.785157 5.714844-46.621094 16.117187-66.320313zm0 0" fill="#ffb2c1"/><path d="m31.507812 185.472656c10.773438 32.148438 30.316407 59.546875 55.40625 78.558594 39.046876-29.585938 64.691407-79.453125 64.691407-135.988281 0-4.625-.175781-9.207031-.511719-13.734375-42.039062 10.25-80.605469 31.816406-111.980469 63.191406-2.605469 2.609375-5.136719 5.269531-7.605469 7.972656zm0 0" fill="#d0cfd5"/><path d="m377.195312 177.5c-31.375-31.375-69.941406-52.945312-111.976562-63.191406-.335938 4.527344-.515625 9.109375-.515625 13.734375 0 56.539062 25.644531 106.402343 64.691406 135.988281 25.09375-19.011719 44.636719-46.410156 55.410157-78.558594-2.46875-2.703125-5-5.363281-7.609376-7.972656zm0 0" fill="#d0cfd5"/><path d="m354.746094 157.660156c-16.5625-12.914062-34.601563-23.46875-53.6875-31.515625-.011719.632813-.03125 1.265625-.03125 1.898438 0 31.90625 10.28125 62.09375 28.367187 85.3125 12.363281-15.867188 21.074219-34.992188 25.351563-55.695313zm0 0" fill="#ff889e"/><path d="m86.914062 213.355469c18.089844-23.214844 28.367188-53.40625 28.367188-85.3125 0-.632813-.019531-1.265625-.027344-1.898438-19.085937 8.050781-37.125 18.605469-53.691406 31.515625 4.277344 20.703125 12.992188 39.828125 25.351562 55.695313zm0 0" fill="#ff889e"/><path d="m416.3125 346.542969c0 114.960937-93.195312 165.457031-208.15625 165.457031s-208.15625-50.496094-208.15625-165.457031c0-114.960938 93.195312-208.15625 208.15625-208.15625s208.15625 93.195312 208.15625 208.15625zm0 0" fill="#e6e6e6"/><path d="m30.90625 346.542969c0-109.761719 84.957031-199.675781 192.703125-207.585938-5.101563-.371093-10.253906-.570312-15.453125-.570312-114.960938 0-208.15625 93.195312-208.15625 208.15625 0 114.960937 93.195312 165.457031 208.15625 165.457031 5.199219 0 10.347656-.105469 15.453125-.316406-107.746094-4.386719-192.703125-55.378906-192.703125-165.140625zm0 0" fill="#d0cfd5"/><path d="m227.195312 356.429688h-38.082031c-4.003906 0-7.785156 3.972656-6.429687 7.742187 3.859375 10.75 14.050781 17.921875 25.472656 17.921875s21.613281-7.171875 25.472656-17.921875c1.351563-3.769531-2.425781-7.742187-6.433594-7.742187zm0 0" fill="#ff889e"/><path d="m244.582031 398.980469c-3.210937-2.808594-8.09375-2.480469-10.902343.730469-2.382813 2.730468-5.976563 4.292968-9.855469 4.292968-3.875 0-7.46875-1.5625-9.851563-4.289062-1.449218-1.65625-3.621094-2.636719-5.820312-2.636719-2.199219 0-4.363282.976563-5.816406 2.636719-2.382813 2.726562-5.972657 4.289062-9.851563 4.289062s-7.472656-1.5625-9.855469-4.289062c-2.808594-3.214844-7.691406-3.542969-10.902344-.734375-3.210937 2.808593-3.542968 7.691406-.730468 10.902343 5.316406 6.085938 13.148437 9.574219 21.488281 9.574219 5.667969 0 11.101563-1.613281 15.667969-4.558593 4.570312 2.945312 10.003906 4.558593 15.671875 4.558593 8.339843 0 16.171875-3.488281 21.488281-9.574219 2.8125-3.210937 2.484375-8.09375-.730469-10.902343zm0 0" fill="#423e4f"/><path d="m109.128906 377.832031h-17.214844c-4.269531 0-7.726562 3.460938-7.726562 7.726563 0 4.269531 3.457031 7.726562 7.726562 7.726562h17.214844c4.265625 0 7.722656-3.457031 7.722656-7.726562 0-4.265625-3.457031-7.726563-7.722656-7.726563zm0 0" fill="#ffb2c1"/><path d="m111.449219 341.859375c-4.265625 0-7.726563 3.460937-7.726563 7.726563v14.566406c0 4.265625 3.460938 7.726562 7.726563 7.726562s7.726562-3.460937 7.726562-7.726562v-14.566406c0-4.265626-3.460937-7.726563-7.726562-7.726563zm0 0" fill="#423e4f"/><path d="m324.398438 377.832031h-17.214844c-4.265625 0-7.726563 3.460938-7.726563 7.726563 0 4.269531 3.460938 7.726562 7.726563 7.726562h17.214844c4.265624 0 7.726562-3.457031 7.726562-7.726562 0-4.265625-3.460938-7.726563-7.726562-7.726563zm0 0" fill="#ffb2c1"/><path d="m312.585938 364.152344v-14.566406c0-4.265626-3.457032-7.726563-7.722657-7.726563-4.269531 0-7.726562 3.460937-7.726562 7.726563v14.566406c0 4.265625 3.457031 7.726562 7.726562 7.726562 4.265625 0 7.722657-3.460937 7.722657-7.726562zm0 0" fill="#423e4f"/></svg>