<?xml version="1.0"?>
<svg xmlns="http://www.w3.org/2000/svg" height="512px" viewBox="0 -62 511.999 511" width="512px" class=""><g><path d="m489.242188 233.207031c14.542968 1.652344 26.035156-12.066406 21.90625-26.109375-18.378907-62.480468-79.773438-206.597656-255.148438-206.597656s-236.773438 144.117188-255.148438 206.597656c-4.132812 14.042969 7.363282 27.761719 21.90625 26.109375 16.511719-1.875 33.960938-4.167969 33.960938-4.167969l-28.144531 24.777344c-19.730469 17.371094-18.507813 48.5 2.550781 64.234375 40.4375 30.210938 114.460938 69.753907 224.875 69.753907s184.4375-39.542969 224.871094-69.753907c21.0625-15.734375 22.285156-46.863281 2.550781-64.234375l-28.140625-24.777344s17.449219 2.292969 33.960938 4.167969zm0 0" fill="#ffcc8f" data-original="#FFCC8F" class=""/><path d="m225.492188 2.023438c-152.109376 15.570312-207.375 146.363281-224.640626 205.074218-4.132812 14.042969 7.363282 27.761719 21.90625 26.109375 16.511719-1.875 33.960938-4.167969 33.960938-4.167969l-28.144531 24.777344c-19.730469 17.371094-18.507813 48.5 2.550781 64.234375 18.460938 13.789063 43.949219 29.539063 76.675781 42.570313-17.367187-71.796875 9.902344-174.816406 51.5-222.257813 43.648438-49.777343 60.59375-110.324219 66.191407-136.339843zm0 0" fill="#ffbc73" data-original="#FFBC73" class=""/><path d="m297.453125 230.523438h-82.09375c-27.101563 0-49.773437 21.476562-50.222656 48.570312-.464844 27.679688 21.835937 50.261719 49.410156 50.261719 9.925781 0 19.167969-2.929688 26.910156-7.972657 8.898438-5.796874 20.4375-5.542968 29.378907.191407 8.238281 5.28125 18.144531 8.1875 28.761718 7.738281 25.523438-1.078125 46.261719-21.90625 47.238282-47.433594 1.074218-28.175781-21.445313-51.355468-49.382813-51.355468zm0 0" fill="#ffe7c5" data-original="#FFE7C5" class=""/><path d="m300.535156 239.113281c0 24.597657-19.9375 44.539063-44.535156 44.539063s-44.539062-19.941406-44.539062-44.539063c0-24.597656 19.941406-33.253906 44.539062-33.253906s44.535156 8.65625 44.535156 33.253906zm0 0" fill="#acabb1" data-original="#ACABB1" class="" data-old_color="#acabb1" style="fill:#616163"/><path d="m239.183594 251.28125c-6.597656-8.449219-18.058594-10.851562-27.332032-6.355469 2.050782 15.734375 12.308594 28.882813 26.34375 35.011719 7.105469-7.902344 7.761719-19.988281.988282-28.65625zm0 0" fill="#898890" data-original="#898890" class="active-path" style="fill:#4C4C4D" data-old_color="#898890"/><path d="m300.148438 244.925781c-9.273438-4.496093-20.734376-2.09375-27.335938 6.355469-6.769531 8.667969-6.113281 20.753906.992188 28.65625 14.035156-6.128906 24.289062-19.277344 26.34375-35.011719zm0 0" fill="#898890" data-original="#898890" class="active-path" style="fill:#4C4C4D" data-old_color="#898890"/><path d="m123.863281 17.105469c-22.300781-.554688-56.046875 1.363281-86.425781 14.28125-27.636719 11.757812-41.382812 42.988281-31.871094 71.472656 6.761719 20.253906 17.664063 44.636719 34.855469 65.46875 8.875 10.757813 24.910156 11.996094 35.527344 2.953125 24.238281-20.648438 65.332031-62.527344 72.066406-126.601562 1.523437-14.46875-9.609375-27.210938-24.152344-27.574219zm0 0" fill="#dd9f80" data-original="#DD9F80" class="" data-old_color="#dd9f80" style="fill:#CE8561"/><path d="m388.136719 17.105469c22.296875-.554688 56.046875 1.363281 86.425781 14.285156 27.632812 11.753906 41.382812 42.984375 31.871094 71.472656-6.761719 20.25-17.667969 44.632813-34.855469 65.46875-8.878906 10.753907-24.910156 11.992188-35.53125 2.949219-24.238281-20.644531-65.332031-62.527344-72.066406-126.597656-1.519531-14.472656 9.613281-27.214844 24.15625-27.578125zm0 0" fill="#dd9f80" data-original="#DD9F80" class="" data-old_color="#dd9f80" style="fill:#CE8561"/><path d="m235.65625 89.339844c9.160156 15.496094 31.523438 15.496094 40.683594 0 14.132812-23.90625 36.011718-53.378906 66.785156-75.117188-25.34375-8.652344-54.230469-13.722656-87.125-13.722656s-61.78125 5.070312-87.125 13.722656c30.769531 21.738282 52.652344 51.210938 66.78125 75.117188zm0 0" fill="#ffe7c5" data-original="#FFE7C5" class=""/><path d="m339.089844 221.308594c-4.265625 0-7.726563-3.460938-7.726563-7.726563v-12.828125c0-4.265625 3.460938-7.726562 7.726563-7.726562 4.269531 0 7.726562 3.460937 7.726562 7.726562v12.828125c0 4.265625-3.457031 7.726563-7.726562 7.726563zm0 0" fill="#57565c" data-original="#57565C" class=""/><path d="m172.90625 221.308594c-4.265625 0-7.722656-3.460938-7.722656-7.726563v-12.828125c0-4.265625 3.457031-7.726562 7.722656-7.726562 4.269531 0 7.726562 3.460937 7.726562 7.726562v12.828125c0 4.265625-3.457031 7.726563-7.726562 7.726563zm0 0" fill="#57565c" data-original="#57565C" class=""/><path d="m66.058594 93.308594c-14.578125-33.53125-.292969-58.242188 15.921875-73.878906-14.527344 2.070312-29.925781 5.742187-44.542969 11.960937-27.636719 11.753906-41.382812 42.984375-31.871094 71.46875 6.761719 20.253906 17.664063 44.636719 34.855469 65.46875 8.875 10.757813 24.910156 11.996094 35.527344 2.953125 5.410156-4.609375 11.660156-10.277344 18.179687-17.011719-7.417968-15.113281-16.980468-35.449219-28.070312-60.960937zm0 0" fill="#c68d6d" data-original="#C68D6D" class=""/><path d="m168.875 14.222656c16.132812 11.398438 29.804688 24.902344 41.214844 38.632813 8.238281-21.089844 12.925781-39.328125 15.402344-50.832031-20.597657 2.109374-39.425782 6.332031-56.617188 12.199218zm0 0" fill="#f4d2a8" data-original="#F4D2A8" class="" style="fill:#F4D2A8"/></g> </svg>
