<svg id="Capa_1" enable-background="new 0 0 512 512" height="512" viewBox="0 0 512 512" width="512" xmlns="http://www.w3.org/2000/svg"><path d="m512 255.682v153.012c0 27.409-22.219 49.629-49.629 49.629-5.603 0-11.053-.942-16.166-2.705l-18.705-20.618-58-139z" fill="#dad8db"/><path d="m11.667 194.065v214.63l4.845 36.963c8.784 7.875 20.391 12.665 33.117 12.665 19.968 0 37.991-11.967 45.739-30.37l46.323-110.017z" fill="#dad8db"/><path d="m512 194.065-148.645 107.354 53.277 126.533c5.559 13.204 16.514 23.125 29.576 27.659l-51.612-122.541c-3.026-7.187 2.251-15.134 10.049-15.134 34.012 0 65.729-13.507 89.307-38.032 7.114-7.4 13.059-15.573 18.047-24.221v-61.618z" fill="#c8c5c9"/><path d="m0 194.065v214.63c0 14.667 6.4 27.873 16.516 36.959v-118.707c0-8.665 4.546-16.694 11.976-21.152 7.33-4.398 16.337-4.533 23.988-.723 16.821 8.377 35.452 12.863 54.875 12.863h34.336l6.954-16.516z" fill="#c8c5c9"/><path d="m432.884 56.535c-9.121-1.87-18.564-2.858-28.238-2.858s-19.117.988-28.238 2.858c-7.636 1.566-13.052 8.413-13.052 16.207v38.741h82.581v-38.741c-.002-7.794-5.418-14.641-13.053-16.207z" fill="#dad8db"/><path d="m135.593 56.535c-9.121-1.87-18.564-2.858-28.238-2.858s-19.117.988-28.238 2.858c-7.636 1.566-13.052 8.413-13.052 16.207v38.741h82.581v-38.741c-.001-7.794-5.417-14.641-13.053-16.207z" fill="#dad8db"/><path d="m410.932 86.889c-26.457-1.51-50.97 6.58-70.413 21.09-2.941 2.195-6.439 3.504-10.11 3.504h-148.818c-3.67 0-7.168-1.309-10.109-3.504-19.445-14.512-43.962-22.602-70.42-21.09-35.887 2.05-67.436 22.456-85.369 51.738-9.252 15.107-11.964 32.575-12.693 51.105-2.41 61.263 43.627 104.268 104.355 104.268h297.29l57.241-9.098c31.247-19.731 51.606-55.14 50.028-95.178-2.145-54.447-46.581-99.73-100.982-102.835z" fill="#eceaec"/><path d="m115.613 284.903c-60.728 0-109.679-50.424-107.27-111.688.476-12.099 3.057-23.753 7.355-34.584-9.251 15.106-14.884 32.571-15.612 51.1-2.41 61.264 46.541 111.687 107.269 111.687h297.29c20.971 0 40.71-6.12 57.241-16.516h-346.273z" fill="#dad8db"/><circle cx="107.355" cy="194.065" fill="#fff" r="49.548"/><circle cx="107.355" cy="243.613" fill="#e5646e" r="16.516"/><circle cx="107.355" cy="144.516" fill="#ffc269" r="16.516"/><circle cx="57.806" cy="194.065" fill="#a4ccff" r="16.516"/><circle cx="156.903" cy="194.065" fill="#b3e59f" r="16.516"/><path d="m454.194 177.548h-24.774c-4.561 0-8.258-3.697-8.258-8.258v-24.774c0-4.561-3.697-8.258-8.258-8.258h-16.516c-4.561 0-8.258 3.697-8.258 8.258v24.774c0 4.561-3.697 8.258-8.258 8.258h-24.774c-4.561 0-8.258 3.697-8.258 8.258v8.258c0 4.561 3.697 8.258 8.258 8.258h33.032c4.561 0 8.258 3.697 8.258 8.258v33.032c0 4.561 3.697 8.258 8.258 8.258h8.258c4.561 0 8.258-3.697 8.258-8.258v-24.774c0-4.561 3.697-8.258 8.258-8.258h24.774c4.561 0 8.258-3.697 8.258-8.258v-16.516c0-4.56-3.698-8.258-8.258-8.258z" fill="#b3e59f"/><path d="m272.516 177.548h-33.032l-6.109 18.952 39.141 8c9.122 0 16.516-1.314 16.516-10.436s-7.394-16.516-16.516-16.516z" fill="#a4ccff"/><path d="m346.839 202.323c0 4.561 3.697 8.258 8.258 8.258h24.774c4.561 0 8.258 3.697 8.258 8.258v24.774c0 4.561 3.697 8.258 8.258 8.258h8.258v-33.032c0-13.682-11.092-24.774-24.774-24.774h-33.032z" fill="#95d6a4"/><path d="m239.484 177.548c-9.121 0-16.516 7.394-16.516 16.516 0 9.121 7.395 16.516 16.516 16.516h33.032c9.121 0 16.516-7.395 16.516-16.516h-33.032c-9.121.001-16.516-7.394-16.516-16.516z" fill="#8bb3ea"/><path d="m346.839 289.032c0 4.793-1.167 9.314-3.232 13.294-4.812 9.273-14.502 14.257-25.671 14.257-15.963 0-25.352-11.588-25.352-27.551 0-11.172 2.788-20.864 12.065-25.675 3.978-2.063 8.496-3.228 13.287-3.228 15.962 0 28.903 12.94 28.903 28.903z" fill="#857e87"/><path d="m330.323 305.548c-15.963 0-28.903-12.941-28.903-28.903 0-4.78 1.176-9.315 3.23-13.286-9.292 4.806-15.617 14.491-15.617 25.673 0 15.963 12.941 28.903 28.903 28.903 11.183 0 20.865-6.317 25.671-15.609-3.972 2.054-8.505 3.222-13.284 3.222z" fill="#6f6571"/><path d="m222.968 289.032c0 4.793-1.167 9.314-3.232 13.294-4.812 9.273-14.502 14.257-25.671 14.257-15.963 0-25.352-11.588-25.352-27.551 0-11.172 2.788-20.864 12.065-25.675 3.978-2.063 8.496-3.228 13.287-3.228 15.962 0 28.903 12.94 28.903 28.903z" fill="#857e87"/><path d="m206.452 305.548c-15.963 0-28.903-12.941-28.903-28.903 0-4.78 1.176-9.315 3.23-13.286-9.292 4.806-15.617 14.491-15.617 25.673 0 15.963 12.941 28.903 28.903 28.903 11.183 0 20.865-6.317 25.671-15.609-3.972 2.054-8.505 3.222-13.284 3.222z" fill="#6f6571"/></svg>