<svg id="Capa_1" enable-background="new 0 0 512 512" height="512" viewBox="0 0 512 512" width="512" xmlns="http://www.w3.org/2000/svg"><g><path d="m256 14.972c41.8 0 106.318 7.842 156.487 30.409s41.983 74.151 33.339 122.949c-12.504 70.592 36.762 189.42 0 228.004s-131.837 100.694-189.826 100.694-153.065-62.11-189.827-100.694 12.504-157.412 0-228.004c-8.643-48.797-16.83-100.381 33.34-122.948s114.687-30.41 156.487-30.41z" fill="#665e66"/><path d="m219.701 490.925c-55.619-16.575-123.725-63.315-153.528-94.591-36.757-38.58 12.506-157.412 0-228-8.643-48.799-16.823-100.38 33.337-122.952 28.958-13.022 62.697-21.139 94.087-25.682-3.997 3.06-7.891 6.48-11.62 10.281-23.735 24.22-19.862 79.571-15.772 131.946 5.913 75.749 3.214 203.265 20.604 244.678 10.795 25.703 11.619 61.141 32.892 84.32z" fill="#544f57"/><path d="m335.015 383.019h-158.03c-1.823 4.966-2.339 10.312-1.648 15.391.835 6.274 3.492 12.167 7.747 16.483 11.826 12.012 34.326 27.011 72.916 27.011s61.09-14.999 72.916-27.011c4.255-4.316 6.912-10.209 7.747-16.483.69-5.079.175-10.425-1.648-15.391z" fill="#ffddce"/><path d="m234.14 414.888c-2.308-7.829-3.039-20.789-1.823-31.874h-55.331c-4.069 11.085-1.607 24.044 6.099 31.874 11.826 12.022 34.326 27.012 72.916 27.012-11.57-.001-18.307-14.99-21.861-27.012z" fill="#ffcbbe"/><path d="m335.015 383.019h-158.03c-1.823 4.966-2.339 10.312-1.648 15.391 15.37 10.755 40.878 21.84 80.663 21.84s65.293-11.085 80.663-21.84c.69-5.079.175-10.425-1.648-15.391z" fill="#ffcbbe"/><path d="m415.091 235.126c0-48.923-39.662-88.585-88.585-88.585-28.773 0-54.321 13.722-70.506 34.975-16.184-21.253-41.733-34.975-70.506-34.975-48.923 0-88.585 39.662-88.585 88.585 0 45.328 34.058 82.682 77.964 87.926-5.254 6.181-9.828 13.434-13.567 21.922-4.883 11.074-1.927 24.034 7.314 31.863 7.665 6.501 19.079 13.877 35.253 19.275 13.722 4.574 30.895 7.737 52.127 7.737 46.255 0 73.205-14.989 87.38-27.011 9.241-7.829 12.197-20.789 7.314-31.863-3.739-8.489-8.314-15.741-13.567-21.922 43.906-5.244 77.964-42.599 77.964-87.927z" fill="#ffddce"/><path d="m151.849 249.621c3.915 68.95 46.152 53.157 51.993 81.127 5.841 27.969-30.298 46.554 0 65.344.01.01.021.01.031.021-16.174-5.398-27.588-12.774-35.253-19.275-9.241-7.829-12.197-20.789-7.314-31.863 3.739-8.489 8.314-15.741 13.567-21.922-43.906-5.244-77.964-42.598-77.964-87.926 0-48.923 39.662-88.585 88.585-88.585 28.773 0 54.321 13.722 70.506 34.975-41.413-21.79-108.056-.846-104.151 68.104z" fill="#ffcbbe"/><g fill="#eaac9d"><path d="m238.355 321.488c-4.268 0-7.726-3.459-7.726-7.726v-18.611c0-4.267 3.459-7.726 7.726-7.726s7.726 3.459 7.726 7.726v18.611c0 4.267-3.458 7.726-7.726 7.726z"/><path d="m273.645 321.488c-4.268 0-7.726-3.459-7.726-7.726v-18.611c0-4.267 3.459-7.726 7.726-7.726s7.726 3.459 7.726 7.726v18.611c0 4.267-3.459 7.726-7.726 7.726z"/></g><g fill="#544f57"><path d="m193.16 210.88c-11.804 0-21.406 14.347-21.406 31.98s9.603 31.98 21.406 31.98 21.405-14.346 21.405-31.98-9.602-31.98-21.405-31.98z"/><path d="m318.84 210.88c-11.803 0-21.405 14.347-21.405 31.98s9.603 31.98 21.405 31.98c11.804 0 21.406-14.346 21.406-31.98s-9.602-31.98-21.406-31.98z"/></g><g fill="#454045"><path d="m200.567 272.859c-2.308 1.277-4.801 1.978-7.407 1.978-11.806 0-21.407-14.35-21.407-31.977 0-17.637 9.601-31.987 21.407-31.987 2.606 0 5.099.701 7.407 1.978-8.169 4.512-14 16.256-14 30.009 0 13.743 5.83 25.487 14 29.999z"/><path d="m326.249 272.859c-2.308 1.277-4.801 1.978-7.407 1.978-11.806 0-21.407-14.35-21.407-31.977 0-17.637 9.601-31.987 21.407-31.987 2.606 0 5.099.701 7.407 1.978-8.169 4.512-14 16.256-14 30.009 0 13.743 5.83 25.487 14 29.999z"/></g><g><g><g><path d="m435.028 253.089c0 9.268 8.599 16.287 17.623 14.174 34.018-7.969 59.349-38.499 59.349-74.946 0-1.518-.044-3.026-.131-4.523-2.862-49.39-76.841-46.693-76.841 2.78z" fill="#ffddce"/><path d="m452.869 267.213c-.057.014-.114.027-.172.041-9.038 2.128-17.663-4.881-17.664-14.166l-.005-62.514c0-44.053 58.678-51.016 73.537-17.136-22.767-10.215-55.696 1.97-55.696 34.977z" fill="#ffcbbe"/><path d="m435.028 246.26c24.252 0 43.911-19.66 43.911-43.911 0-.866-.025-1.726-.075-2.58-1.633-28.176-43.837-26.638-43.837 1.586v44.905z" fill="#eaac9d"/></g></g><g><g><path d="m76.972 253.089c0 9.268-8.599 16.287-17.623 14.174-34.018-7.969-59.349-38.499-59.349-74.946 0-1.518.044-3.026.131-4.523 2.862-49.39 76.841-46.693 76.841 2.78z" fill="#ffddce"/><path d="m59.131 267.213c.057.014.114.027.172.041 9.038 2.128 17.663-4.881 17.664-14.166l.005-62.514c0-44.053-58.678-51.016-73.537-17.136 22.767-10.215 55.696 1.97 55.696 34.977z" fill="#ffcbbe"/><path d="m76.972 246.26c-24.252 0-43.911-19.66-43.911-43.911 0-.866.025-1.726.075-2.58 1.633-28.176 43.837-26.638 43.837 1.586v44.905z" fill="#eaac9d"/></g></g></g></g></svg>