<?xml version="1.0"?>
<svg xmlns="http://www.w3.org/2000/svg" xmlns:xlink="http://www.w3.org/1999/xlink" version="1.1" id="Capa_1" x="0px" y="0px" viewBox="0 0 512 512" style="enable-background:new 0 0 512 512;" xml:space="preserve" width="512px" height="512px"><g><path style="fill:#FFDB69;" d="M86.209,316.962c-13.162,0-25.18-6.657-32.149-17.807c-11.066-17.712-5.661-41.124,12.049-52.191  c6.031-3.769,12.96-5.761,20.039-5.761c13.164,0,25.182,6.657,32.15,17.809c5.361,8.58,7.06,18.733,4.784,28.59  c-2.275,9.856-8.253,18.237-16.832,23.599C100.219,314.97,93.29,316.962,86.209,316.962z" data-original="#FFDB69"/><path style="fill:#FFC813;" d="M425.792,316.962c-7.08,0-14.01-1.992-20.041-5.761c-8.58-5.361-14.558-13.742-16.833-23.599  c-2.275-9.857-0.577-20.01,4.785-28.59c6.967-11.151,18.986-17.809,32.149-17.809c7.078,0,14.007,1.992,20.039,5.761  c17.71,11.066,23.115,34.479,12.049,52.19c-6.969,11.15-18.986,17.808-32.146,17.808L425.792,316.962L425.792,316.962z" data-original="#FFC813"/><path style="fill:#FF8891;" d="M148.612,286.272c-19.837,0-38.275-14.43-45.881-35.906c-5.163-14.579-3.54-31.752,4.692-49.664  c6.08-13.228,13.58-22.213,13.896-22.59l1.891-2.248l2.884,0.558c0.482,0.093,11.965,2.356,25.016,8.811  c17.669,8.738,29.738,21.063,34.901,35.643c4.529,12.791,4.564,26.352,0.098,38.184c-4.579,12.13-13.31,21.009-24.584,25.001  C157.379,285.528,153.035,286.272,148.612,286.272C148.613,286.272,148.612,286.272,148.612,286.272z" data-original="#FF8891"/><path style="fill:#FF515E;" d="M363.389,286.272c-4.423,0-8.768-0.744-12.913-2.212c-11.275-3.992-20.006-12.871-24.584-25.001  c-4.466-11.832-4.431-25.393,0.098-38.184c5.163-14.579,17.231-26.904,34.901-35.643c13.05-6.454,24.533-8.718,25.016-8.811  l2.884-0.558l1.891,2.248c0.316,0.377,7.815,9.362,13.896,22.59c8.232,17.911,9.855,35.084,4.693,49.664  C401.665,271.842,383.227,286.272,363.389,286.272z" data-original="#FF515E"/><path style="fill:#FFC813;" d="M296.501,139.196c-18.003-18.522-36.215-29.403-37-29.868l-3.499-2.053l-20.016,93.931l20.016,66.622  c19.761,0,39.545,2.063,58.806,6.134l3.506,0.741l1.828-3.082c9.066-15.286,13.858-33.205,13.858-51.82  C333.999,192.309,321.032,164.437,296.501,139.196z" data-original="#FFC813"/><path style="fill:#FFDB69;" d="M252.483,109.337c-0.767,0.454-18.975,11.331-36.982,29.858  c-24.531,25.241-37.498,53.114-37.498,80.604c0,18.614,4.792,36.533,13.858,51.82l1.828,3.082l3.506-0.741  c19.26-4.07,39.044-6.134,58.806-6.134V107.274L252.483,109.337z" data-original="#FFDB69"/><path style="fill:#FF515E;" d="M274.989,160.108c-2.831-2.913-5.88-5.814-9.063-8.624L256,142.725l-20.016,64.157L256,237.826  c10.411,0,20.953,0.526,31.333,1.563l15.306,1.529l1.144-15.343c0.142-1.911,0.214-3.854,0.214-5.776  C303.999,200.274,293.966,179.633,274.989,160.108z" data-original="#FF515E"/><path style="fill:#FF8891;" d="M246.075,151.484c-3.183,2.81-6.232,5.71-9.061,8.621c-18.979,19.527-29.011,40.169-29.011,59.695  c0,1.922,0.072,3.865,0.214,5.778l1.144,15.341l15.307-1.529c10.38-1.037,20.922-1.563,31.333-1.563v-95.102L246.075,151.484z" data-original="#FF8891"/><path style="fill:#FFAB00" d="M404.247,286.506c-45.031-25.305-96.293-38.68-148.247-38.68l0,0l-20.016,15.997L256,277.826l0,0  c46.817,0,92.997,12.045,133.55,34.833c39.332,22.103,72.918,53.939,97.124,92.064L512,388.644  C485.147,346.348,447.886,311.03,404.247,286.506z" data-original="#FFAB00" class="active-path" data-old_color="#FFAB00"/><path style="fill:#FFC813;" d="M107.753,286.506C64.115,311.03,26.854,346.349,0,388.646l25.327,16.08  c24.206-38.126,57.791-69.963,97.123-92.065c40.552-22.788,86.733-34.833,133.55-34.833v-30  C204.046,247.827,152.784,261.202,107.753,286.506z" data-original="#FFC813"/></g> </svg>
