<?xml version="1.0"?>
<svg xmlns="http://www.w3.org/2000/svg" xmlns:xlink="http://www.w3.org/1999/xlink" version="1.1" id="Capa_1" x="0px" y="0px" viewBox="0 0 512 512" style="enable-background:new 0 0 512 512;" xml:space="preserve" width="512px" height="512px" class=""><g><path style="fill:#1273EB" d="M264.577,260.35v52.171c-2.689,41.414-38.39,59.163-57.732,59.163s-55.043-17.749-57.732-59.163  V260.35H264.577z" data-original="#6DA1D9" class="" data-old_color="#6DA1D9"/><path style="opacity:0.1;fill:#2E4486;enable-background:new    ;" d="M149.112,300.403c59.705-29.705,70.56,0.934,88.316,60.635  c13.642-9.368,25.634-25.186,27.149-48.517V260.35H149.112V300.403z"/><path style="fill:#C7EBFF" d="M18.529,261.43l-0.941,21.973c-1.365,31.865,24.1,58.443,55.994,58.443h33.414  c29.245,0,53.574-22.487,55.872-51.641l0,0c1.469-18.634,17.018-33.005,35.71-33.005h16.534c18.691,0,34.241,14.372,35.71,33.005  l0,0c2.298,29.154,26.627,51.641,55.872,51.641h33.414c31.894,0,57.358-26.578,55.994-58.443l-0.941-21.973  c-2.202-51.416-44.526-91.967-95.989-91.967H114.518C63.055,169.463,20.73,210.013,18.529,261.43z" data-original="#7EBBE6" class="" data-old_color="#7EBBE6"/><path style="opacity:0.15;fill:#2E4486;enable-background:new    ;" d="M396.1,283.402l-0.941-21.973  c-2.202-51.416-44.526-91.967-95.989-91.967H114.518c-39.698,0-73.937,24.14-88.537,58.773  c17.331-16.821,40.953-27.145,66.908-27.145H268.19c51.463,0,93.787,40.551,95.989,91.967l0.941,21.973  c0.342,7.978-0.999,15.624-3.701,22.605C382.555,328.936,397.142,307.715,396.1,283.402z"/><path style="fill:#FFFFFF" d="M340.106,359.379h-33.414c-18.57,0-36.306-6.942-49.943-19.545  c-13.637-12.604-21.95-29.741-23.41-48.253c-0.744-9.448-8.751-16.848-18.228-16.848h-16.534c-9.478,0-17.485,7.401-18.229,16.848  c-1.46,18.512-9.773,35.649-23.41,48.251c-13.636,12.604-31.373,19.546-49.942,19.546H73.582c-20.252,0-39.121-8.054-53.131-22.676  S-0.797,302.884,0.07,282.653l0.94-21.973c2.612-60.982,52.47-108.752,113.507-108.752H299.17  c61.039,0,110.897,47.77,113.507,108.752l0.942,21.972c0.867,20.233-6.372,39.43-20.382,54.052  C379.226,351.325,360.358,359.379,340.106,359.379z M198.578,239.665h16.534c27.652,0,51.015,21.594,53.189,49.161  c1.568,19.897,18.433,35.484,38.393,35.484h33.414c10.599,0,20.475-4.215,27.808-11.869c7.332-7.653,11.121-17.7,10.668-28.289  l-0.942-21.972c-1.805-42.16-36.273-75.184-78.471-75.184H114.518c-42.197,0-76.665,33.024-78.471,75.183l-0.941,21.973  c-0.454,10.589,3.334,20.636,10.667,28.289c7.333,7.654,17.208,11.869,27.808,11.869h33.414c19.959,0,36.823-15.587,38.392-35.484  C147.561,261.259,170.924,239.665,198.578,239.665z" data-original="#F9F1DA" class="active-path" data-old_color="#F9F1DA"/><path style="fill:#1273EB" d="M395.778,464.043H206.844V423.13h188.934c33.356,0,60.493-27.137,60.493-60.493V93.354h40.913  v269.282C497.185,418.552,451.694,464.043,395.778,464.043z" data-original="#6DA1D9" class="" data-old_color="#6DA1D9"/><path style="opacity:0.1;fill:#2E4486;enable-background:new    ;" d="M497.185,93.354h-40.913v86.32  c3.514,1.726,7.465,2.698,11.645,2.698h17.625c4.179,0,8.13-0.972,11.644-2.698v-86.32H497.185z"/><g>
	<path style="fill:#FFE529" d="M231.053,482.525h-48.418c-14.613,0-26.459-11.846-26.459-26.459v-17.625   c0-14.613,11.846-26.459,26.459-26.459h48.418c14.613,0,26.459,11.846,26.459,26.459v17.625   C257.512,470.679,245.666,482.525,231.053,482.525z" data-original="#F5C07E" class="" data-old_color="#F5C07E"/>
	<path style="fill:#FFE529" d="M441.457,128.117V48.485c0-10.499,8.511-19.01,19.01-19.01h2.781   c26.925,0,48.752,21.827,48.752,48.752v49.89c0,14.613-11.846,26.459-26.459,26.459h-17.625   C453.303,154.576,441.457,142.73,441.457,128.117z" data-original="#F5C07E" class="" data-old_color="#F5C07E"/>
</g><path style="opacity:0.15;fill:#A95425;enable-background:new    ;" d="M484.229,78.835c0-4.143-3.357-7.5-7.5-7.5h-35.272v15  h35.272C480.871,86.335,484.229,82.978,484.229,78.835z M476.729,105.707h-35.272v15h35.272c4.143,0,7.5-3.357,7.5-7.5  S480.871,105.707,476.729,105.707z"/><path style="fill:#FFE529" d="M299.17,151.928H114.518c-53.821,0-98.942,37.145-110.652,87.737h36.452  c10.685-30.83,39.886-52.668,74.2-52.668H299.17c34.314,0,63.515,21.838,74.2,52.668h36.452  C398.114,189.073,352.993,151.928,299.17,151.928z" data-original="#F5C07E" class="" data-old_color="#F5C07E"/><path style="opacity:0.15;fill:#A95425;enable-background:new    ;" d="M215.111,274.734c9.477,0,17.484,7.401,18.228,16.848  c1.46,18.512,9.773,35.649,23.41,48.253c13.637,12.603,31.374,19.545,49.943,19.545h11.561  c-37.381-17.949-72.729-66.606-92.104-118.533c-3.573-0.765-7.263-1.181-11.039-1.181h-16.534c-27.653,0-51.017,21.594-53.19,49.161  c-1.569,19.897-18.432,35.484-38.392,35.484H73.582c-10.6,0-20.476-4.215-27.808-11.869c-7.333-7.653-11.121-17.7-10.667-28.289  l0.941-21.973c1.805-42.159,36.274-75.183,78.471-75.183h97.853c-1.593-12.171-1.992-23.982-1.016-35.069h-96.837  c-61.037,0-110.896,47.77-113.507,108.752L0.07,282.653c-0.866,20.232,6.372,39.427,20.382,54.051  c14.01,14.622,32.879,22.676,53.131,22.676h33.414c18.569,0,36.306-6.942,49.942-19.546c13.637-12.603,21.951-29.74,23.41-48.251  c0.745-9.448,8.752-16.848,18.229-16.848h16.533V274.734z"/></g> </svg>
