<svg height="511pt" viewBox="-40 1 511 511.9995" width="511pt" xmlns="http://www.w3.org/2000/svg"><path d="m235.023438 478.183594v-142.660156h-35.929688v142.660156h-22.832031c-15.269531 0-29.355469 8.238281-36.839844 21.546875-3.089844 5.488281.878906 12.269531 7.175781 12.269531h140.925782c6.296874 0 10.261718-6.78125 7.175781-12.269531-7.488281-13.308594-21.570313-21.546875-36.84375-21.546875zm0 0" fill="#def4f8"/><path d="m231.4375 478.183594c15.269531 0 29.355469 8.238281 36.839844 21.546875l6.902344 12.269531h12.34375c6.296874 0 10.261718-6.78125 7.175781-12.269531-7.488281-13.308594-21.570313-21.546875-36.84375-21.546875zm0 0" fill="#bce8f1"/><path d="m235.023438 478.183594v-142.660156h-15.851563v132.09375c0 5.835937 4.730469 10.566406 10.566406 10.566406zm0 0" fill="#bce8f1"/><path d="m217.058594 338.691406c101.09375 0 156.398437-64.460937 156.398437-135.261718 0-54.859376-38.902343-140.058594-49.945312-163.144532-1.738281-3.632812-5.40625-5.9375-9.433594-5.9375h-194.039063c-4.027343 0-7.695312 2.304688-9.433593 5.9375-11.042969 23.085938-49.945313 108.285156-49.945313 163.144532 0 70.800781 55.300782 135.261718 156.398438 135.261718zm0 0" fill="#def4f8"/><path d="m314.078125 34.347656h-42.773437s52.835937 105.148438 52.835937 169.082032c0 64.8125-46.351563 124.300781-131.738281 133.90625 7.886718.886718 16.105468 1.359374 24.65625 1.359374 101.09375 0 156.398437-64.464843 156.398437-135.265624 0-54.855469-38.902343-140.058594-49.945312-163.140626-1.738281-3.632812-5.40625-5.941406-9.433594-5.941406zm0 0" fill="#bce8f1"/><path d="m103.4375 182.292969c-5.328125 0-9.839844 4.011719-10.398438 9.3125-.441406 4.140625-.675781 8.097656-.675781 11.824219 0 27.40625 10.773438 52.664062 30.339844 71.121093 22.492187 21.222657 55.121094 32.441407 94.355469 32.441407 39.230468 0 71.859375-11.21875 94.355468-32.441407 19.5625-18.457031 30.339844-43.714843 30.339844-71.121093 0-3.726563-.238281-7.683594-.675781-11.824219-.5625-5.300781-5.070313-9.3125-10.402344-9.3125zm0 0" fill="#f76c57"/><path d="m330.675781 182.292969h-27.847656c1.230469 7.566406 1.9375 14.699219 1.9375 21.136719 0 27.40625-10.773437 52.664062-30.339844 71.121093-18.855469 17.792969-44.839843 28.546875-75.859375 31.5625 5.980469.578125 12.148438.878907 18.492188.878907 39.230468 0 71.859375-11.21875 94.355468-32.441407 19.5625-18.457031 30.339844-43.714843 30.339844-71.121093 0-3.726563-.238281-7.683594-.675781-11.824219-.5625-5.300781-5.070313-9.3125-10.402344-9.3125zm0 0" fill="#e5554e"/><path d="m380.441406 37.199219 4.910156 1.886719c4.613282 1.777343 8.238282 5.453124 9.949219 10.089843l5.402344 14.671875c1.347656 3.652344 6.507813 3.652344 7.855469 0l5.402344-14.671875c1.710937-4.636719 5.335937-8.3125 9.949218-10.089843l4.910156-1.886719c3.578126-1.375 3.578126-6.4375 0-7.8125l-4.910156-1.886719c-4.613281-1.777344-8.238281-5.453125-9.949218-10.089844l-5.402344-14.671875c-1.347656-3.652343-6.507813-3.652343-7.855469 0l-5.402344 14.671875c-1.710937 4.636719-5.335937 8.3125-9.949219 10.089844l-4.910156 1.886719c-3.578125 1.375-3.578125 6.4375 0 7.8125zm0 0" fill="#ffe046"/><path d="m423.910156 27.5c-4.1875-1.609375-7.542968-4.796875-9.40625-8.835938-1.90625 12.175782-9.980468 22.304688-20.925781 27.101563.691406 1.0625 1.273437 2.203125 1.722656 3.414063l5.402344 14.671874c1.347656 3.648438 6.507813 3.648438 7.855469 0l5.402344-14.671874c1.710937-4.640626 5.335937-8.316407 9.949218-10.089844l4.910156-1.890625c3.578126-1.375 3.578126-6.433594 0-7.808594zm0 0" fill="#ffd508"/><path d="m3.183594 86.867188 4.90625 1.886718c4.617187 1.773438 8.242187 5.453125 9.949218 10.089844l5.40625 14.671875c1.34375 3.648437 6.507813 3.648437 7.851563 0l5.40625-14.671875c1.710937-4.636719 5.335937-8.316406 9.949219-10.089844l4.910156-1.886718c3.574219-1.378907 3.574219-6.4375 0-7.8125l-4.910156-1.886719c-4.613282-1.777344-8.238282-5.453125-9.949219-10.09375l-5.40625-14.667969c-1.34375-3.652344-6.507813-3.652344-7.851563 0l-5.40625 14.667969c-1.707031 4.640625-5.332031 8.316406-9.949218 10.09375l-4.90625 1.886719c-3.578125 1.375-3.578125 6.4375 0 7.8125zm0 0" fill="#ffe046"/><path d="m46.652344 77.167969c-4.1875-1.613281-7.542969-4.796875-9.410156-8.839844-1.902344 12.179687-9.976563 22.308594-20.921876 27.101563.691407 1.066406 1.273438 2.207031 1.71875 3.417968l5.40625 14.667969c1.34375 3.652344 6.507813 3.652344 7.851563 0l5.40625-14.667969c1.710937-4.640625 5.335937-8.316406 9.949219-10.09375l4.910156-1.886718c3.574219-1.375 3.574219-6.4375 0-7.8125zm0 0" fill="#ffd508"/></svg>