<?xml version="1.0" encoding="iso-8859-1"?>
<!-- Generator: Adobe Illustrator 19.0.0, SVG Export Plug-In . SVG Version: 6.00 Build 0)  -->
<svg version="1.1" id="Layer_1" xmlns="http://www.w3.org/2000/svg" xmlns:xlink="http://www.w3.org/1999/xlink" x="0px" y="0px"
	 viewBox="0 0 512 512" style="enable-background:new 0 0 512 512;" xml:space="preserve">
<path style="fill:#DBD9D7;" d="M482.623,29.377h-41.967c-4.635,0-8.393,3.758-8.393,8.393v316.852
	c0,54.381-44.242,98.623-98.623,98.623s-98.623-44.242-98.623-98.623c0-4.635-3.758-8.393-8.393-8.393h-41.967
	c-4.635,0-8.393,3.758-8.393,8.393c0,86.778,70.599,157.377,157.377,157.377c40.737,0,79.4-15.566,108.867-43.829
	c29.306-28.109,46.466-65.806,48.339-106.173c0.113-1.051,0.171-2.119,0.171-3.178V37.77
	C491.016,33.135,487.258,29.377,482.623,29.377z"/>
<path style="fill:#928D86;" d="M503.607,197.246h-92.328c-4.635,0-8.393,3.758-8.393,8.393v41.967c0,4.635,3.758,8.393,8.393,8.393
	h92.328c4.635,0,8.393-3.758,8.393-8.393v-41.967C512,201.004,508.242,197.246,503.607,197.246z"/>
<path style="fill:#807A72;" d="M436.459,247.607v-41.967c0-4.635,3.758-8.393,8.393-8.393h-33.574c-4.635,0-8.393,3.758-8.393,8.393
	v41.967c0,4.635,3.758,8.393,8.393,8.393h33.574C440.217,256,436.459,252.242,436.459,247.607z"/>
<path style="fill:#FF7161;" d="M344.131,130.098H75.541C33.887,130.098,0,163.986,0,205.639v41.967
	c0,41.654,33.887,75.541,75.541,75.541h40.336c28.797,0,54.687-16,67.565-41.757l26.394-52.786l26.393,52.786
	c12.879,25.757,38.768,41.757,67.565,41.757h40.337c41.654,0,75.541-33.887,75.541-75.541v-41.967
	C419.672,163.986,385.785,130.098,344.131,130.098z"/>
<path style="fill:#ACF6FA;" d="M303.795,289.574c-15.999,0-30.381-8.889-37.535-23.198l-31.244-62.484v-40.219h109.115
	c23.141,0,41.967,18.826,41.967,41.967v41.967c0,23.141-18.826,41.967-41.967,41.967H303.795z"/>
<g>
	<polygon style="fill:#64DDE3;" points="235.016,163.672 235.016,203.891 256.816,247.49 340.634,163.672 	"/>
	<path style="fill:#64DDE3;" d="M379.409,182.952l-99.313,99.312c6.831,4.676,15.021,7.31,23.699,7.31h14.457l67.847-67.847v-16.087
		C386.098,197.285,383.635,189.499,379.409,182.952z"/>
	<path style="fill:#64DDE3;" d="M335.738,289.574h8.393c23.141,0,41.967-18.827,41.967-41.967v-8.393L335.738,289.574z"/>
</g>
<path style="fill:#ACF6FA;" d="M75.541,289.574c-23.141,0-41.967-18.827-41.967-41.967v-41.967
	c0-23.141,18.826-41.967,41.967-41.967h109.115v40.219l-31.242,62.483c-7.155,14.311-21.538,23.199-37.537,23.199H75.541z"/>
<g>
	<path style="fill:#64DDE3;" d="M75.541,163.672c-23.141,0-41.967,18.826-41.967,41.967v18.885l60.852-60.852H75.541z"/>
	<path style="fill:#64DDE3;" d="M149.683,163.672L41.395,271.96c7.618,10.651,20.08,17.614,34.146,17.614h11.192l97.923-97.923
		v-27.979H149.683z"/>
	<path style="fill:#64DDE3;" d="M107.016,289.574h8.86c15.999,0,30.381-8.889,37.535-23.198l23.199-46.398L107.016,289.574z"/>
</g>
<g>
	<path style="fill:#FF6C5C;" d="M344.131,297.967h-40.336c-19.198,0-36.458-10.667-45.043-27.838l-31.243-62.484
		c-0.583-1.166-0.887-2.45-0.887-3.754v-40.219c0-4.635,3.758-8.393,8.393-8.393h109.115c27.769,0,50.361,22.592,50.361,50.361
		v41.967C394.492,275.375,371.9,297.967,344.131,297.967z M243.41,201.911l30.357,60.712c5.723,11.447,17.23,18.558,30.029,18.558
		h40.336c18.513,0,33.574-15.061,33.574-33.574v-41.967c0-18.513-15.061-33.574-33.574-33.574H243.41V201.911z"/>
	<path style="fill:#FF6C5C;" d="M115.877,297.967H75.541c-27.769,0-50.361-22.592-50.361-50.361v-41.967
		c0-27.769,22.592-50.361,50.361-50.361h109.115c4.635,0,8.393,3.758,8.393,8.393v40.219c0,1.303-0.303,2.588-0.887,3.754
		l-31.242,62.483C152.335,287.3,135.076,297.967,115.877,297.967z M75.541,172.066c-18.513,0-33.574,15.061-33.574,33.574v41.967
		c0,18.513,15.061,33.574,33.574,33.574h40.336c12.799,0,24.305-7.111,30.029-18.559l30.357-60.711v-29.845H75.541z"/>
</g>
<path style="fill:#38CED9;" d="M278.847,341.056c-2.82-5.869-8.618-9.515-15.13-9.515H155.955c-6.512,0-12.309,3.646-15.13,9.515
	s-2.046,12.674,2.022,17.758l22.664,28.33c1.593,1.992,4.005,3.151,6.554,3.151h75.541c2.549,0,4.962-1.158,6.554-3.15l22.664-28.33
	C280.893,353.729,281.667,346.925,278.847,341.056z"/>
<path style="fill:#0EBEC7;" d="M187.15,387.145l-22.664-28.33c-4.068-5.085-4.842-11.89-2.022-17.758
	c2.82-5.868,8.619-9.516,15.13-9.516h-21.638c-6.512,0-12.309,3.646-15.13,9.515s-2.046,12.674,2.022,17.758l22.664,28.33
	c1.593,1.992,4.005,3.151,6.554,3.151h21.638C191.154,390.295,188.743,389.137,187.15,387.145z"/>
<path style="fill:#64DDE3;" d="M482.623,0h-41.967c-13.885,0-25.18,11.295-25.18,25.18v100.721c0,13.885,11.295,25.18,25.18,25.18
	h41.967c13.885,0,25.18-11.295,25.18-25.18V25.18C507.803,11.295,496.508,0,482.623,0z"/>
<path style="fill:#38CED9;" d="M436.459,125.902V25.18c0-13.885,11.295-25.18,25.18-25.18h-20.984
	c-13.885,0-25.18,11.295-25.18,25.18v100.721c0,13.885,11.295,25.18,25.18,25.18h20.984
	C447.754,151.082,436.459,139.786,436.459,125.902z"/>
<g>
	<rect x="415.475" y="33.574" style="fill:#0EBEC7;" width="92.328" height="16.787"/>
	<rect x="415.475" y="67.148" style="fill:#0EBEC7;" width="92.328" height="16.787"/>
	<rect x="415.475" y="100.721" style="fill:#0EBEC7;" width="92.328" height="16.787"/>
</g>
<g>
</g>
<g>
</g>
<g>
</g>
<g>
</g>
<g>
</g>
<g>
</g>
<g>
</g>
<g>
</g>
<g>
</g>
<g>
</g>
<g>
</g>
<g>
</g>
<g>
</g>
<g>
</g>
<g>
</g>
</svg>
