<svg id="Capa_1" enable-background="new 0 0 512 512" height="512" viewBox="0 0 512 512" width="512" xmlns="http://www.w3.org/2000/svg"><g><g><path d="m22.5 204.838h30v105h-30z" fill="#ffce71"/><path d="m36.657 296.521c-16.341.448-29.157 14.266-29.157 30.613v14.376c0 8.284 6.716 15 15 15h30c8.284 0 15-6.716 15-15v-15c0-16.849-13.89-30.454-30.843-29.989z" fill="#ffb357"/></g><g><path d="m106 198.491v127.491c0 44.183 67.157 80 150 80s150-35.817 150-80v-127.491z" fill="#82888b"/><path d="m226 325.982v-127.491h-120v127.491c0 44.183 67.157 80 150 80 21.335 0 41.625-2.381 60-6.663-52.974-12.345-90-40.533-90-73.337z" fill="#676f72"/></g><g><path d="m492.565 181.811-216.444-72.536c-13.063-4.378-27.181-4.378-40.244 0l-216.443 72.536c-7.125 2.388-11.934 9.109-11.934 16.681 0 7.572 4.809 14.292 11.934 16.681l216.444 72.536c13.061 4.377 27.182 4.377 40.244 0l216.444-72.536c7.126-2.388 11.935-9.109 11.935-16.681-.001-7.572-4.81-14.293-11.936-16.681z" fill="#9ea2a3"/><path d="m219.407 114.794-199.972 67.017c-7.126 2.388-11.935 9.109-11.935 16.681s4.809 14.292 11.935 16.68l206.565 69.226c-53.782-41.383-57.584-126.018-6.593-169.604z" fill="#82888b"/></g><g><ellipse cx="176.355" cy="354.987" fill="#ffb5c0" rx="29.387" ry="23.403"/><ellipse cx="335.645" cy="354.987" fill="#ffb5c0" rx="29.387" ry="23.403"/><path d="m279.694 337.006c0-14.643-10.608-16.019-23.693-16.019-13.086 0-23.694 1.376-23.694 16.019s10.608 26.513 23.694 26.513c13.085 0 23.693-11.87 23.693-26.513z" fill="#313d40"/></g><g><path d="m494.949 174.704-9.481-3.178c-3.932-1.315-8.179.801-9.495 4.728s.801 8.178 4.728 9.495l9.482 3.178c4.077 1.367 6.817 5.212 6.817 9.568-.001 4.466-2.829 8.235-6.818 9.57l-216.443 72.537c-11.46 3.842-24.019 3.841-35.478 0-6.676-2.237-211.152-70.763-216.444-72.537-4.077-1.366-6.817-5.212-6.817-9.569s2.74-8.203 6.818-9.569l216.443-72.537c11.464-3.841 24.014-3.841 35.478 0l178.517 59.826c3.926 1.317 8.178-.802 9.494-4.728 1.316-3.928-.801-8.178-4.729-9.495l-178.517-59.826c-14.544-4.873-30.469-4.872-45.01 0l-216.443 72.537c-10.198 3.418-17.051 12.98-17.051 23.792 0 10.07 5.946 19.047 15 22.995v75.258c-9.083 7.004-15 18.085-15 30.389v14.376c0 12.407 10.093 22.5 22.5 22.5h30c12.407 0 22.5-10.093 22.5-22.5v-15c0-11.565-5.214-22.614-15-29.995v-59.838l38.5 12.903v76.403c0 13.723 5.669 27.327 16.396 39.342 2.76 3.091 7.502 3.357 10.589.601 3.09-2.759 3.359-7.5.601-10.59-8.351-9.354-12.585-19.23-12.585-29.353v-71.377l119.995 40.214c14.298 4.792 30.091 5 45.011 0l119.993-40.214v71.376c0 18.467-14.192 36.207-39.964 49.951-27.264 14.541-63.679 22.549-102.536 22.549-41.533 0-81.031-9.421-108.365-25.849-3.551-2.133-8.159-.984-10.292 2.565-2.134 3.55-.985 8.158 2.565 10.292 29.601 17.789 71.915 27.992 116.092 27.992 41.275 0 80.197-8.635 109.596-24.314 30.892-16.476 47.904-38.916 47.904-63.186v-76.403c89.752-30.079 85.038-28.821 85.038-28.821 8.302-4.324 13.461-12.855 13.462-22.267 0-10.811-6.853-20.373-17.051-23.791zm-434.949 166.81c0 4.136-3.364 7.5-7.5 7.5h-30c-4.136 0-7.5-3.364-7.5-7.5v-14.376c0-12.416 9.807-22.785 21.862-23.115 6.137-.171 11.937 2.092 16.326 6.363 4.393 4.274 6.812 10.002 6.812 16.128zm-15-51.748c-2.776-.559-5.637-.818-8.549-.737-2.202.06-4.356.33-6.451.771v-63.172l15 5.027z"/><path d="m188.768 327.052v-12c0-4.142-3.358-7.5-7.5-7.5s-7.5 3.358-7.5 7.5v12c0 4.142 3.358 7.5 7.5 7.5s7.5-3.358 7.5-7.5z"/><path d="m287.193 337.011c0-23.519-21.859-23.519-31.193-23.519s-31.193 0-31.193 23.519c0 18.755 13.993 34.013 31.193 34.013s31.193-15.258 31.193-34.013zm-47.386 0c0-5.907.655-8.519 16.193-8.519s16.193 2.611 16.193 8.519c0 10.484-7.264 19.013-16.193 19.013s-16.193-8.529-16.193-19.013z"/><path d="m338.232 327.052v-12c0-4.142-3.357-7.5-7.5-7.5-4.142 0-7.5 3.358-7.5 7.5v12c0 4.142 3.358 7.5 7.5 7.5 4.143 0 7.5-3.358 7.5-7.5z"/></g></g></svg>