<svg id="Layer_1" enable-background="new 0 0 512 512" height="512" viewBox="0 0 512 512" width="512" xmlns="http://www.w3.org/2000/svg"><g><path d="m511.545 7.44c-.247-3.755-3.231-6.739-6.986-6.986-1.047-.071-13.993-.884-34.993-.149-21.516.757-51.475 3.14-85.748 9.638-3.663.693-7.318 1.421-10.932 2.192-17.55 3.691-34.576 8.174-50.995 13.435-16.97 5.43-33.296 11.702-48.859 18.738-1.082.488-2.164.99-3.238 1.485-18.78 8.683-36.436 18.547-52.904 29.528-19.445 12.954-37.221 27.463-53.18 43.422-50.21 50.21-92.345 105.001-121.858 158.457-30.722 55.639-44.998 105.213-41.272 143.374.375 3.839 3.606 6.774 7.467 6.774h44.999l31.614 31.614v44.999c-.007 2.058.827 3.939 2.192 5.303 1.188 1.188 2.786 1.98 4.575 2.157 38.161 3.726 87.742-10.543 143.382-41.265 53.455-29.514 108.24-71.656 158.45-121.865 15.959-15.959 30.461-33.728 43.415-53.173 10.981-16.468 20.852-34.131 29.535-52.911.495-1.075.997-2.156 1.485-3.239 7.036-15.563 13.307-31.889 18.738-48.859 5.261-16.418 9.744-33.445 13.435-50.995.771-3.613 1.499-7.269 2.192-10.932 12.83-67.703 9.627-118.606 9.486-120.742z" fill="#e58e53"/><path d="m393.257 348.289c-50.21 50.21-104.994 92.352-158.45 121.865-55.64 30.723-105.221 44.992-143.382 41.265-1.789-.177-3.387-.969-4.575-2.157-1.365-1.365-2.199-3.245-2.192-5.303v-22.047c31.55-4.624 68.092-18.158 107.717-40.035 53.462-29.521 108.254-71.656 158.464-121.865 30.249-30.249 55.287-67.038 74.427-109.329 15.259-33.714 26.82-70.984 34.364-110.785 8.039-42.404 9.779-78.224 9.934-99.592 21-.735 33.947.078 34.993.149 3.755.247 6.739 3.231 6.986 6.986.141 2.135 3.344 53.038-9.489 120.741-.693 3.663-1.421 7.318-2.192 10.932-3.691 17.55-8.174 34.576-13.435 50.995-5.43 16.97-11.702 33.296-18.738 48.859-.488 1.082-.99 2.164-1.485 3.238-8.683 18.78-18.554 36.443-29.535 52.911-12.951 19.444-27.453 37.213-43.412 53.172z" fill="#dd5824"/><path d="m436.672 295.116h-63.312l-148.098-.007c-4.624 0-8.372-3.748-8.372-8.372v-211.417c16.468-10.981 34.124-20.845 52.904-29.528v196.413h196.413c-8.683 18.781-18.554 36.443-29.535 52.911z" fill="#ff6536"/><path d="m466.207 242.205h-196.413v-196.413c1.075-.495 2.157-.997 3.238-1.485 15.563-7.035 31.89-13.307 48.859-18.737v164.538h164.537c-5.43 16.97-11.702 33.296-18.738 48.859-.486 1.082-.988 2.164-1.483 3.238z" fill="#f9ef63"/><path d="m486.429 190.108h-164.537v-164.538c16.418-5.261 33.445-9.744 50.995-13.435v126.978h126.978c-3.692 17.55-8.175 34.576-13.436 50.995z" fill="#10e881"/><path d="m134.23 377.772c-12.23-12.23-41.453-2.168-66.527 22.906s-35.136 54.297-22.906 66.527 41.453 2.169 66.528-22.906 35.135-54.297 22.905-66.527z" fill="#69676d"/><path d="m486.429 190.108h-52.494c6.406-16.305 11.999-33.339 16.744-50.995h49.185c-3.691 17.55-8.174 34.576-13.435 50.995z" fill="#00c18e"/><path d="m436.672 295.116h-63.312c13.272-16.213 25.285-33.883 35.969-52.911h56.878c-8.683 18.781-18.554 36.443-29.535 52.911z" fill="#f71d00"/><path d="m466.207 242.205h-56.878c5.699-10.125 11.009-20.64 15.938-31.522 3.041-6.717 5.932-13.583 8.669-20.576h52.494c-5.43 16.97-11.702 33.296-18.738 48.859-.488 1.083-.99 2.165-1.485 3.239z" fill="#f4dd45"/></g></svg>