<svg id="Capa_1" enable-background="new 0 0 512 512" height="512" viewBox="0 0 512 512" width="512" xmlns="http://www.w3.org/2000/svg"><path d="m500.526 199.614c-36.358-27.399-149.113 35.406-162.63 43.11-27.166-10.477-56.839-15.929-87.877-15.206-26.828.624-52.508 5.884-76.277 15-15.008-8.526-126.208-70.079-162.269-42.904-32.977 24.851 14.144 144.89 28.803 179.853-8.437 23.827-13.04 49.467-13.04 76.184 0 10.41.701 20.656 2.054 30.696 1.118 8.296 8.271 14.447 16.642 14.447h.006c9.639 0 17.337-8.09 16.776-17.712-.314-5.39-.407-10.839-.269-16.339 2.633-104.521 89.001-188.393 193.555-188.092 106.358.306 192.483 86.62 192.483 193.049 0 3.753-.108 7.481-.32 11.181-.556 9.702 7.051 17.913 16.768 17.913 8.457 0 15.552-6.289 16.673-14.671 1.406-10.51 2.097-21.247 2.018-32.16-.186-25.659-4.564-50.253-12.461-73.159 13.963-33.113 62.779-156.01 29.365-181.19z" fill="#ffaa5c"/><path d="m313.407 234.838c-20.173-5.255-41.438-7.83-63.383-7.315-17.71.412-34.916 2.854-51.4 7.078 1.267-9.829 2.782-21.131 4.513-33.319.01-.082.021-.175.031-.258.793-5.522 1.617-11.22 2.493-17.051 2.545-16.979 5.45-35.05 8.665-52.843 0-.031.01-.051.01-.082 1.02-5.687 2.081-11.343 3.163-16.927 10.653-54.863 24.098-102.915 38.501-102.915 10.581 0 20.626 25.881 29.435 61.333.185.731.361 1.463.546 2.194 1.391 5.718 2.761 11.663 4.08 17.783 2.947 13.507 5.708 27.828 8.273 42.262.031.165.062.34.093.505 1.102 6.223 2.164 12.456 3.184 18.658 4.965 29.97 8.994 59.075 11.796 80.897z" fill="#ffe55a"/><path d="m294.295 230.726c6.468 1.103 12.843 2.475 19.113 4.108-9.282-72.104-31.831-223.625-57.408-223.625-3.149 0-6.252 2.306-9.29 6.469 21.179 29.018 39.198 148.696 47.585 213.048z" fill="#ffd500"/><path d="m135.193 261.677c-8.978-5.089-70.404-38.929-90.409-23.853-18.086 13.63 6.989 78.551 15.632 99.325 18.657-30.641 44.316-56.548 74.777-75.472z" fill="#ffdcbe"/><path d="m361.025 230.336c-11.566 5.877-20.004 10.607-23.129 12.388 62.288 24.022 111.356 74.534 133.265 138.08 3.254-7.716 8.4-20.31 13.957-35.403-27.29-50.97-71.024-91.612-124.093-115.065z" fill="#ff9838"/><path d="m450.583 337.017c8.692-20.913 33.625-85.591 15.576-99.192-19.935-15.023-80.991 18.522-90.305 23.794 30.444 18.875 56.095 44.727 74.729 75.398z" fill="#ffdcbe"/><path d="m150.582 230.137c-52.927 23.308-96.612 63.724-124.076 114.24 5.388 14.696 10.425 27.112 13.77 35.089 22.271-62.894 71.327-113.117 133.466-136.948-3.413-1.939-11.812-6.624-23.16-12.381z" fill="#ff9838"/><path d="m113.261 250.376c-24.291 15.86-45.77 35.661-63.529 58.503 3.966 11.696 8.074 21.997 10.683 28.271 18.658-30.642 44.317-56.549 74.777-75.472-2.897-1.643-11.262-6.281-21.931-11.302z" fill="#ffcb9d"/><path d="m397.852 250.295c-10.63 4.996-18.999 9.626-21.998 11.324 30.444 18.875 56.096 44.727 74.729 75.398 2.626-6.319 6.735-16.634 10.692-28.327-17.729-22.821-39.169-42.581-63.423-58.395z" fill="#ffcb9d"/><path d="m464.931 500.794c8.457 0 15.552-6.289 16.673-14.671.731-5.469 1.265-11 1.601-16.584-7.305-122.036-109.454-217.031-233.186-214.151-118.895 2.768-215.286 96.476-222.351 214.261.342 5.623.88 11.192 1.622 16.698 1.118 8.296 8.271 14.447 16.642 14.447h.005c9.639 0 17.337-8.09 16.776-17.712-.314-5.39-.407-10.839-.269-16.339 2.634-104.521 89.002-188.393 193.556-188.092 106.358.306 192.483 86.62 192.483 193.049 0 3.753-.108 7.481-.32 11.181-.556 9.702 7.051 17.913 16.768 17.913z" fill="#ff9838"/><g fill="#fbc700"><path d="m290.061 92.515c-24.109 29.445-69.173 37.574-75.736 38.615 0-.031.01-.051.01-.082 1.02-5.687 2.081-11.343 3.163-16.927 4.997-1.051 13.631-3.183 23.212-6.964 13.713-5.409 34.617-18.03 45.27-32.423 1.392 5.717 2.762 11.661 4.081 17.781z"/><path d="m301.61 153.94c-31.784 30.888-86.203 44.57-98.474 47.341.01-.082.021-.175.031-.258.793-5.522 1.617-11.22 2.493-17.051 6.202-1.525 17.999-4.719 31.526-9.963 19.276-7.459 45.899-21.811 61.24-38.728z"/></g></svg>