<svg id="Capa_1" enable-background="new 0 0 497 497" height="512" viewBox="0 0 497 497" width="512" xmlns="http://www.w3.org/2000/svg"><path d="m414.5 0-150 188.5 150 203.5 30-15v-369.5c0-4.142-3.358-7.5-7.5-7.5z" fill="#12398f"/><path d="m112.5 0c-33.137 0-60 26.863-60 60v377h188.5z" fill="#487ed2"/><path d="m112.5 0h302v392h-302z" fill="#1d54bd"/><path d="m444.5 489.5v-22.5l-60-30 30 60h22.5c4.142 0 7.5-3.358 7.5-7.5z" fill="#071e61"/><path d="m444.5 377h-30l-30 60 60-30z" fill="#071e61"/><path d="m112.5 377c-33.137 0-60 26.863-60 60s26.863 60 60 60h302v-120z" fill="#12398f"/><path d="m444.5 407h-332c-16.542 0-30 13.458-30 30l30 20h289.568l30-20c-.003-10.854 4.141-21.709 12.432-30z" fill="#e0f8ff"/><path d="m82.5 437c0 16.542 13.458 30 30 30h332c-8.291-8.291-12.437-19.146-12.437-30z" fill="#adeeff"/><path d="m354.5 180h30v-120h-30l-75 60z" fill="#ffc85f"/><path d="m203.5 29h120v182h-120z" fill="#ffe278" transform="matrix(0 1 -1 0 383.5 -143.5)"/></svg>