<svg id="Capa_1" enable-background="new 0 0 512 512" height="512" viewBox="0 0 512 512" width="512" xmlns="http://www.w3.org/2000/svg"><g><path d="m477.022 372.555h-441.945v-260.166c0-15.011 12.169-27.181 27.181-27.181h387.583c15.011 0 27.181 12.169 27.181 27.181z" fill="#d0d9dd"/><path d="m477.02 112.391v260.163h-20.606v-260.163c0-15.011-12.168-27.179-27.18-27.179h20.606c15.012 0 27.18 12.168 27.18 27.179z" fill="#b6c4cf"/><path d="m441.598 372.555h-371.096v-246.194c0-3.314 2.687-6.001 6.001-6.001h359.093c3.314 0 6.001 2.687 6.001 6.001v246.194z" fill="#eaf6ff"/><path d="m441.598 126.362v246.192h-20.328v-246.192c0-3.318-2.689-6.007-6.007-6.007h20.338c3.308 0 5.997 2.69 5.997 6.007z" fill="#d8ecfe"/><path d="m402.161 288.626h-292.222c-4.416 0-7.995-3.58-7.995-7.995v-119.502c0-4.416 3.58-7.995 7.995-7.995h292.222c4.416 0 7.995 3.58 7.995 7.995v119.502c0 4.416-3.58 7.995-7.995 7.995z" fill="#fd9468"/><path d="m410.153 161.125v119.505c0 4.42-3.575 7.995-7.995 7.995h-20.297c4.42 0 7.995-3.575 7.995-7.995v-119.505c0-4.41-3.575-7.995-7.995-7.995h20.297c4.42 0 7.995 3.585 7.995 7.995z" fill="#fe7d43"/><path d="m272.851 214.829-26.617-15.367c-4.658-2.689-10.48.672-10.48 6.051v30.734c0 5.378 5.822 8.74 10.48 6.051l26.617-15.367c4.658-2.689 4.658-9.412 0-12.102z" fill="#e4ebef"/><path d="m272.854 226.93-26.623 15.372c-4.657 2.689-10.478-.68-10.478-6.058v-2.174l12.364-7.14c4.657-2.689 4.657-9.407 0-12.096l-12.364-7.14v-2.184c0-5.378 5.821-8.737 10.478-6.048l26.623 15.372c4.657 2.69 4.657 9.407 0 12.096z" fill="#d0d9dd"/><path d="m410.153 320.909c-.019 0-.038 0-.056 0l-36.239.266-.005-.646c-.03-4.141-3.386-7.455-7.555-7.445-4.142.031-7.475 3.413-7.445 7.555l.005.646-256.965 1.889c-4.142.031-7.475 3.413-7.445 7.555.031 4.123 3.382 7.445 7.499 7.445h.056l256.965-1.889.026 3.55c.031 4.123 3.382 7.445 7.499 7.445h.056c4.142-.031 7.475-3.413 7.445-7.555l-.026-3.549 36.24-.266c4.142-.031 7.475-3.413 7.445-7.555-.032-4.124-3.383-7.446-7.5-7.446z" fill="#86bfea"/><path d="m493.489 426.792h-474.978c-10.223 0-18.511-8.288-18.511-18.511v-31.083c0-3.855 3.125-6.98 6.98-6.98h498.04c3.855 0 6.98 3.125 6.98 6.98v31.083c0 10.223-8.288 18.511-18.511 18.511z" fill="#8d9ca8"/><path d="m511.999 377.203v31.074c0 10.231-8.284 18.515-18.515 18.515h-20.606c10.231 0 18.515-8.283 18.515-18.515v-31.074c0-3.864-3.122-6.986-6.975-6.986h20.606c3.853.001 6.975 3.122 6.975 6.986z" fill="#7a8c98"/><path d="m204.958 370.218 7.545 21.529c1.419 4.048 5.24 6.758 9.53 6.758h68.034c4.29 0 8.111-2.71 9.53-6.758l7.545-21.529z" fill="#d9e7ec"/><path d="m307.143 370.218-7.542 21.534c-1.422 4.049-5.244 6.759-9.53 6.759h-24.253c4.286 0 8.109-2.71 9.53-6.759l7.542-21.534z" fill="#d0d9dd"/></g></svg>