<?xml version="1.0" encoding="iso-8859-1"?>
<!-- Generator: Adobe Illustrator 19.0.0, SVG Export Plug-In . SVG Version: 6.00 Build 0)  -->
<svg version="1.1" id="Capa_1" xmlns="http://www.w3.org/2000/svg" xmlns:xlink="http://www.w3.org/1999/xlink" x="0px" y="0px"
	 viewBox="0 0 512.001 512.001" style="enable-background:new 0 0 512.001 512.001;" xml:space="preserve">
<path style="fill:#E15F76;" d="M29.355,434.701c0-43.686,31.605-79.1,31.605-79.1s31.605,35.414,31.605,79.1
	c0,26.045-11.234,49.151-20.307,63.564c-5.233,8.314-17.363,8.314-22.596,0C40.59,483.852,29.355,460.746,29.355,434.701z"/>
<path style="fill:#FFE78C;" d="M49.662,498.265c5.233,8.314,17.363,8.314,22.596,0c5.7-9.055,12.252-21.543,16.336-36.033
	L60.96,434.598c0,0-14.058,14.059-27.634,27.634C37.411,476.722,43.962,489.21,49.662,498.265z"/>
<path style="opacity:0.15;enable-background:new    ;" d="M60.96,472.31c-4.142,0-7.5-3.358-7.5-7.5v-99.601
	c0-4.142,3.358-7.5,7.5-7.5s7.5,3.358,7.5,7.5v99.601C68.46,468.953,65.103,472.31,60.96,472.31z"/>
<circle style="fill:#F9993E;" cx="60.96" cy="364.1" r="31.857"/>
<path style="fill:#E15F76;" d="M482.647,434.701c0-43.686-31.605-79.1-31.605-79.1s-31.605,35.414-31.605,79.1
	c0,26.045,11.234,49.151,20.307,63.564c5.233,8.314,17.363,8.314,22.596,0C471.412,483.852,482.647,460.746,482.647,434.701z"/>
<path style="fill:#FFE78C;" d="M462.34,498.265c-5.233,8.314-17.363,8.314-22.596,0c-5.7-9.055-12.252-21.543-16.336-36.033
	l27.634-27.634c0,0,14.059,14.059,27.634,27.634C474.591,476.722,468.04,489.21,462.34,498.265z"/>
<path style="opacity:0.15;enable-background:new    ;" d="M451.041,472.31c-4.142,0-7.5-3.358-7.5-7.5v-99.601
	c0-4.142,3.358-7.5,7.5-7.5s7.5,3.358,7.5,7.5v99.601C458.541,468.953,455.184,472.31,451.041,472.31z"/>
<circle style="fill:#F9993E;" cx="451.041" cy="364.1" r="31.857"/>
<path style="fill:#E15F76;" d="M307.887,134.226c33.218,71.235,8.609,153.015,8.609,153.015s-78.465-33.716-111.682-104.951
	C185.01,139.819,185.76,93.6,189.595,63.199c2.212-17.536,21.991-26.759,36.846-17.182
	C252.195,62.621,288.083,91.755,307.887,134.226z"/>
<path style="opacity:0.15;enable-background:new    ;" d="M307.887,134.226c33.218,71.235,8.609,153.015,8.609,153.015
	s-78.465-33.716-111.682-104.951C185.01,139.819,185.76,93.6,189.595,63.199c2.212-17.536,21.991-26.759,36.846-17.182
	C252.195,62.621,288.083,91.755,307.887,134.226z"/>
<path style="fill:#FFE78C;" d="M226.441,46.018c-14.855-9.577-34.634-0.354-36.846,17.182c-2.41,19.1-3.597,44.444,0.76,71.179
	l66.074,24.049c0,0,12.235-33.614,24.049-66.074C262.8,71.83,242.621,56.449,226.441,46.018z"/>
<path style="opacity:0.15;enable-background:new    ;" d="M309.196,279.076c-2.825,0-5.53-1.604-6.802-4.332L226.659,112.33
	c-1.75-3.754-0.126-8.216,3.628-9.967c3.754-1.75,8.216-0.126,9.967,3.628l75.735,162.414c1.751,3.754,0.127,8.216-3.628,9.967
	C311.335,278.85,310.257,279.076,309.196,279.076z"/>
<path style="fill:#E15F76;" d="M351.904,134.226c-33.217,71.235-8.609,153.015-8.609,153.015s78.465-33.715,111.682-104.951
	c19.805-42.471,19.054-88.69,15.219-119.091c-2.212-17.536-21.991-26.759-36.846-17.182
	C407.597,62.621,371.709,91.755,351.904,134.226z"/>
<path style="opacity:0.15;enable-background:new    ;" d="M351.904,134.226c-33.217,71.235-8.609,153.015-8.609,153.015
	s78.465-33.715,111.682-104.951c19.805-42.471,19.054-88.69,15.219-119.091c-2.212-17.536-21.991-26.759-36.846-17.182
	C407.597,62.621,371.709,91.755,351.904,134.226z"/>
<path style="fill:#FFE78C;" d="M433.35,46.018c14.855-9.577,34.634-0.354,36.846,17.182c2.41,19.1,3.598,44.444-0.76,71.179
	l-66.074,24.049c0,0-12.234-33.614-24.049-66.074C396.992,71.83,417.17,56.449,433.35,46.018z"/>
<path style="opacity:0.15;enable-background:new    ;" d="M350.596,279.076c-1.062,0-2.14-0.227-3.165-0.705
	c-3.754-1.751-5.378-6.213-3.628-9.967l75.735-162.414c1.75-3.755,6.213-5.378,9.967-3.628c3.754,1.751,5.378,6.213,3.628,9.967
	l-75.735,162.414C356.125,277.473,353.42,279.076,350.596,279.076z"/>
<path style="fill:#E15F76;" d="M391.847,144.317c0,85.63-61.952,155.048-61.952,155.048s-61.951-69.417-61.951-155.048
	c0-51.053,22.021-96.343,39.805-124.595c10.258-16.296,34.034-16.296,44.292,0C369.826,47.974,391.847,93.264,391.847,144.317z"/>
<path style="fill:#FFE78C;" d="M352.042,19.722c-10.258-16.296-34.034-16.296-44.292,0c-11.173,17.749-24.015,42.227-32.021,70.631
	l54.167,54.168c0,0,27.557-27.557,54.168-54.168C376.057,61.949,363.215,37.472,352.042,19.722z"/>
<path style="opacity:0.15;enable-background:new    ;" d="M329.896,288.033c-4.142,0-7.5-3.358-7.5-7.5V85.298
	c0-4.142,3.358-7.5,7.5-7.5s7.5,3.358,7.5,7.5v195.234C337.396,284.675,334.038,288.033,329.896,288.033z"/>
<path style="fill:#9B6A57;" d="M422.097,364.564H89.905c-15.986,0-28.945-12.959-28.945-28.945v-35.068
	c0-15.986,12.959-28.945,28.945-28.945h332.191c15.986,0,28.945,12.959,28.945,28.945v35.068
	C451.041,351.605,438.082,364.564,422.097,364.564z"/>
<path style="opacity:0.15;enable-background:new    ;" d="M60.96,318.085v17.534c0,15.986,12.959,28.945,28.945,28.945h332.191
	c15.986,0,28.945-12.959,28.945-28.945v-17.534H60.96z"/>
<g>
	<circle style="fill:#FBE067;" cx="256.001" cy="318.08" r="20.513"/>
	<circle style="fill:#FBE067;" cx="108.211" cy="318.08" r="20.513"/>
</g>
<circle style="fill:#F9993E;" cx="182.101" cy="318.08" r="20.513"/>
<circle style="fill:#FBE067;" cx="403.791" cy="318.08" r="20.513"/>
<circle style="fill:#F9993E;" cx="329.891" cy="318.08" r="20.513"/>
<g>
	<path style="fill:#E15F76;" d="M204.777,454.474l-57.517,20.934c-3.368,1.226-7.092-0.511-8.318-3.879l-5.787-15.9
		c-1.226-3.368,0.511-7.092,3.878-8.318l57.517-20.934c3.368-1.226,7.092,0.511,8.318,3.878l5.787,15.9
		C209.882,449.525,208.145,453.248,204.777,454.474z"/>
	<path style="fill:#E15F76;" d="M307.224,454.474l57.517,20.934c3.368,1.226,7.092-0.511,8.318-3.879l5.787-15.9
		c1.226-3.368-0.511-7.092-3.878-8.318l-57.517-20.934c-3.368-1.226-7.092,0.511-8.317,3.878l-5.787,15.9
		C302.12,449.525,303.857,453.248,307.224,454.474z"/>
</g>
<path d="M209.916,427.691c-2.638-7.249-10.679-10.999-17.931-8.361l-57.516,20.934c-3.511,1.278-6.315,3.847-7.894,7.233
	c-1.58,3.387-1.745,7.186-0.467,10.697l5.787,15.899c1.278,3.512,3.847,6.315,7.233,7.895c1.881,0.877,3.889,1.318,5.904,1.318
	c1.613,0,3.231-0.283,4.792-0.851l57.517-20.935c3.512-1.278,6.315-3.847,7.895-7.234c1.579-3.387,1.745-7.186,0.467-10.696
	L209.916,427.691z M145.645,468.015l-5.096-14.001l55.617-20.243l5.096,14L145.645,468.015z M490.398,364.095
	c0-19.136-13.731-35.118-31.857-38.631V300.55c0-20.096-16.349-36.445-36.445-36.445h-26.382
	c23.852-18.139,49.961-44.12,66.061-78.646c20.429-43.81,19.902-91.177,15.862-123.199c-1.363-10.808-8.075-20.01-17.954-24.617
	c-9.878-4.606-21.241-3.832-30.397,2.07c-15.828,10.204-30.128,21.573-42.658,33.894c-8-22.773-18.594-42.559-28.24-57.881
	C352.19,5.879,341.539,0,329.896,0S307.6,5.879,301.402,15.727c-9.645,15.323-20.24,35.109-28.24,57.881
	c-12.529-12.32-26.829-23.69-42.657-33.894c-9.156-5.903-20.521-6.676-30.398-2.07c-9.878,4.606-16.59,13.809-17.954,24.617
	c-0.518,4.11,2.393,7.861,6.502,8.38c4.11,0.521,7.862-2.393,8.38-6.502c0.725-5.748,4.155-10.449,9.411-12.9
	c5.256-2.45,11.063-2.056,15.931,1.083c17.322,11.168,32.678,23.777,45.706,37.516c-2.799,10.195-4.98,20.865-6.282,31.903
	l-9.854,27.074l-54.841-19.961c-1.36-9.646-2.095-19.673-2.167-30.069c-0.029-4.125-3.381-7.448-7.499-7.448h-0.053
	c-4.142,0.029-7.476,3.41-7.448,7.552c0.087,12.678,1.098,24.873,2.992,36.549c0.007,0.046,0.016,0.092,0.023,0.139
	c2.92,17.924,7.943,34.618,15.062,49.884c16.1,34.525,42.209,60.507,66.061,78.646H89.905c-20.096,0-36.445,16.349-36.445,36.445
	v24.913c-18.125,3.512-31.856,19.495-31.856,38.631c0,9.933,3.706,19.011,9.798,25.943c-6.331,15.162-9.547,30.164-9.547,44.663
	c0,27.661,11.67,52.006,21.46,67.559C47.155,508.359,53.751,512,60.96,512c7.21,0,13.806-3.641,17.646-9.739
	c9.79-15.553,21.46-39.898,21.46-67.559c0-14.515-3.224-29.534-9.569-44.714c4.412-5.022,7.576-11.159,8.985-17.923h28.243
	c4.142,0,7.5-3.358,7.5-7.5s-3.358-7.5-7.5-7.5H92.858c-0.018,0-0.037,0-0.055,0c-0.003,0-0.006,0-0.01,0h-2.888
	c-11.825,0-21.445-9.62-21.445-21.445v-35.068c0-11.825,9.62-21.445,21.445-21.445h198.066c0.005,0,0.009,0.001,0.014,0.001
	s0.011-0.001,0.016-0.001h62.301c0.005,0,0.009,0.001,0.014,0.001s0.011-0.001,0.016-0.001h21.457c0.005,0,0.01,0.001,0.016,0.001
	c0.005,0,0.009-0.001,0.014-0.001h50.277c11.825,0,21.445,9.62,21.445,21.445v35.068c0,11.825-9.62,21.445-21.445,21.445h-251.58
	c-4.142,0-7.5,3.358-7.5,7.5s3.358,7.5,7.5,7.5h242.003c1.409,6.764,4.573,12.902,8.985,17.924
	c-6.345,15.179-9.569,30.199-9.569,44.713c0,27.662,11.67,52.007,21.46,67.559c3.839,6.099,10.436,9.74,17.646,9.74
	s13.806-3.641,17.645-9.74c9.79-15.552,21.461-39.898,21.461-67.559c0-14.499-3.217-29.5-9.547-44.662
	C486.692,383.106,490.398,374.028,490.398,364.095z M65.912,494.269c-1.551,2.465-3.979,2.73-4.951,2.73s-3.399-0.266-4.951-2.73
	c-8.738-13.882-19.155-35.484-19.155-59.568c0-11.351,2.325-23.161,6.915-35.21c5.197,2.534,11.03,3.96,17.19,3.96
	c6.142,0,11.973-1.441,17.177-3.994c4.598,12.06,6.928,23.883,6.928,35.244C85.066,458.785,74.65,480.388,65.912,494.269z
	 M84.116,371.599c-3.189,9.754-12.41,16.853-23.156,16.853c-13.43,0-24.356-10.926-24.356-24.356
	c0-10.952,7.267-20.237,17.232-23.291C56.09,356.556,68.448,369.087,84.116,371.599z M437.415,52.321
	c4.869-3.139,10.676-3.533,15.93-1.083c5.256,2.451,8.686,7.152,9.411,12.899c2.246,17.808,3.353,40.629-0.048,64.708
	l-54.864,19.969l-9.854-27.074c-1.301-11.037-3.483-21.707-6.282-31.903C404.737,76.097,420.092,63.488,437.415,52.321z
	 M314.097,23.718c3.436-5.459,9.342-8.718,15.799-8.718s12.363,3.259,15.799,8.718c10.495,16.672,22.189,38.89,29.937,64.461
	l-45.736,45.736L284.16,88.179C291.908,62.607,303.601,40.39,314.097,23.718z M290.193,264.106
	c-25.853-16.682-59.785-44.677-78.582-84.985c-4.818-10.332-8.597-21.407-11.334-33.15l53.587,19.505
	c0.847,0.308,1.713,0.454,2.565,0.454c1.87,0,3.664-0.712,5.036-1.953c4.041,39.353,19.468,74.267,34.6,100.13L290.193,264.106
	L290.193,264.106z M346.197,264.106h-32.603c-17.905-28.626-38.15-71.639-38.15-119.789c0-13.581,1.624-26.753,4.341-39.3
	l44.807,44.807c1.464,1.464,3.384,2.197,5.303,2.197s3.839-0.732,5.303-2.197l44.808-44.807c2.717,12.547,4.341,25.719,4.341,39.3
	C384.347,192.467,364.102,235.48,346.197,264.106z M369.599,264.106h-5.872c15.131-25.861,30.557-60.772,34.599-100.123
	c0.552,0.5,1.178,0.921,1.866,1.241c1.002,0.467,2.085,0.703,3.169,0.703c0.867,0,1.735-0.15,2.566-0.452l53.585-19.504
	c-2.586,11.089-6.252,22.255-11.332,33.149C429.384,219.43,395.452,247.425,369.599,264.106z M455.992,494.269
	c-1.552,2.465-3.979,2.731-4.951,2.731s-3.399-0.266-4.951-2.731c-8.738-13.881-19.154-35.483-19.154-59.568
	c0-11.361,2.33-23.183,6.928-35.243c5.204,2.553,11.035,3.994,17.177,3.994c6.161,0,11.993-1.426,17.19-3.96
	c4.59,12.048,6.915,23.859,6.915,35.209C475.147,458.785,464.73,480.388,455.992,494.269z M451.041,388.452
	c-10.746,0-19.967-7.099-23.156-16.853c15.668-2.512,28.027-15.043,30.281-30.795c9.965,3.054,17.232,12.339,17.232,23.291
	C475.398,377.526,464.472,388.452,451.041,388.452z M377.532,440.265l-57.517-20.934c-7.25-2.637-15.293,1.113-17.93,8.361
	l-5.787,15.899c-1.278,3.512-1.113,7.311,0.466,10.697c1.579,3.387,4.383,5.956,7.895,7.234l57.517,20.935
	c1.561,0.568,3.179,0.851,4.792,0.851c2.015,0,4.023-0.441,5.904-1.318c3.387-1.58,5.955-4.383,7.233-7.895l5.787-15.899
	c1.278-3.512,1.113-7.31-0.467-10.698C383.847,444.111,381.043,441.543,377.532,440.265z M366.356,468.015l-55.617-20.243l5.096-14
	l55.617,20.243L366.356,468.015z"/>
<g>
</g>
<g>
</g>
<g>
</g>
<g>
</g>
<g>
</g>
<g>
</g>
<g>
</g>
<g>
</g>
<g>
</g>
<g>
</g>
<g>
</g>
<g>
</g>
<g>
</g>
<g>
</g>
<g>
</g>
</svg>
