<svg id="Capa_1" enable-background="new 0 0 512 512" height="512" viewBox="0 0 512 512" width="512" xmlns="http://www.w3.org/2000/svg"><g><g><path d="m37.862 475.539c-48.305-48.615-48.305-127.436 0-176.051l261.348-263.027c48.305-48.615 126.623-48.615 174.927 0 48.305 48.615 48.305 127.436 0 176.051l-261.347 263.027c-48.305 48.615-126.623 48.615-174.928 0z" fill="#fed2a4"/><g><path d="m201.344 418.701-108.045-108.045c-3.997-3.997-3.997-10.479 0-14.476l202.881-202.881c3.997-3.997 10.479-3.997 14.476 0l108.045 108.046c3.997 3.997 3.997 10.479 0 14.476l-202.881 202.88c-3.997 3.998-10.478 3.998-14.476 0z" fill="#fdb4ba"/></g></g><g><path d="m474.138 36.461c-14.058-14.148-30.66-24.171-48.322-30.084 6.201 4.28 12.105 9.185 17.614 14.73 48.305 48.615 48.305 127.436 0 176.051-7.629 7.678-20.05 7.678-27.678 0l-138.107-138.993-218.218 219.619 138.282 139.17c7.56 7.609 7.56 19.893 0 27.502l-15.628 15.729c-34.247 34.467-83.577 44.489-126.605 30.084 48.169 33.246 114.518 28.34 157.313-14.73l261.348-263.027c48.306-48.615 48.306-127.435.001-176.051z" fill="#ffbd86"/><path d="m474.138 475.539c48.305-48.615 48.305-127.436 0-176.051l-261.348-263.027c-48.305-48.615-126.623-48.615-174.927 0-48.305 48.615-48.305 127.436 0 176.051l261.347 263.027c48.305 48.615 126.623 48.615 174.928 0z" fill="#fed2a4"/><path d="m474.138 299.488-30.708-30.708c48.305 48.615 48.305 127.436 0 176.051-46.935 47.237-122.203 48.571-170.745 4.012l26.526 26.697c48.305 48.615 126.623 48.615 174.927 0 48.305-48.617 48.305-127.437 0-176.052z" fill="#ffbd86"/><g><path d="m286.047 399.883 113.836-113.836c2.398-2.398 2.398-6.287 0-8.686l-165.244-165.244c-2.398-2.398-6.287-2.398-8.686 0l-113.836 113.836c-2.398 2.398-2.398 6.287 0 8.686l165.244 165.243c2.399 2.399 6.287 2.399 8.686.001z" fill="#fea3c6"/><g fill="#fff"><circle cx="228.279" cy="153.22" r="7.677"/><circle cx="190.749" cy="190.749" r="7.677"/><circle cx="152.28" cy="229.219" r="7.677"/><circle cx="249.993" cy="174.934" r="7.677"/><circle cx="212.463" cy="212.463" r="7.677"/><circle cx="173.994" cy="250.933" r="7.677"/><circle cx="271.707" cy="196.648" r="7.677"/><circle cx="234.177" cy="234.177" r="7.677"/><circle cx="195.708" cy="272.647" r="7.677"/><circle cx="293.421" cy="218.362" r="7.677"/><circle cx="255.891" cy="255.891" r="7.677"/><circle cx="217.422" cy="294.361" r="7.677"/><circle cx="315.135" cy="240.076" r="7.677"/><circle cx="277.605" cy="277.605" r="7.677"/><circle cx="239.136" cy="316.075" r="7.677"/><circle cx="336.849" cy="261.79" r="7.677"/><circle cx="299.319" cy="299.319" r="7.677"/><circle cx="260.85" cy="337.789" r="7.677"/><circle cx="358.563" cy="283.503" r="7.677"/><circle cx="321.033" cy="321.033" r="7.677"/><circle cx="282.564" cy="359.503" r="7.677"/></g></g></g></g></svg>