<svg id="Capa_1" enable-background="new 0 0 512 512" height="512" viewBox="0 0 512 512" width="512" xmlns="http://www.w3.org/2000/svg"><g><g><path d="m83.127 4.165c-12.577 6.74-17.308 22.401-10.568 34.978l82.444 153.83c6.741 12.577 22.401 17.309 34.978 10.568 12.577-6.741 17.309-22.401 10.568-34.978l-82.444-153.83c-6.74-12.578-22.4-17.309-34.978-10.568z" fill="#e7a561"/><path d="m198.083 196.755c-2.132 2.722-4.861 5.05-8.104 6.788-12.575 6.739-28.233 2.008-34.972-10.566l-82.448-153.834c-6.739-12.575-2.008-28.233 10.566-34.972 3.244-1.738 6.698-2.713 10.14-2.99-6.171 7.821-7.481 18.863-2.48 28.194l82.447 153.834c5.001 9.331 14.921 14.354 24.851 13.546z" fill="#e49542"/></g><path d="m384.697 93.009c8.318-8.84 13.035-18.917 13.035-29.616 0-35.011-50.443-63.393-112.669-63.393s-112.669 28.382-112.669 63.393c0 10.699 4.717 20.776 13.035 29.616-35.287 16.246-57.813 40.938-57.813 68.592 0 48.926 70.491 88.587 157.447 88.587s157.447-39.662 157.447-88.587c0-27.654-22.526-52.346-57.813-68.592z" fill="#f9efda"/><path d="m285.062 250.194c-86.953 0-157.443-39.667-157.443-88.592 0-27.658 22.524-52.347 57.811-68.593-8.319-8.834-13.03-18.916-13.03-29.617 0-35.008 50.44-63.387 112.663-63.387-32.225 0-58.357 28.379-58.357 63.387 0 10.701 2.443 20.782 6.752 29.617-18.277 16.247-29.947 40.935-29.947 68.593 0 48.925 36.513 88.592 81.551 88.592z" fill="#f6e4c1"/><path d="m425.214 203.478s0 5.742-.227 15.886c-.186 8.999-.557 21.473-1.268 36.472l-138.657 23.864-138.655-23.865c-.701-14.999-1.072-27.472-1.268-36.472-.227-10.143-.227-15.886-.227-15.886h280.302z" fill="#f9efda"/><path d="m423.72 255.831c-2.979 63.717-11.927 173.081-38.729 256.169h-199.863c-26.802-83.087-35.74-192.451-38.719-256.169h156.296z" fill="#df73c1"/><path d="m215.714 255.831-29.92 20.075-39.385-20.075c-1.495-31.895-1.495-52.357-1.495-52.357h70.047s0 20.463.753 52.357z" fill="#f6e4c1"/><path d="m235.073 512h-49.945c-26.802-83.087-35.74-192.451-38.719-256.169h69.305c1.484 63.718 5.958 173.082 19.359 256.169z" fill="#dd4fb1"/><g><path d="m222.536 175.436c-7.548 2.461-15.661-1.663-18.121-9.211l-12.765-39.157c-2.461-7.548 1.663-15.661 9.211-18.121 7.548-2.461 15.661 1.663 18.121 9.211l12.765 39.157c2.46 7.547-1.664 15.661-9.211 18.121z" fill="#b3e59f"/><path d="m228.169 172.01c-1.532 1.519-3.441 2.716-5.636 3.431-7.547 2.46-15.659-1.672-18.12-9.218l-12.765-39.155c-2.46-7.547 1.662-15.656 9.208-18.116 2.195-.716 4.442-.874 6.572-.56-3.76 3.698-5.336 9.34-3.589 14.701l12.765 39.155c1.749 5.361 6.348 8.991 11.565 9.762z" fill="#95d6a4"/></g><g><path d="m395.744 164.861c-3.065 7.323-11.487 10.774-18.81 7.709l-37.991-15.903c-7.323-3.065-10.774-11.487-7.709-18.81 3.065-7.323 11.487-10.774 18.81-7.709l37.991 15.903c7.323 3.066 10.774 11.487 7.709 18.81z" fill="#bc95e2"/><path d="m396.828 158.357c.149 2.152-.19 4.379-1.082 6.509-3.065 7.322-11.492 10.768-18.814 7.703l-37.989-15.902c-7.322-3.065-10.772-11.482-7.707-18.804.892-2.13 2.239-3.935 3.868-5.343.345 5.263 3.589 10.141 8.79 12.318l37.989 15.902c5.202 2.177 10.953 1.065 14.945-2.383z" fill="#ac80dd"/></g><g><path d="m280.772 108.122c-7.576 2.372-15.64-1.848-18.012-9.424l-12.304-39.305c-2.372-7.576 1.848-15.64 9.424-18.012 7.576-2.372 15.64 1.848 18.012 9.424l12.304 39.305c2.371 7.576-1.848 15.64-9.424 18.012z" fill="#ffe07d"/><path d="m286.446 104.762c-1.55 1.501-3.473 2.675-5.676 3.365-7.575 2.371-15.639-1.856-18.01-9.431l-12.303-39.302c-2.371-7.575 1.846-15.636 9.421-18.007 2.204-.69 4.452-.822 6.579-.482-3.804 3.653-5.446 9.277-3.761 14.658l12.303 39.302c1.683 5.381 6.239 9.064 11.447 9.897z" fill="#ffd064"/></g><g><circle cx="417.195" cy="117.27" fill="#df73c1" r="15.416"/><path d="m422.325 131.816c-1.608.567-3.33.876-5.134.876-8.515 0-15.411-6.906-15.411-15.422 0-8.515 6.896-15.411 15.411-15.411 1.804 0 3.526.309 5.134.876-5.989 2.114-10.288 7.825-10.288 14.535 0 6.712 4.298 12.433 10.288 14.546z" fill="#dd4fb1"/></g><g><circle cx="330.117" cy="42.512" fill="#df73c1" r="15.416"/><path d="m335.247 57.057c-1.608.567-3.33.876-5.134.876-8.515 0-15.411-6.906-15.411-15.422 0-8.515 6.896-15.411 15.411-15.411 1.804 0 3.526.309 5.134.876-5.989 2.114-10.288 7.825-10.288 14.535 0 6.712 4.299 12.433 10.288 14.546z" fill="#dd4fb1"/></g><g><circle cx="190.937" cy="27.098" fill="#df73c1" r="15.416"/><path d="m196.066 41.643c-1.608.567-3.33.876-5.134.876-8.515 0-15.411-6.906-15.411-15.422 0-8.515 6.896-15.411 15.411-15.411 1.804 0 3.526.309 5.134.876-5.989 2.114-10.288 7.825-10.288 14.535 0 6.712 4.299 12.433 10.288 14.546z" fill="#dd4fb1"/></g><g><circle cx="287.289" cy="155.743" fill="#df73c1" r="15.416"/><path d="m292.419 170.288c-1.608.567-3.33.876-5.134.876-8.515 0-15.411-6.906-15.411-15.422 0-8.515 6.896-15.411 15.411-15.411 1.804 0 3.526.309 5.134.876-5.989 2.114-10.288 7.825-10.288 14.535 0 6.712 4.299 12.433 10.288 14.546z" fill="#dd4fb1"/></g><path d="m425.214 203.478s0 5.742-.227 15.886h-279.848c-.227-10.143-.227-15.886-.227-15.886z" fill="#f6e4c1"/></g></svg>