<?xml version="1.0" encoding="iso-8859-1"?>
<!-- Generator: Adobe Illustrator 19.0.0, SVG Export Plug-In . SVG Version: 6.00 Build 0)  -->
<svg version="1.1" id="Capa_1" xmlns="http://www.w3.org/2000/svg" xmlns:xlink="http://www.w3.org/1999/xlink" x="0px" y="0px"
	 viewBox="0 0 511.999 511.999" style="enable-background:new 0 0 511.999 511.999;" xml:space="preserve">
<g>
	<circle style="fill:#FF0C38;" cx="354.691" cy="186.436" r="28.753"/>
	<circle style="fill:#FF0C38;" cx="399.473" cy="134.158" r="28.753"/>
</g>
<circle style="fill:#C70024;" cx="320.532" cy="152.288" r="28.753"/>
<circle style="fill:#D80027;" cx="362.125" cy="152.288" r="28.753"/>
<g>
	<circle style="fill:#FF0C38;" cx="337.032" cy="115.222" r="28.753"/>
	<circle style="fill:#FF0C38;" cx="295.961" cy="61.197" r="28.753"/>
</g>
<circle style="fill:#C70024;" cx="333.372" cy="40.368" r="28.753"/>
<circle style="fill:#D80027;" cx="341.967" cy="73.399" r="28.753"/>
<circle style="fill:#C70024;" cx="378.855" cy="102.153" r="28.753"/>
<path style="fill:#B9D8F4;" d="M279.161,470.506h-21.339c-25.489,0-25.489-25.075-25.489-25.075v-56.313h-43.864v56.313
	c0,0,0,25.075-25.489,25.075h-21.339c-11.41,0-20.746,9.336-20.746,20.746l0,0c0,11.41,9.336,20.746,20.746,20.746h137.52
	c11.41,0,20.746-9.336,20.746-20.746l0,0C299.907,479.842,290.571,470.506,279.161,470.506z"/>
<path style="fill:#96C8EF;" d="M188.469,434.67c7.162,1.106,14.483,1.689,21.932,1.689c7.449,0,14.77-0.582,21.932-1.689v-45.55
	h-43.864V434.67z"/>
<path style="fill:#D1E7F8;" d="M334.929,89.591c-2.794-5.163-7.952-8.344-13.533-8.344H99.406c-5.58,0-10.739,3.18-13.533,8.344
	c-2.795,5.163-2.801,11.527-0.019,16.699c0.301,0.558,29.837,56.746,10.23,134.483c-3.329,11.871-5.017,24.208-5.017,36.67
	c0,70.331,53.532,127.548,119.332,127.548s119.332-57.218,119.332-127.548c0-12.463-1.688-24.799-5.017-36.67
	c-19.428-77.049,9.96-133.973,10.23-134.483C337.73,101.118,337.724,94.754,334.929,89.591z"/>
<path style="fill:#B9D8F4;" d="M172.449,277.443c0-12.463,1.688-24.799,5.017-36.67c19.607-77.736-9.929-133.924-10.23-134.483
	c-2.782-5.17-2.777-11.535,0.019-16.699c2.794-5.163,7.952-8.344,13.533-8.344H99.406c-5.58,0-10.739,3.18-13.532,8.344
	c-2.795,5.163-2.801,11.527-0.019,16.699c0.301,0.558,29.837,56.746,10.23,134.483c-3.329,11.871-5.017,24.208-5.017,36.67
	c0,70.331,53.532,127.548,119.332,127.548c14.283,0,27.986-2.7,40.691-7.64C205.265,379.531,172.449,332.508,172.449,277.443z"/>
<path style="fill:#3E3D42;" d="M178.678,220.928c0,0-16.374,2.336-18.481-14.772L139.274,18.584
	c-1.02-9.145,5.627-17.461,14.772-18.481l0,0c9.145-1.02,17.461,5.627,18.481,14.772l20.924,187.573
	C194.47,211.592,187.823,219.908,178.678,220.928z"/>
<path style="fill:#1D1D1F;" d="M160.198,206.157c2.107,17.107,18.481,14.772,18.481,14.772c9.145-1.02,15.791-9.336,14.772-18.481
	L179.93,81.247h-33.666L160.198,206.157z"/>
<path style="fill:#FFE477;" d="M292.497,250.431c-12.379-50.276-3.14-91.69,3.47-111.902c1.135-3.472,0.57-7.292-1.519-10.263
	c-2.089-2.972-5.445-4.733-9.022-4.733h-150.05c-3.581,0-6.943,1.767-9.032,4.746c-2.088,2.98-2.646,6.808-1.499,10.281
	c6.615,20.044,15.851,61.231,3.378,111.875c0,0-3.794,18.638-3.794,28.038c0,52.467,38.548,95.152,85.932,95.152
	s85.932-42.685,85.932-95.152C296.293,269.072,292.497,250.431,292.497,250.431z"/>
<path style="fill:#FFDA44;" d="M126.344,128.277c-2.088,2.98-2.646,6.808-1.499,10.281c6.615,20.044,15.851,61.231,3.378,111.875
	c0,0-3.794,18.638-3.794,28.038c0,52.467,38.548,95.152,85.932,95.152c1.032,0,2.058-0.027,3.081-0.068
	c-25.098-23.399-40.993-57.804-40.993-96.113c0-12.463,1.688-24.799,5.017-36.67c13.188-52.287,4.144-94.823-3.284-117.241h-38.805
	C131.795,123.531,128.433,125.298,126.344,128.277z"/>
<path style="fill:#FFA733;" d="M133.732,183.009c1.578,19.135,0.77,42.098-5.468,67.425c0,0-3.794,18.638-3.794,28.038
	c0,52.467,38.548,95.152,85.932,95.152c47.382,0,85.932-42.685,85.932-95.152c0-9.4-3.794-28.041-3.794-28.041
	c-6.211-25.226-6.978-48.217-5.368-67.422L133.732,183.009L133.732,183.009z"/>
<path style="fill:#FF9811;" d="M128.264,250.434c0,0-3.794,18.638-3.794,28.038c0,52.467,38.548,95.152,85.932,95.152
	c1.019,0,2.032-0.027,3.043-0.066c-25.099-23.399-40.995-57.805-40.995-96.114c0-12.463,1.688-24.799,5.017-36.67
	c5.313-21.064,7.013-40.542,6.669-57.764h-50.402C135.311,202.144,134.503,225.107,128.264,250.434z"/>
<path style="fill:#FF5023;" d="M128.264,250.434c0,0-3.794,18.638-3.794,28.038c0,52.467,38.548,95.152,85.932,95.152
	s85.932-42.685,85.932-95.152c0-9.4-3.795-28.041-3.795-28.041c-1.402-5.696-2.515-11.27-3.397-16.721H131.673
	C130.785,239.156,129.669,244.731,128.264,250.434z"/>
<path style="fill:#FF3501;" d="M179.126,233.71h-47.452c-0.889,5.446-2.004,11.021-3.41,16.725c0,0-3.794,18.638-3.794,28.038
	c0,52.467,38.548,95.152,85.932,95.152c1.019,0,2.033-0.027,3.043-0.066c-25.099-23.399-40.995-57.805-40.995-96.114
	c0-12.463,1.688-24.799,5.017-36.67C178.065,238.397,178.617,236.044,179.126,233.71z"/>
<path style="fill:#FF0C38;" d="M125.925,295.931c7.426,44.157,42.478,77.694,84.476,77.694s77.05-33.536,84.476-77.694H125.925z"/>
<path style="fill:#D80027;" d="M210.401,373.624c1.016,0,2.025-0.037,3.032-0.075c-20.979-19.563-35.51-46.819-39.713-77.617
	h-47.795C133.351,340.088,168.403,373.624,210.401,373.624z"/>
<g>
</g>
<g>
</g>
<g>
</g>
<g>
</g>
<g>
</g>
<g>
</g>
<g>
</g>
<g>
</g>
<g>
</g>
<g>
</g>
<g>
</g>
<g>
</g>
<g>
</g>
<g>
</g>
<g>
</g>
</svg>
