<?xml version="1.0" encoding="iso-8859-1"?>
<!-- Generator: Adobe Illustrator 19.0.0, SVG Export Plug-In . SVG Version: 6.00 Build 0)  -->
<svg version="1.1" id="Capa_1" xmlns="http://www.w3.org/2000/svg" xmlns:xlink="http://www.w3.org/1999/xlink" x="0px" y="0px"
	 viewBox="0 0 512 512" style="enable-background:new 0 0 512 512;" xml:space="preserve">
<path style="fill:#CFB1FC;" d="M338.654,167.674v254.997c0,49.33-39.988,89.328-89.328,89.328s-89.339-39.999-89.339-89.328V167.674
	L338.654,167.674L338.654,167.674z"/>
<path style="fill:#CF8BFC;" d="M207.087,422.671V167.674h-47.101v254.997c0,49.33,39.999,89.328,89.339,89.328
	c8.154,0,16.044-1.114,23.55-3.16C234.966,498.503,207.087,463.849,207.087,422.671z"/>
<g>
	<path style="fill:#F9D366;" d="M425.33,144.146c-4.329,0-7.837-3.509-7.837-7.837v-20.767c0-4.328,3.508-7.837,7.837-7.837
		s7.837,3.509,7.837,7.837v20.767C433.167,140.637,429.659,144.146,425.33,144.146z"/>
	<path style="fill:#F9D366;" d="M425.33,200.057c-4.329,0-7.837-3.509-7.837-7.837v-20.767c0-4.328,3.508-7.837,7.837-7.837
		s7.837,3.509,7.837,7.837v20.767C433.167,196.548,429.659,200.057,425.33,200.057z"/>
	<path style="fill:#F9D366;" d="M463.67,161.718h-20.766c-4.329,0-7.837-3.509-7.837-7.837c0-4.328,3.508-7.837,7.837-7.837h20.766
		c4.329,0,7.837,3.509,7.837,7.837C471.506,158.209,467.998,161.718,463.67,161.718z"/>
	<path style="fill:#F9D366;" d="M407.758,161.718h-20.766c-4.329,0-7.837-3.509-7.837-7.837c0-4.328,3.508-7.837,7.837-7.837h20.766
		c4.329,0,7.837,3.509,7.837,7.837C415.595,158.209,412.087,161.718,407.758,161.718z"/>
</g>
<path style="fill:#CF8BFC;" d="M338.654,167.674v32.914c-21.076,14.075-53.259,23.071-89.328,23.071
	c-19.143,0-37.209-2.539-53.091-7.022c-14.033-3.96-26.363-9.456-36.248-16.06v-32.904H338.654z"/>
<path style="fill:#CFB1FC;" d="M364.265,128.506c0,34.379-51.462,62.239-114.937,62.239c-19.149,0-37.212-2.535-53.091-7.019
	c-36.765-10.384-61.857-31.215-61.857-55.222c0-21.961,20.992-41.269,52.708-52.335h124.48
	C343.283,87.247,364.265,106.556,364.265,128.506z"/>
<path style="fill:#CF8BFC;" d="M227.729,76.171l-7.157,52.58c0,0-48.682,11.822-24.336,54.966v0.01
	c-36.765-10.384-61.857-31.215-61.857-55.222c0-21.961,20.992-41.269,52.708-52.335C187.088,76.171,227.729,76.171,227.729,76.171z"
	/>
<path style="fill:#F9D366;" d="M311.568,19.033v92.838c0,10.512-27.872,19.032-62.239,19.032c-10.374,0-20.15-0.777-28.756-2.151
	c-19.905-3.173-33.495-9.543-33.495-16.88V19.033H311.568z"/>
<g>
	<path style="fill:#DD8833;" d="M220.571,19.033v109.719c-19.905-3.173-33.495-9.543-33.495-16.88V19.033H220.571z"/>
	<ellipse style="fill:#DD8833;" cx="249.323" cy="19.032" rx="62.245" ry="19.032"/>
	<path style="fill:#DD8833;" d="M284.402,63.079c-6.97,0-10.434-8.879-5.306-13.598c5.05-4.649,13.457-0.701,13.133,6.145
		C292.035,59.742,288.521,63.079,284.402,63.079z"/>
	<path style="fill:#DD8833;" d="M249.326,68.366c-3.136,0-6.037-1.945-7.241-4.838c-1.333-3.203-0.327-7.002,2.386-9.152
		c2.661-2.112,6.547-2.227,9.33-0.277c2.692,1.886,3.951,5.347,3.069,8.518C255.936,65.968,252.81,68.366,249.326,68.366z"/>
	<path style="fill:#DD8833;" d="M270.954,89.379c-7.117,0-10.501-9.165-5.092-13.794c5.53-4.732,14.209,0.367,12.772,7.493
		C277.906,86.695,274.653,89.379,270.954,89.379z"/>
</g>
<path style="fill:#EF8C33;" d="M359.634,217.916l-86.782,41.335c-17.119,8.153-24.387,28.642-16.233,45.76l51.347,107.802
	c8.153,17.119,28.642,24.387,45.76,16.233l86.783-41.335c17.119-8.153,24.387-28.642,16.233-45.76l-51.347-107.802
	C397.24,217.03,376.753,209.763,359.634,217.916z"/>
<path style="fill:#ED4596;" d="M349.325,308.04c0,0,15.531-44.841,41.011-30.527c39.223,22.036-10.871,93.805-10.871,93.805
	s-87.294-6.33-79.686-50.672C304.72,291.842,349.325,308.04,349.325,308.04z"/>
<path style="fill:#4E4F75;" d="M322.796,265.164c-1.368,0-2.752-0.358-4.011-1.111c-1.111-0.662-27.324-16.903-39.803-75.02
	c-0.908-4.232,1.786-8.399,6.018-9.307c4.229-0.909,8.398,1.785,9.307,6.017c10.886,50.699,32.302,64.727,32.515,64.854
	c3.717,2.219,4.929,7.031,2.709,10.747C328.064,263.802,325.463,265.164,322.796,265.164z"/>
<path style="fill:#F9D366;" d="M153.951,279.426l7.659-1.553c10.107-2.049,10.107-16.495,0-18.544l-7.659-1.553
	c-19.294-3.912-34.373-18.991-38.284-38.284l-1.553-7.659c-2.049-10.107-16.495-10.107-18.544,0l-1.553,7.659
	c-3.912,19.294-18.991,34.373-38.284,38.284l-7.659,1.553c-10.107,2.049-10.107,16.495,0,18.544l7.659,1.553
	c19.294,3.912,34.373,18.991,38.284,38.284l1.553,7.659c2.049,10.107,16.495,10.107,18.544,0l1.553-7.659
	C119.578,298.417,134.657,283.337,153.951,279.426z"/>
<path style="fill:#CF8BFC;" d="M249.324,138.74c-32.212,0-62.749-6.301-83.78-17.287c-3.836-2.004-5.322-6.739-3.318-10.574
	c2.003-3.836,6.738-5.322,10.574-3.318c18.864,9.854,46.755,15.506,76.522,15.506c29.77,0,57.663-5.654,76.526-15.512
	c3.836-2.003,8.57-0.52,10.575,3.315c2.004,3.836,0.519,8.57-3.317,10.575C312.079,132.436,281.539,138.74,249.324,138.74z"/>
<g>
</g>
<g>
</g>
<g>
</g>
<g>
</g>
<g>
</g>
<g>
</g>
<g>
</g>
<g>
</g>
<g>
</g>
<g>
</g>
<g>
</g>
<g>
</g>
<g>
</g>
<g>
</g>
<g>
</g>
</svg>
