<?xml version="1.0" encoding="iso-8859-1"?>
<!-- Generator: Adobe Illustrator 19.0.0, SVG Export Plug-In . SVG Version: 6.00 Build 0)  -->
<svg version="1.1" id="Capa_1" xmlns="http://www.w3.org/2000/svg" xmlns:xlink="http://www.w3.org/1999/xlink" x="0px" y="0px"
	 viewBox="0 0 512.002 512.002" style="enable-background:new 0 0 512.002 512.002;" xml:space="preserve">
<g>
	<path style="fill:#9E9C9D;" d="M374.679,130.869c0,0,47.195-43.587,101.821-6.067s37.521,83.319,6.621,74.49
		c16.002,24.278-4.967,35.866-22.623,32.004c0,0,12.799,34.147-19.534,27.557L374.679,130.869z"/>
	<path style="fill:#9E9C9D;" d="M137.323,130.869c0,0-47.195-43.587-101.821-6.067s-37.521,83.319-6.621,74.49
		c-16.002,24.278,4.967,35.866,22.623,32.004c0,0-12.799,34.147,19.534,27.557L137.323,130.869z"/>
</g>
<path style="fill:#D4D2D3;" d="M256.001,92.087c-66.53,0-186.088,38.101-186.088,191.818c0,127.64,128.306,136.611,171.839,135.982
	c9.499-0.137,19-0.137,28.498,0c43.532,0.629,171.839-8.341,171.839-135.982C442.089,130.187,322.531,92.087,256.001,92.087z"/>
<g>
	<path style="fill:#BAB8B9;" d="M100.818,283.905c0-142.429,102.637-185.592,170.635-191.163
		c-5.389-0.442-10.568-0.654-15.453-0.654c-66.53,0-186.088,38.1-186.088,191.818c0,127.639,128.306,136.61,171.839,135.982
		c6.696-0.097,13.392-0.101,20.09-0.061C211.066,418.571,100.818,402.227,100.818,283.905z"/>
	<path style="fill:#BAB8B9;" d="M272.657,419.886c-0.389,0.005-0.8,0.008-1.203,0.012c2.884,0.029,6.105,0.013,9.613-0.073
		C278.263,419.841,275.46,419.845,272.657,419.886z"/>
</g>
<g>
	<path style="fill:#3A484A;" d="M266.855,241.366c-6.775-3.649-14.931-3.649-21.707,0c-12.948,6.973-32.868,22.964-32.868,55.348
		c0,20.119,11.607,38.692,43.722,38.692s43.722-18.572,43.722-38.692C299.723,264.33,279.803,248.34,266.855,241.366z"/>
	<path style="fill:#3A484A;" d="M168.492,279.465c-4.267,0-7.726-3.459-7.726-7.726V255.9c0-4.267,3.459-7.726,7.726-7.726
		c4.267,0,7.726,3.459,7.726,7.726v15.838C176.218,276.005,172.759,279.465,168.492,279.465z"/>
	<path style="fill:#3A484A;" d="M343.51,279.465c-4.267,0-7.726-3.459-7.726-7.726V255.9c0-4.267,3.459-7.726,7.726-7.726
		c4.267,0,7.726,3.459,7.726,7.726v15.838C351.236,276.005,347.777,279.465,343.51,279.465z"/>
</g>
<g>
	<path style="fill:#FF98C9;" d="M162.785,309.143h-20.926c-4.267,0-7.726-3.459-7.726-7.726c0-4.267,3.459-7.726,7.726-7.726h20.926
		c4.267,0,7.726,3.459,7.726,7.726C170.511,305.684,167.052,309.143,162.785,309.143z"/>
	<path style="fill:#FF98C9;" d="M370.143,309.143h-20.926c-4.267,0-7.726-3.459-7.726-7.726c0-4.267,3.459-7.726,7.726-7.726h20.926
		c4.267,0,7.726,3.459,7.726,7.726C377.869,305.684,374.41,309.143,370.143,309.143z"/>
</g>
<g>
</g>
<g>
</g>
<g>
</g>
<g>
</g>
<g>
</g>
<g>
</g>
<g>
</g>
<g>
</g>
<g>
</g>
<g>
</g>
<g>
</g>
<g>
</g>
<g>
</g>
<g>
</g>
<g>
</g>
</svg>
